%TF.GenerationSoftware,KiCad,Pcbnew,8.0.2*%
%TF.CreationDate,2024-06-04T14:33:09+05:30*%
%TF.ProjectId,evoborne,65766f62-6f72-46e6-952e-6b696361645f,rev?*%
%TF.SameCoordinates,Original*%
%TF.FileFunction,Legend,Bot*%
%TF.FilePolarity,Positive*%
%FSLAX46Y46*%
G04 Gerber Fmt 4.6, Leading zero omitted, Abs format (unit mm)*
G04 Created by KiCad (PCBNEW 8.0.2) date 2024-06-04 14:33:09*
%MOMM*%
%LPD*%
G01*
G04 APERTURE LIST*
%ADD10C,0.400000*%
%ADD11C,0.000000*%
G04 APERTURE END LIST*
D10*
X110258652Y-130067034D02*
X110258652Y-128317034D01*
X110258652Y-128317034D02*
X109782462Y-128317034D01*
X109782462Y-128317034D02*
X109496747Y-128400367D01*
X109496747Y-128400367D02*
X109306271Y-128567034D01*
X109306271Y-128567034D02*
X109211033Y-128733701D01*
X109211033Y-128733701D02*
X109115795Y-129067034D01*
X109115795Y-129067034D02*
X109115795Y-129317034D01*
X109115795Y-129317034D02*
X109211033Y-129650367D01*
X109211033Y-129650367D02*
X109306271Y-129817034D01*
X109306271Y-129817034D02*
X109496747Y-129983701D01*
X109496747Y-129983701D02*
X109782462Y-130067034D01*
X109782462Y-130067034D02*
X110258652Y-130067034D01*
X107496747Y-129983701D02*
X107687223Y-130067034D01*
X107687223Y-130067034D02*
X108068176Y-130067034D01*
X108068176Y-130067034D02*
X108258652Y-129983701D01*
X108258652Y-129983701D02*
X108353890Y-129817034D01*
X108353890Y-129817034D02*
X108353890Y-129150367D01*
X108353890Y-129150367D02*
X108258652Y-128983701D01*
X108258652Y-128983701D02*
X108068176Y-128900367D01*
X108068176Y-128900367D02*
X107687223Y-128900367D01*
X107687223Y-128900367D02*
X107496747Y-128983701D01*
X107496747Y-128983701D02*
X107401509Y-129150367D01*
X107401509Y-129150367D02*
X107401509Y-129317034D01*
X107401509Y-129317034D02*
X108353890Y-129483701D01*
X106639604Y-129983701D02*
X106449128Y-130067034D01*
X106449128Y-130067034D02*
X106068176Y-130067034D01*
X106068176Y-130067034D02*
X105877699Y-129983701D01*
X105877699Y-129983701D02*
X105782461Y-129817034D01*
X105782461Y-129817034D02*
X105782461Y-129733701D01*
X105782461Y-129733701D02*
X105877699Y-129567034D01*
X105877699Y-129567034D02*
X106068176Y-129483701D01*
X106068176Y-129483701D02*
X106353890Y-129483701D01*
X106353890Y-129483701D02*
X106544366Y-129400367D01*
X106544366Y-129400367D02*
X106639604Y-129233701D01*
X106639604Y-129233701D02*
X106639604Y-129150367D01*
X106639604Y-129150367D02*
X106544366Y-128983701D01*
X106544366Y-128983701D02*
X106353890Y-128900367D01*
X106353890Y-128900367D02*
X106068176Y-128900367D01*
X106068176Y-128900367D02*
X105877699Y-128983701D01*
X104925318Y-130067034D02*
X104925318Y-128900367D01*
X104925318Y-128317034D02*
X105020556Y-128400367D01*
X105020556Y-128400367D02*
X104925318Y-128483701D01*
X104925318Y-128483701D02*
X104830080Y-128400367D01*
X104830080Y-128400367D02*
X104925318Y-128317034D01*
X104925318Y-128317034D02*
X104925318Y-128483701D01*
X103115794Y-128900367D02*
X103115794Y-130317034D01*
X103115794Y-130317034D02*
X103211032Y-130483701D01*
X103211032Y-130483701D02*
X103306270Y-130567034D01*
X103306270Y-130567034D02*
X103496747Y-130650367D01*
X103496747Y-130650367D02*
X103782461Y-130650367D01*
X103782461Y-130650367D02*
X103972937Y-130567034D01*
X103115794Y-129983701D02*
X103306270Y-130067034D01*
X103306270Y-130067034D02*
X103687223Y-130067034D01*
X103687223Y-130067034D02*
X103877699Y-129983701D01*
X103877699Y-129983701D02*
X103972937Y-129900367D01*
X103972937Y-129900367D02*
X104068175Y-129733701D01*
X104068175Y-129733701D02*
X104068175Y-129233701D01*
X104068175Y-129233701D02*
X103972937Y-129067034D01*
X103972937Y-129067034D02*
X103877699Y-128983701D01*
X103877699Y-128983701D02*
X103687223Y-128900367D01*
X103687223Y-128900367D02*
X103306270Y-128900367D01*
X103306270Y-128900367D02*
X103115794Y-128983701D01*
X102163413Y-128900367D02*
X102163413Y-130067034D01*
X102163413Y-129067034D02*
X102068175Y-128983701D01*
X102068175Y-128983701D02*
X101877699Y-128900367D01*
X101877699Y-128900367D02*
X101591984Y-128900367D01*
X101591984Y-128900367D02*
X101401508Y-128983701D01*
X101401508Y-128983701D02*
X101306270Y-129150367D01*
X101306270Y-129150367D02*
X101306270Y-130067034D01*
X99591984Y-129983701D02*
X99782460Y-130067034D01*
X99782460Y-130067034D02*
X100163413Y-130067034D01*
X100163413Y-130067034D02*
X100353889Y-129983701D01*
X100353889Y-129983701D02*
X100449127Y-129817034D01*
X100449127Y-129817034D02*
X100449127Y-129150367D01*
X100449127Y-129150367D02*
X100353889Y-128983701D01*
X100353889Y-128983701D02*
X100163413Y-128900367D01*
X100163413Y-128900367D02*
X99782460Y-128900367D01*
X99782460Y-128900367D02*
X99591984Y-128983701D01*
X99591984Y-128983701D02*
X99496746Y-129150367D01*
X99496746Y-129150367D02*
X99496746Y-129317034D01*
X99496746Y-129317034D02*
X100449127Y-129483701D01*
X97782460Y-130067034D02*
X97782460Y-128317034D01*
X97782460Y-129983701D02*
X97972936Y-130067034D01*
X97972936Y-130067034D02*
X98353889Y-130067034D01*
X98353889Y-130067034D02*
X98544365Y-129983701D01*
X98544365Y-129983701D02*
X98639603Y-129900367D01*
X98639603Y-129900367D02*
X98734841Y-129733701D01*
X98734841Y-129733701D02*
X98734841Y-129233701D01*
X98734841Y-129233701D02*
X98639603Y-129067034D01*
X98639603Y-129067034D02*
X98544365Y-128983701D01*
X98544365Y-128983701D02*
X98353889Y-128900367D01*
X98353889Y-128900367D02*
X97972936Y-128900367D01*
X97972936Y-128900367D02*
X97782460Y-128983701D01*
X94639602Y-129150367D02*
X94353888Y-129233701D01*
X94353888Y-129233701D02*
X94258650Y-129317034D01*
X94258650Y-129317034D02*
X94163412Y-129483701D01*
X94163412Y-129483701D02*
X94163412Y-129733701D01*
X94163412Y-129733701D02*
X94258650Y-129900367D01*
X94258650Y-129900367D02*
X94353888Y-129983701D01*
X94353888Y-129983701D02*
X94544364Y-130067034D01*
X94544364Y-130067034D02*
X95306269Y-130067034D01*
X95306269Y-130067034D02*
X95306269Y-128317034D01*
X95306269Y-128317034D02*
X94639602Y-128317034D01*
X94639602Y-128317034D02*
X94449126Y-128400367D01*
X94449126Y-128400367D02*
X94353888Y-128483701D01*
X94353888Y-128483701D02*
X94258650Y-128650367D01*
X94258650Y-128650367D02*
X94258650Y-128817034D01*
X94258650Y-128817034D02*
X94353888Y-128983701D01*
X94353888Y-128983701D02*
X94449126Y-129067034D01*
X94449126Y-129067034D02*
X94639602Y-129150367D01*
X94639602Y-129150367D02*
X95306269Y-129150367D01*
X93496745Y-128900367D02*
X93020555Y-130067034D01*
X92544364Y-128900367D02*
X93020555Y-130067034D01*
X93020555Y-130067034D02*
X93211031Y-130483701D01*
X93211031Y-130483701D02*
X93306269Y-130567034D01*
X93306269Y-130567034D02*
X93496745Y-130650367D01*
X111623890Y-132615034D02*
X110671509Y-132615034D01*
X111814366Y-133115034D02*
X111147700Y-131365034D01*
X111147700Y-131365034D02*
X110481033Y-133115034D01*
X110100080Y-131365034D02*
X108957223Y-131365034D01*
X109528652Y-133115034D02*
X109528652Y-131365034D01*
X108290556Y-133115034D02*
X108290556Y-131365034D01*
X108290556Y-132198367D02*
X107147699Y-132198367D01*
X107147699Y-133115034D02*
X107147699Y-131365034D01*
X106290556Y-132615034D02*
X105338175Y-132615034D01*
X106481032Y-133115034D02*
X105814366Y-131365034D01*
X105814366Y-131365034D02*
X105147699Y-133115034D01*
X103338175Y-133115034D02*
X104004842Y-132281701D01*
X104481032Y-133115034D02*
X104481032Y-131365034D01*
X104481032Y-131365034D02*
X103719127Y-131365034D01*
X103719127Y-131365034D02*
X103528651Y-131448367D01*
X103528651Y-131448367D02*
X103433413Y-131531701D01*
X103433413Y-131531701D02*
X103338175Y-131698367D01*
X103338175Y-131698367D02*
X103338175Y-131948367D01*
X103338175Y-131948367D02*
X103433413Y-132115034D01*
X103433413Y-132115034D02*
X103528651Y-132198367D01*
X103528651Y-132198367D02*
X103719127Y-132281701D01*
X103719127Y-132281701D02*
X104481032Y-132281701D01*
X102766746Y-131365034D02*
X102100080Y-133115034D01*
X102100080Y-133115034D02*
X101433413Y-131365034D01*
X100861984Y-132615034D02*
X99909603Y-132615034D01*
X101052460Y-133115034D02*
X100385794Y-131365034D01*
X100385794Y-131365034D02*
X99719127Y-133115034D01*
X97623888Y-132615034D02*
X96671507Y-132615034D01*
X97814364Y-133115034D02*
X97147698Y-131365034D01*
X97147698Y-131365034D02*
X96481031Y-133115034D01*
X96100078Y-131365034D02*
X94957221Y-131365034D01*
X95528650Y-133115034D02*
X95528650Y-131365034D01*
X93147697Y-133115034D02*
X93814364Y-132281701D01*
X94290554Y-133115034D02*
X94290554Y-131365034D01*
X94290554Y-131365034D02*
X93528649Y-131365034D01*
X93528649Y-131365034D02*
X93338173Y-131448367D01*
X93338173Y-131448367D02*
X93242935Y-131531701D01*
X93242935Y-131531701D02*
X93147697Y-131698367D01*
X93147697Y-131698367D02*
X93147697Y-131948367D01*
X93147697Y-131948367D02*
X93242935Y-132115034D01*
X93242935Y-132115034D02*
X93338173Y-132198367D01*
X93338173Y-132198367D02*
X93528649Y-132281701D01*
X93528649Y-132281701D02*
X94290554Y-132281701D01*
X92290554Y-132198367D02*
X91623887Y-132198367D01*
X91338173Y-133115034D02*
X92290554Y-133115034D01*
X92290554Y-133115034D02*
X92290554Y-131365034D01*
X92290554Y-131365034D02*
X91338173Y-131365034D01*
D11*
%TO.C,G\u002A\u002A\u002A*%
G36*
X81118182Y-140595000D02*
G01*
X81118182Y-143693030D01*
X80540909Y-143693030D01*
X79963636Y-143693030D01*
X79963636Y-140595000D01*
X79963636Y-137496970D01*
X80540909Y-137496970D01*
X81118182Y-137496970D01*
X81118182Y-140595000D01*
G37*
G36*
X86275151Y-140593998D02*
G01*
X86275151Y-143693030D01*
X84100757Y-143693030D01*
X81926364Y-143693030D01*
X81926364Y-143154242D01*
X81926364Y-142615455D01*
X83503968Y-142615455D01*
X85081572Y-142615455D01*
X85091468Y-140065833D01*
X85101364Y-137516212D01*
X85688257Y-137505589D01*
X86275151Y-137494965D01*
X86275151Y-140593998D01*
G37*
G36*
X70429015Y-144741178D02*
G01*
X71593182Y-144751364D01*
X71605359Y-144857197D01*
X71617537Y-144963030D01*
X71095435Y-144963030D01*
X70573333Y-144963030D01*
X70573333Y-146310000D01*
X70573333Y-147656970D01*
X70438636Y-147656970D01*
X70303939Y-147656970D01*
X70303939Y-146310000D01*
X70303939Y-144963030D01*
X69784394Y-144963030D01*
X69264848Y-144963030D01*
X69264848Y-144847011D01*
X69264848Y-144730993D01*
X70429015Y-144741178D01*
G37*
G36*
X75278106Y-139331793D02*
G01*
X75391169Y-139345133D01*
X75524855Y-139365075D01*
X75614848Y-139383467D01*
X75645174Y-139392565D01*
X75670946Y-139408937D01*
X75637861Y-139427647D01*
X75537879Y-139456306D01*
X75494558Y-139468037D01*
X75366187Y-139504882D01*
X75268485Y-139535701D01*
X75179408Y-139563152D01*
X75091597Y-139570521D01*
X75048827Y-139531666D01*
X75037576Y-139441045D01*
X75037576Y-139306938D01*
X75278106Y-139331793D01*
G37*
G36*
X67773198Y-139377932D02*
G01*
X67783182Y-141258894D01*
X69264848Y-139379682D01*
X70746515Y-137500471D01*
X71217954Y-137498720D01*
X71689394Y-137496970D01*
X71689394Y-140595000D01*
X71689394Y-143693030D01*
X71112121Y-143693030D01*
X70534848Y-143693030D01*
X70534848Y-141653333D01*
X70534735Y-141472367D01*
X70533740Y-141094581D01*
X70531803Y-140744293D01*
X70529022Y-140428571D01*
X70525499Y-140154482D01*
X70521334Y-139929093D01*
X70516626Y-139759472D01*
X70511477Y-139652685D01*
X70505985Y-139615800D01*
X70496992Y-139624249D01*
X70446027Y-139684201D01*
X70354004Y-139797479D01*
X70224849Y-139959101D01*
X70062491Y-140164086D01*
X69870857Y-140407453D01*
X69653874Y-140684221D01*
X69415470Y-140989408D01*
X69159574Y-141318035D01*
X68890112Y-141665118D01*
X67303102Y-143712273D01*
X66937006Y-143700011D01*
X66570909Y-143687749D01*
X66570909Y-140592359D01*
X66570909Y-137496970D01*
X67167061Y-137496970D01*
X67763214Y-137496970D01*
X67773198Y-139377932D01*
G37*
G36*
X73977091Y-139820112D02*
G01*
X74079866Y-139865757D01*
X74113939Y-139943427D01*
X74095433Y-139987971D01*
X74039641Y-140075175D01*
X73959587Y-140182289D01*
X73905803Y-140253506D01*
X73842846Y-140369592D01*
X73839523Y-140468344D01*
X73898100Y-140568497D01*
X74020844Y-140688787D01*
X74113694Y-140763508D01*
X74229209Y-140835048D01*
X74368244Y-140896101D01*
X74548303Y-140954159D01*
X74786887Y-141016716D01*
X75132714Y-141101762D01*
X74499518Y-141127865D01*
X74415041Y-141131472D01*
X74190912Y-141143039D01*
X74030712Y-141155553D01*
X73924500Y-141170258D01*
X73862336Y-141188401D01*
X73834279Y-141211227D01*
X73806483Y-141241282D01*
X73728987Y-141268485D01*
X73726358Y-141268434D01*
X73662660Y-141228869D01*
X73615277Y-141119197D01*
X73585651Y-140944648D01*
X73575222Y-140710455D01*
X73569567Y-140557536D01*
X73545525Y-140421391D01*
X73498038Y-140315055D01*
X73432109Y-140155999D01*
X73435035Y-140015423D01*
X73503444Y-139904676D01*
X73632122Y-139832106D01*
X73815857Y-139806061D01*
X73977091Y-139820112D01*
G37*
G36*
X77631949Y-140435279D02*
G01*
X77695857Y-140498277D01*
X77780033Y-140605532D01*
X77876359Y-140744706D01*
X77976713Y-140903460D01*
X78072976Y-141069453D01*
X78157028Y-141230347D01*
X78220748Y-141373801D01*
X78238275Y-141419891D01*
X78281137Y-141552223D01*
X78307128Y-141682077D01*
X78320387Y-141835891D01*
X78325051Y-142040107D01*
X78325533Y-142123072D01*
X78323623Y-142283248D01*
X78313360Y-142400663D01*
X78289808Y-142499628D01*
X78248033Y-142604450D01*
X78183101Y-142739439D01*
X78088527Y-142903870D01*
X77868142Y-143173425D01*
X77587695Y-143409509D01*
X77255300Y-143606807D01*
X76879070Y-143760003D01*
X76467117Y-143863782D01*
X76457164Y-143865570D01*
X76292263Y-143892075D01*
X76138708Y-143911762D01*
X76028560Y-143920486D01*
X75939245Y-143917650D01*
X75894363Y-143893640D01*
X75884242Y-143835277D01*
X75884482Y-143827939D01*
X75919766Y-143737037D01*
X76017066Y-143626188D01*
X76179492Y-143492417D01*
X76410158Y-143332751D01*
X76483784Y-143281266D01*
X76648665Y-143150298D01*
X76822048Y-142996556D01*
X76976706Y-142843550D01*
X77112636Y-142689211D01*
X77356977Y-142338078D01*
X77528248Y-141966738D01*
X77627500Y-141571647D01*
X77655785Y-141149260D01*
X77614156Y-140696033D01*
X77597911Y-140574990D01*
X77591463Y-140474528D01*
X77597837Y-140427214D01*
X77631949Y-140435279D01*
G37*
G36*
X83311800Y-144837181D02*
G01*
X83301811Y-144957257D01*
X83262345Y-145046821D01*
X83177121Y-145143909D01*
X83042424Y-145278606D01*
X83042424Y-146421606D01*
X83042299Y-146561624D01*
X83040626Y-146891786D01*
X83036835Y-147152508D01*
X83030715Y-147349281D01*
X83022052Y-147487592D01*
X83010632Y-147572931D01*
X82996242Y-147610788D01*
X82931700Y-147649359D01*
X82850316Y-147648109D01*
X82796390Y-147596095D01*
X82794567Y-147587867D01*
X82788804Y-147513965D01*
X82783648Y-147376264D01*
X82779297Y-147184892D01*
X82775946Y-146949973D01*
X82773792Y-146681633D01*
X82773030Y-146390000D01*
X82773030Y-145244779D01*
X82676525Y-145200808D01*
X82624262Y-145168176D01*
X82533876Y-145056961D01*
X82482024Y-144911251D01*
X82481931Y-144901122D01*
X82695993Y-144901122D01*
X82742242Y-144993818D01*
X82792406Y-145026889D01*
X82897008Y-145038644D01*
X83003464Y-145003368D01*
X83086139Y-144931861D01*
X83119394Y-144834924D01*
X83115177Y-144806547D01*
X83064757Y-144719689D01*
X82980370Y-144647080D01*
X82891234Y-144616667D01*
X82833920Y-144628031D01*
X82751945Y-144692630D01*
X82702598Y-144792193D01*
X82695993Y-144901122D01*
X82481931Y-144901122D01*
X82480616Y-144757965D01*
X82516727Y-144651846D01*
X82615394Y-144527882D01*
X82751495Y-144448693D01*
X82906521Y-144419974D01*
X83061966Y-144447423D01*
X83199324Y-144536737D01*
X83259882Y-144606237D01*
X83301320Y-144699475D01*
X83311818Y-144829221D01*
X83311805Y-144834924D01*
X83311800Y-144837181D01*
G37*
G36*
X73116193Y-144982142D02*
G01*
X73044794Y-145115034D01*
X72940444Y-145200808D01*
X72843939Y-145244779D01*
X72843939Y-146425218D01*
X72843785Y-146550727D01*
X72842244Y-146835592D01*
X72839221Y-147091448D01*
X72834935Y-147308702D01*
X72829602Y-147477762D01*
X72823437Y-147589038D01*
X72816659Y-147632937D01*
X72787297Y-147646397D01*
X72710826Y-147648972D01*
X72703073Y-147647724D01*
X72682377Y-147640248D01*
X72666038Y-147620975D01*
X72653441Y-147581760D01*
X72643974Y-147514456D01*
X72637022Y-147410917D01*
X72631971Y-147262997D01*
X72628207Y-147062548D01*
X72625116Y-146801424D01*
X72622084Y-146471479D01*
X72611895Y-145305231D01*
X72458523Y-145159332D01*
X72411013Y-145112858D01*
X72342132Y-145029021D01*
X72311879Y-144945945D01*
X72307918Y-144878471D01*
X72502906Y-144878471D01*
X72558052Y-144979524D01*
X72576760Y-144995173D01*
X72676318Y-145033431D01*
X72788542Y-145033562D01*
X72874727Y-144993818D01*
X72888748Y-144976449D01*
X72918156Y-144879946D01*
X72908135Y-144767275D01*
X72860433Y-144677143D01*
X72791652Y-144631029D01*
X72682657Y-144626423D01*
X72574545Y-144693636D01*
X72520161Y-144768215D01*
X72502906Y-144878471D01*
X72307918Y-144878471D01*
X72305151Y-144831332D01*
X72311144Y-144724262D01*
X72343672Y-144627027D01*
X72417646Y-144536737D01*
X72507485Y-144469387D01*
X72659082Y-144422458D01*
X72816274Y-144433548D01*
X72960555Y-144496960D01*
X73073417Y-144606998D01*
X73136353Y-144757965D01*
X73142731Y-144829056D01*
X73133909Y-144879946D01*
X73116193Y-144982142D01*
G37*
G36*
X85262382Y-144730530D02*
G01*
X85364603Y-144751092D01*
X85685702Y-144859288D01*
X85955468Y-145024835D01*
X86173901Y-145247734D01*
X86340998Y-145527984D01*
X86376143Y-145612773D01*
X86454889Y-145916978D01*
X86477554Y-146242941D01*
X86443909Y-146566700D01*
X86353725Y-146864289D01*
X86293319Y-146983861D01*
X86118311Y-147216442D01*
X85890734Y-147413732D01*
X85625691Y-147563965D01*
X85338283Y-147655376D01*
X85260812Y-147668887D01*
X84922998Y-147686018D01*
X84598752Y-147636476D01*
X84300454Y-147523183D01*
X84040483Y-147349062D01*
X83908333Y-147235405D01*
X84002158Y-147161550D01*
X84046584Y-147128057D01*
X84094323Y-147110141D01*
X84147370Y-147131906D01*
X84233067Y-147197625D01*
X84335690Y-147270381D01*
X84591373Y-147388690D01*
X84869619Y-147445108D01*
X85155875Y-147440710D01*
X85435591Y-147376568D01*
X85694215Y-147253757D01*
X85917195Y-147073351D01*
X86050605Y-146907521D01*
X86147235Y-146711071D01*
X86200700Y-146479240D01*
X86216964Y-146194546D01*
X86216488Y-146142749D01*
X86194730Y-145870549D01*
X86135665Y-145648036D01*
X86032500Y-145456835D01*
X85878445Y-145278568D01*
X85765970Y-145178962D01*
X85551628Y-145046727D01*
X85310433Y-144972780D01*
X85024394Y-144950206D01*
X84945496Y-144951685D01*
X84668667Y-144983924D01*
X84436798Y-145062141D01*
X84233067Y-145191466D01*
X84169103Y-145241750D01*
X84108838Y-145276643D01*
X84062304Y-145270547D01*
X84002158Y-145227761D01*
X83908333Y-145154127D01*
X84023788Y-145055037D01*
X84093672Y-144999721D01*
X84352731Y-144851905D01*
X84648016Y-144754061D01*
X84958307Y-144711750D01*
X85262382Y-144730530D01*
G37*
G36*
X77653254Y-144724147D02*
G01*
X77923017Y-144756517D01*
X78150862Y-144830055D01*
X78357166Y-144952813D01*
X78562307Y-145132844D01*
X78671763Y-145252128D01*
X78834748Y-145494340D01*
X78938234Y-145764603D01*
X78990224Y-146080643D01*
X78996458Y-146209818D01*
X78966049Y-146548056D01*
X78869206Y-146854982D01*
X78710289Y-147124316D01*
X78493659Y-147349781D01*
X78223675Y-147525097D01*
X77904697Y-147643986D01*
X77682096Y-147679467D01*
X77383431Y-147673327D01*
X77082322Y-147616005D01*
X76802138Y-147512335D01*
X76566251Y-147367151D01*
X76425697Y-147255001D01*
X76506313Y-147169189D01*
X76586930Y-147083377D01*
X76709144Y-147176594D01*
X76737611Y-147197840D01*
X76974654Y-147336931D01*
X77229751Y-147415548D01*
X77524566Y-147440708D01*
X77531561Y-147440721D01*
X77701495Y-147436841D01*
X77829057Y-147419772D01*
X77947493Y-147382236D01*
X78090048Y-147316960D01*
X78244813Y-147227650D01*
X78461364Y-147037830D01*
X78616414Y-146801962D01*
X78709606Y-146520662D01*
X78740582Y-146194546D01*
X78729193Y-145989151D01*
X78661847Y-145691344D01*
X78533512Y-145440048D01*
X78343587Y-145234224D01*
X78091468Y-145072830D01*
X77948203Y-145007349D01*
X77828211Y-144969492D01*
X77698356Y-144952012D01*
X77525187Y-144947506D01*
X77469196Y-144948105D01*
X77188785Y-144979928D01*
X76943151Y-145065610D01*
X76708742Y-145212804D01*
X76586125Y-145306328D01*
X76514199Y-145226649D01*
X76477889Y-145182504D01*
X76470275Y-145142896D01*
X76505831Y-145094668D01*
X76592256Y-145017161D01*
X76690996Y-144940088D01*
X76924970Y-144815060D01*
X77197327Y-144743245D01*
X77519848Y-144720881D01*
X77653254Y-144724147D01*
G37*
G36*
X73889898Y-145780833D02*
G01*
X73891737Y-145932293D01*
X73895771Y-146214058D01*
X73900429Y-146433175D01*
X73906490Y-146599485D01*
X73914734Y-146722834D01*
X73925939Y-146813065D01*
X73940885Y-146880021D01*
X73960352Y-146933546D01*
X73985118Y-146983485D01*
X74099689Y-147155975D01*
X74242808Y-147284555D01*
X74438487Y-147390402D01*
X74633610Y-147446935D01*
X74869772Y-147449486D01*
X75099416Y-147389008D01*
X75304891Y-147270495D01*
X75468549Y-147098939D01*
X75510228Y-147033055D01*
X75555541Y-146937109D01*
X75590524Y-146822601D01*
X75616400Y-146679807D01*
X75634395Y-146499001D01*
X75645733Y-146270458D01*
X75651637Y-145984454D01*
X75653333Y-145631262D01*
X75653333Y-144732121D01*
X75770986Y-144732121D01*
X75888639Y-144732121D01*
X75876819Y-145819318D01*
X75873436Y-146114953D01*
X75869658Y-146371163D01*
X75865003Y-146569127D01*
X75858675Y-146718594D01*
X75849883Y-146829313D01*
X75837830Y-146911034D01*
X75821724Y-146973506D01*
X75800770Y-147026477D01*
X75774175Y-147079697D01*
X75747442Y-147128391D01*
X75571687Y-147364775D01*
X75349374Y-147540570D01*
X75076060Y-147659466D01*
X74990936Y-147678212D01*
X74797392Y-147690705D01*
X74584171Y-147675749D01*
X74384627Y-147634546D01*
X74270917Y-147592347D01*
X74128574Y-147506164D01*
X73976732Y-147370843D01*
X73939907Y-147333544D01*
X73858795Y-147244430D01*
X73794498Y-147156161D01*
X73745074Y-147059011D01*
X73708581Y-146943254D01*
X73683078Y-146799166D01*
X73666622Y-146617020D01*
X73657271Y-146387092D01*
X73653085Y-146099655D01*
X73652121Y-145744985D01*
X73652121Y-144732121D01*
X73764822Y-144732121D01*
X73877523Y-144732121D01*
X73889898Y-145780833D01*
G37*
G36*
X81733939Y-146194546D02*
G01*
X81733939Y-147656970D01*
X81599242Y-147656970D01*
X81464545Y-147656970D01*
X81464545Y-147118182D01*
X81464545Y-146579394D01*
X81081277Y-146579394D01*
X80698008Y-146579394D01*
X80206977Y-147118182D01*
X80119444Y-147214165D01*
X79969693Y-147377000D01*
X79858074Y-147494043D01*
X79775351Y-147572855D01*
X79712290Y-147620994D01*
X79659653Y-147646020D01*
X79608207Y-147655492D01*
X79548714Y-147656970D01*
X79381482Y-147656970D01*
X79884902Y-147108561D01*
X80388322Y-146560152D01*
X80243328Y-146534490D01*
X79988092Y-146460802D01*
X79778074Y-146333822D01*
X79626453Y-146156902D01*
X79534294Y-145931304D01*
X79512137Y-145740056D01*
X79770270Y-145740056D01*
X79816414Y-145930175D01*
X79914114Y-146096492D01*
X80063855Y-146222776D01*
X80085306Y-146234795D01*
X80146534Y-146263848D01*
X80214911Y-146284173D01*
X80304399Y-146297327D01*
X80428963Y-146304872D01*
X80602564Y-146308365D01*
X80839167Y-146309367D01*
X81464545Y-146310000D01*
X81464545Y-145633134D01*
X81464545Y-144956268D01*
X80858409Y-144969270D01*
X80677723Y-144973749D01*
X80486503Y-144981361D01*
X80347350Y-144992288D01*
X80245868Y-145008298D01*
X80167661Y-145031161D01*
X80098333Y-145062645D01*
X80091614Y-145066210D01*
X79936355Y-145189213D01*
X79830723Y-145353343D01*
X79775200Y-145542368D01*
X79770270Y-145740056D01*
X79512137Y-145740056D01*
X79502663Y-145658287D01*
X79502661Y-145649889D01*
X79534912Y-145381742D01*
X79631040Y-145155083D01*
X79792526Y-144966374D01*
X79860552Y-144911911D01*
X79967846Y-144847979D01*
X80094922Y-144800513D01*
X80253175Y-144767353D01*
X80454001Y-144746340D01*
X80708795Y-144735316D01*
X81028955Y-144732121D01*
X81733939Y-144732121D01*
X81733939Y-145633134D01*
X81733939Y-146194546D01*
G37*
G36*
X67908415Y-144717344D02*
G01*
X68158783Y-144772352D01*
X68382336Y-144864017D01*
X68565128Y-144991724D01*
X68693215Y-145154854D01*
X68744543Y-145304575D01*
X68764545Y-145505148D01*
X68750395Y-145670612D01*
X68702244Y-145811169D01*
X68612937Y-145928755D01*
X68475321Y-146028530D01*
X68282244Y-146115657D01*
X68026555Y-146195297D01*
X67701100Y-146272613D01*
X67527581Y-146312118D01*
X67251591Y-146389368D01*
X67043672Y-146472526D01*
X66897982Y-146565864D01*
X66808681Y-146673657D01*
X66769929Y-146800180D01*
X66775884Y-146949706D01*
X66834830Y-147132351D01*
X66948491Y-147272369D01*
X67119819Y-147369736D01*
X67352066Y-147426293D01*
X67648485Y-147443883D01*
X67728162Y-147443220D01*
X67888211Y-147437071D01*
X68005513Y-147420914D01*
X68104594Y-147390236D01*
X68209979Y-147340521D01*
X68281269Y-147299111D01*
X68420768Y-147198639D01*
X68530979Y-147096086D01*
X68588412Y-147032426D01*
X68646598Y-146984090D01*
X68698199Y-146978781D01*
X68768487Y-147007024D01*
X68880884Y-147060455D01*
X68779451Y-147202850D01*
X68672430Y-147327675D01*
X68447914Y-147495887D01*
X68161197Y-147622160D01*
X68087591Y-147644490D01*
X67944944Y-147673602D01*
X67782258Y-147685283D01*
X67571515Y-147682396D01*
X67253761Y-147649998D01*
X66987887Y-147575345D01*
X66783394Y-147457687D01*
X66638278Y-147295860D01*
X66550540Y-147088699D01*
X66528944Y-146981413D01*
X66528881Y-146745766D01*
X66597092Y-146535768D01*
X66731461Y-146359943D01*
X66758637Y-146336044D01*
X66851695Y-146272665D01*
X66974513Y-146215369D01*
X67138717Y-146160034D01*
X67355933Y-146102542D01*
X67637788Y-146038772D01*
X67666992Y-146032419D01*
X67870467Y-145983843D01*
X68057195Y-145932413D01*
X68207554Y-145883884D01*
X68301925Y-145844009D01*
X68417679Y-145755816D01*
X68505669Y-145617620D01*
X68526655Y-145463196D01*
X68479374Y-145306745D01*
X68362563Y-145162468D01*
X68258743Y-145083479D01*
X68089702Y-145002400D01*
X67885169Y-144958630D01*
X67626764Y-144946782D01*
X67502339Y-144952080D01*
X67241880Y-144997359D01*
X67032885Y-145086440D01*
X66883020Y-145216542D01*
X66812428Y-145290290D01*
X66748973Y-145302355D01*
X66666581Y-145256030D01*
X66639532Y-145235124D01*
X66617351Y-145200515D01*
X66635375Y-145152094D01*
X66697390Y-145066593D01*
X66742398Y-145013751D01*
X66917676Y-144876221D01*
X67135861Y-144778432D01*
X67383009Y-144719767D01*
X67645175Y-144699610D01*
X67908415Y-144717344D01*
G37*
G36*
X78726010Y-139069218D02*
G01*
X78790806Y-139209546D01*
X78855635Y-139349945D01*
X78965118Y-139637341D01*
X79042473Y-139904434D01*
X79044408Y-139912882D01*
X79101370Y-140290162D01*
X79113069Y-140698584D01*
X79080238Y-141108306D01*
X79003609Y-141489486D01*
X78986205Y-141550353D01*
X78944653Y-141677980D01*
X78909516Y-141762681D01*
X78886977Y-141788597D01*
X78881710Y-141783472D01*
X78856493Y-141723629D01*
X78834426Y-141625323D01*
X78806164Y-141483196D01*
X78723826Y-141195045D01*
X78609421Y-140886937D01*
X78471822Y-140578058D01*
X78319896Y-140287597D01*
X78162515Y-140034742D01*
X78008547Y-139838683D01*
X78000315Y-139829880D01*
X77871952Y-139707199D01*
X77713662Y-139575369D01*
X77542653Y-139446758D01*
X77376131Y-139333733D01*
X77231304Y-139248661D01*
X77138719Y-139209546D01*
X77885454Y-139209546D01*
X77904697Y-139228788D01*
X77923939Y-139209546D01*
X77904697Y-139190303D01*
X77885454Y-139209546D01*
X77138719Y-139209546D01*
X77125379Y-139203910D01*
X77071209Y-139181404D01*
X77038788Y-139142308D01*
X77065291Y-139129603D01*
X77150760Y-139121642D01*
X77276362Y-139120278D01*
X77422555Y-139124852D01*
X77569795Y-139134704D01*
X77698539Y-139149178D01*
X77789242Y-139167612D01*
X77801575Y-139171085D01*
X77806733Y-139165914D01*
X77750757Y-139135883D01*
X77659120Y-139100112D01*
X77519550Y-139056094D01*
X77517729Y-139055606D01*
X78270303Y-139055606D01*
X78289545Y-139074849D01*
X78308788Y-139055606D01*
X78289545Y-139036364D01*
X78270303Y-139055606D01*
X77517729Y-139055606D01*
X77365909Y-139014931D01*
X77207821Y-138973614D01*
X77102091Y-138936733D01*
X77068083Y-138907312D01*
X77103497Y-138883154D01*
X77206034Y-138862060D01*
X77236407Y-138858399D01*
X77412364Y-138857399D01*
X77625839Y-138879754D01*
X77848749Y-138921586D01*
X78053012Y-138979016D01*
X78135938Y-139005281D01*
X78209230Y-139019489D01*
X78215963Y-139004975D01*
X78157204Y-138965836D01*
X78034022Y-138906169D01*
X77802632Y-138813766D01*
X77396886Y-138686312D01*
X76933961Y-138576648D01*
X76838178Y-138556345D01*
X76694110Y-138522660D01*
X76590094Y-138494213D01*
X76543905Y-138475610D01*
X76543852Y-138471754D01*
X76588488Y-138464594D01*
X76688315Y-138464812D01*
X76827121Y-138472581D01*
X76884116Y-138476624D01*
X77059834Y-138487368D01*
X77280100Y-138499218D01*
X77522380Y-138510996D01*
X77764139Y-138521527D01*
X78393277Y-138547108D01*
X78509512Y-138705145D01*
X78588231Y-138822131D01*
X78718420Y-139055606D01*
X78726010Y-139069218D01*
G37*
G36*
X76955152Y-137524788D02*
G01*
X77035898Y-137554697D01*
X77143031Y-137594380D01*
X77388368Y-137709693D01*
X77627236Y-137845222D01*
X77836934Y-137987871D01*
X77994762Y-138124545D01*
X78123312Y-138258258D01*
X77860898Y-138185493D01*
X77707840Y-138150575D01*
X77344827Y-138117245D01*
X76961391Y-138142434D01*
X76575518Y-138224238D01*
X76205193Y-138360753D01*
X76155971Y-138382520D01*
X76050811Y-138418307D01*
X76007047Y-138408571D01*
X76022708Y-138351210D01*
X76095821Y-138244119D01*
X76156451Y-138171957D01*
X76365965Y-137999686D01*
X76633892Y-137874176D01*
X76708738Y-137847696D01*
X76770265Y-137821531D01*
X76768298Y-137809502D01*
X76708901Y-137806105D01*
X76552028Y-137825352D01*
X76337376Y-137905598D01*
X76122836Y-138038557D01*
X75924639Y-138213726D01*
X75759017Y-138420606D01*
X75695855Y-138516818D01*
X75693837Y-138398598D01*
X75695326Y-138350110D01*
X75737034Y-138152973D01*
X75826990Y-137947379D01*
X75953680Y-137761556D01*
X76025826Y-137675421D01*
X76056451Y-137633584D01*
X76040638Y-137638240D01*
X75980454Y-137683354D01*
X75842672Y-137805733D01*
X75673151Y-138021705D01*
X75567419Y-138255759D01*
X75531970Y-138496126D01*
X75533333Y-138672166D01*
X74911328Y-139056310D01*
X74907014Y-139058974D01*
X74709051Y-139179878D01*
X74531122Y-139286095D01*
X74384524Y-139371076D01*
X74280550Y-139428270D01*
X74230494Y-139451129D01*
X74230004Y-139451203D01*
X74238821Y-139428342D01*
X74295960Y-139360836D01*
X74393944Y-139256642D01*
X74525300Y-139123716D01*
X74682551Y-138970013D01*
X74812283Y-138844612D01*
X74961952Y-138696829D01*
X75069464Y-138584102D01*
X75143259Y-138496056D01*
X75191774Y-138422314D01*
X75223448Y-138352498D01*
X75246719Y-138276233D01*
X75254066Y-138248267D01*
X75276608Y-138147576D01*
X75271360Y-138092785D01*
X75227097Y-138078746D01*
X75132593Y-138100308D01*
X74976622Y-138152322D01*
X74922431Y-138171668D01*
X74536415Y-138353317D01*
X74191682Y-138592984D01*
X73892654Y-138882562D01*
X73643754Y-139213946D01*
X73449406Y-139579028D01*
X73314031Y-139969703D01*
X73242054Y-140377865D01*
X73237897Y-140795407D01*
X73305982Y-141214223D01*
X73307368Y-141219662D01*
X73383084Y-141466172D01*
X73480299Y-141710396D01*
X73588105Y-141927715D01*
X73695592Y-142093507D01*
X73741548Y-142143163D01*
X73794918Y-142172354D01*
X73867774Y-142178768D01*
X73973344Y-142161567D01*
X74124856Y-142119912D01*
X74335539Y-142052967D01*
X74419894Y-142024699D01*
X75034768Y-141773773D01*
X75635351Y-141449282D01*
X76216840Y-141053777D01*
X76328766Y-140970858D01*
X76445961Y-140887877D01*
X76528436Y-140834100D01*
X76563083Y-140818436D01*
X76564867Y-140829732D01*
X76551828Y-140895379D01*
X76520284Y-140996138D01*
X76494511Y-141065558D01*
X76307624Y-141442083D01*
X76054743Y-141789098D01*
X75742615Y-142099701D01*
X75377989Y-142366992D01*
X74967612Y-142584071D01*
X74710454Y-142697237D01*
X74929723Y-142675490D01*
X75139083Y-142637833D01*
X75387201Y-142565460D01*
X75639786Y-142468865D01*
X75867155Y-142358099D01*
X75937037Y-142316623D01*
X76208005Y-142112144D01*
X76469866Y-141849400D01*
X76710718Y-141543084D01*
X76918659Y-141207891D01*
X77081788Y-140858512D01*
X77098439Y-140816379D01*
X77162279Y-140670830D01*
X77209372Y-140592575D01*
X77237763Y-140585040D01*
X77246360Y-140613991D01*
X77257909Y-140710502D01*
X77265947Y-140852780D01*
X77269108Y-141021798D01*
X77262532Y-141236515D01*
X77199597Y-141679847D01*
X77069881Y-142085022D01*
X76873210Y-142452327D01*
X76609414Y-142782049D01*
X76278319Y-143074473D01*
X75879753Y-143329885D01*
X75846744Y-143348174D01*
X75688272Y-143446105D01*
X75584663Y-143536722D01*
X75520944Y-143636257D01*
X75482141Y-143760943D01*
X75473250Y-143795977D01*
X75445786Y-143851204D01*
X75396506Y-143878976D01*
X75312444Y-143880596D01*
X75180630Y-143857368D01*
X74988099Y-143810595D01*
X74590070Y-143675710D01*
X74178398Y-143465746D01*
X73792955Y-143197197D01*
X73445465Y-142879524D01*
X73147653Y-142522188D01*
X72911243Y-142134650D01*
X72905858Y-142123947D01*
X72709713Y-141651270D01*
X72587754Y-141167840D01*
X72540116Y-140679396D01*
X72566930Y-140191675D01*
X72668329Y-139710417D01*
X72844445Y-139241361D01*
X72990698Y-138957554D01*
X73270078Y-138542728D01*
X73601913Y-138184136D01*
X73986774Y-137881196D01*
X74425234Y-137633329D01*
X74526429Y-137587364D01*
X74620020Y-137554697D01*
X76153636Y-137554697D01*
X76172879Y-137573939D01*
X76192121Y-137554697D01*
X76172879Y-137535455D01*
X76153636Y-137554697D01*
X74620020Y-137554697D01*
X74694628Y-137528656D01*
X76230242Y-137528656D01*
X76260508Y-137522326D01*
X76346060Y-137477727D01*
X76349137Y-137475956D01*
X76402620Y-137437887D01*
X76401522Y-137421364D01*
X76359803Y-137432881D01*
X76286068Y-137476503D01*
X76260205Y-137496819D01*
X76230242Y-137528656D01*
X74694628Y-137528656D01*
X74980209Y-137428977D01*
X75446696Y-137343667D01*
X75929166Y-137331292D01*
X76430893Y-137391712D01*
X76612802Y-137437887D01*
X76955152Y-137524788D01*
G37*
G36*
X80830807Y-135616935D02*
G01*
X80728387Y-135719355D01*
X80625968Y-135616935D01*
X80728387Y-135514516D01*
X80830807Y-135616935D01*
G37*
G36*
X74627044Y-126937846D02*
G01*
X74562063Y-127477993D01*
X74401111Y-127921234D01*
X74150963Y-128000892D01*
X73994454Y-127872867D01*
X73875926Y-127482832D01*
X73940295Y-127050347D01*
X74182383Y-126777136D01*
X74188262Y-126774891D01*
X74512749Y-126722501D01*
X74627044Y-126937846D01*
G37*
G36*
X88526776Y-124145421D02*
G01*
X88580761Y-125204004D01*
X88571406Y-126370190D01*
X88569530Y-126604032D01*
X88542700Y-127592450D01*
X88500214Y-128494542D01*
X88433196Y-129156250D01*
X88327109Y-129670432D01*
X88275135Y-129819985D01*
X88167416Y-130129946D01*
X87939577Y-130627650D01*
X87748097Y-130994247D01*
X86801888Y-132307095D01*
X85630543Y-133323137D01*
X84290317Y-134032140D01*
X82837468Y-134423868D01*
X81328252Y-134488087D01*
X79818924Y-134214562D01*
X78365742Y-133593058D01*
X77024962Y-132613341D01*
X76638610Y-132213140D01*
X76072622Y-131482037D01*
X75580001Y-130693065D01*
X75231363Y-129963543D01*
X75097324Y-129410790D01*
X75097319Y-129409198D01*
X75219479Y-129259918D01*
X75625462Y-129195390D01*
X76375565Y-129205951D01*
X77655807Y-129266935D01*
X77655807Y-130240251D01*
X77661536Y-130702698D01*
X77724995Y-131058798D01*
X77920262Y-131192831D01*
X78321533Y-131213235D01*
X78987258Y-131212903D01*
X78987258Y-129676613D01*
X78987258Y-129485240D01*
X80830807Y-129485240D01*
X80830961Y-129550544D01*
X80869830Y-130216091D01*
X81007113Y-130619305D01*
X81286062Y-130894030D01*
X81387435Y-130954053D01*
X81950700Y-131138583D01*
X82617514Y-131212903D01*
X82771223Y-131212103D01*
X83247070Y-131172832D01*
X83450666Y-131028118D01*
X83493710Y-130714412D01*
X83493441Y-130700806D01*
X84722742Y-130700806D01*
X84724408Y-130802452D01*
X84793033Y-131073557D01*
X85045169Y-131184548D01*
X85593307Y-131199919D01*
X86116689Y-131174876D01*
X86827208Y-131025994D01*
X87242334Y-130714372D01*
X87426980Y-130204783D01*
X87460127Y-129819985D01*
X87332675Y-129614339D01*
X86925860Y-129574193D01*
X86451044Y-129653022D01*
X86024931Y-129881451D01*
X85739829Y-130066071D01*
X85220208Y-130188709D01*
X85140405Y-130190397D01*
X84808400Y-130309925D01*
X84722742Y-130700806D01*
X83493441Y-130700806D01*
X83492421Y-130649230D01*
X83364967Y-130292007D01*
X82951064Y-130151106D01*
X82596234Y-130062950D01*
X82208833Y-129778401D01*
X82115470Y-129405208D01*
X82367097Y-129040290D01*
X82701443Y-128870453D01*
X83135242Y-128828272D01*
X83197645Y-128841941D01*
X83430183Y-128767982D01*
X83493886Y-128377194D01*
X83492679Y-128351590D01*
X84722742Y-128351590D01*
X84722746Y-128358867D01*
X84723420Y-128377194D01*
X84737988Y-128773195D01*
X84773952Y-128925242D01*
X84930869Y-128896695D01*
X85396595Y-128839874D01*
X86054194Y-128771613D01*
X87283226Y-128652419D01*
X87343829Y-127268259D01*
X87354869Y-127004614D01*
X87363747Y-126370190D01*
X87306698Y-126007931D01*
X87152419Y-125813050D01*
X86869607Y-125680759D01*
X86812224Y-125660467D01*
X86210295Y-125530542D01*
X85528762Y-125477419D01*
X85481867Y-125477500D01*
X84982874Y-125511473D01*
X84768461Y-125657603D01*
X84722742Y-125989516D01*
X84804961Y-126372306D01*
X85115666Y-126501613D01*
X85461303Y-126526112D01*
X85976148Y-126733062D01*
X86156613Y-127130837D01*
X86146099Y-127224517D01*
X85901511Y-127602318D01*
X85465136Y-127849979D01*
X85013994Y-127855266D01*
X84971488Y-127841443D01*
X84779711Y-127924999D01*
X84722742Y-128351590D01*
X83492679Y-128351590D01*
X83481829Y-128121324D01*
X83374456Y-127928919D01*
X83067004Y-127862547D01*
X82455037Y-127871355D01*
X82326435Y-127876807D01*
X81555446Y-127973408D01*
X81101023Y-128222166D01*
X80885400Y-128700352D01*
X80830807Y-129485240D01*
X78987258Y-129485240D01*
X78987258Y-128140322D01*
X76938871Y-128140322D01*
X76921875Y-128140321D01*
X75993791Y-128133948D01*
X75400404Y-128105625D01*
X75067919Y-128041195D01*
X74922544Y-127926505D01*
X74890484Y-127747398D01*
X74891656Y-127615316D01*
X74938702Y-127196240D01*
X75107460Y-126930272D01*
X75469850Y-126782956D01*
X76097792Y-126719835D01*
X77063206Y-126706451D01*
X78987258Y-126706451D01*
X78987258Y-126513228D01*
X80830807Y-126513228D01*
X80850030Y-126675764D01*
X81044644Y-126862367D01*
X81535653Y-126911290D01*
X81598328Y-126910494D01*
X82094713Y-126844979D01*
X82367097Y-126706451D01*
X82559978Y-126577139D01*
X82993702Y-126501613D01*
X83076063Y-126499843D01*
X83408246Y-126380201D01*
X83493710Y-125989516D01*
X83492026Y-125889063D01*
X83422487Y-125616680D01*
X83168361Y-125501311D01*
X82617514Y-125477419D01*
X82266090Y-125496577D01*
X81525681Y-125687392D01*
X81018768Y-126042789D01*
X80830807Y-126513228D01*
X78987258Y-126513228D01*
X78987258Y-126091935D01*
X78987258Y-125477419D01*
X77246129Y-125477419D01*
X76925013Y-125474685D01*
X76198807Y-125445171D01*
X75694124Y-125390128D01*
X75505000Y-125318158D01*
X75604109Y-125063265D01*
X75853692Y-124652432D01*
X76048863Y-124360012D01*
X76073605Y-124264992D01*
X75861625Y-124420514D01*
X75660054Y-124625967D01*
X75404605Y-125061364D01*
X75251979Y-125273601D01*
X74855259Y-125428397D01*
X74136944Y-125523152D01*
X73791862Y-125559494D01*
X73091970Y-125723275D01*
X72708981Y-125996855D01*
X72571375Y-126265713D01*
X72446216Y-126946010D01*
X72495811Y-127676799D01*
X72719212Y-128249393D01*
X72788626Y-128348657D01*
X72901544Y-128680949D01*
X72719212Y-129051058D01*
X72662825Y-129148682D01*
X72498506Y-129684423D01*
X72432420Y-130336707D01*
X72435455Y-130673851D01*
X72461051Y-130837729D01*
X72494134Y-131049540D01*
X72700920Y-131191116D01*
X73149355Y-131212903D01*
X73328020Y-131211694D01*
X73699196Y-131157060D01*
X73842551Y-130932665D01*
X73866291Y-130418630D01*
X73869815Y-130290818D01*
X73965081Y-129735283D01*
X74149752Y-129389104D01*
X74312306Y-129302313D01*
X74454262Y-129443198D01*
X74570184Y-129927329D01*
X74943537Y-131179541D01*
X75677782Y-132512525D01*
X76675749Y-133687053D01*
X77865525Y-134620323D01*
X79175198Y-135229536D01*
X79769376Y-135434647D01*
X80238832Y-135639538D01*
X80419378Y-135779483D01*
X80403145Y-135789738D01*
X80097665Y-135822525D01*
X79438683Y-135849699D01*
X78469931Y-135870705D01*
X77235140Y-135884984D01*
X75778038Y-135891981D01*
X74142358Y-135891139D01*
X72371830Y-135881902D01*
X72364866Y-135881850D01*
X70084512Y-135870618D01*
X68179540Y-135857853D01*
X66616370Y-135819552D01*
X65361422Y-135731713D01*
X64381115Y-135570334D01*
X63641868Y-135311414D01*
X63110102Y-134930950D01*
X62752236Y-134404940D01*
X62534689Y-133709383D01*
X62423881Y-132820277D01*
X62386232Y-131713619D01*
X62387462Y-130854435D01*
X63274265Y-130854435D01*
X63275699Y-130888614D01*
X63507348Y-130973910D01*
X63989721Y-131008064D01*
X64249097Y-131004371D01*
X64539771Y-130956010D01*
X64786293Y-130800423D01*
X65049265Y-130474789D01*
X65389290Y-129916287D01*
X65866971Y-129062097D01*
X66237200Y-128408078D01*
X66635287Y-127740708D01*
X66930446Y-127287616D01*
X67077016Y-127122012D01*
X67171061Y-127220569D01*
X67430023Y-127614079D01*
X67799427Y-128237964D01*
X68233226Y-129016770D01*
X68455646Y-129425564D01*
X68855240Y-130132322D01*
X69152069Y-130573288D01*
X69408256Y-130815368D01*
X69685921Y-130925473D01*
X70047186Y-130970509D01*
X70207223Y-130979919D01*
X70633965Y-130950194D01*
X70764122Y-130837729D01*
X70740350Y-130785816D01*
X70554199Y-130428903D01*
X70219755Y-129810154D01*
X69774875Y-128999219D01*
X69257420Y-128065748D01*
X68951554Y-127517423D01*
X68470559Y-126670897D01*
X68118871Y-126100405D01*
X67850409Y-125751229D01*
X67619093Y-125568651D01*
X67378843Y-125497953D01*
X67083577Y-125484415D01*
X66901744Y-125484968D01*
X66646465Y-125519510D01*
X66417720Y-125642508D01*
X66169646Y-125907463D01*
X65856380Y-126367881D01*
X65432058Y-127077263D01*
X64850818Y-128089113D01*
X64618434Y-128495763D01*
X64111158Y-129384086D01*
X63692542Y-130118026D01*
X63400830Y-130630502D01*
X63274265Y-130854435D01*
X62387462Y-130854435D01*
X62388162Y-130365409D01*
X62396089Y-128751643D01*
X62398505Y-127442696D01*
X62415609Y-125971173D01*
X62458263Y-124823435D01*
X62537024Y-123949899D01*
X62617900Y-123531451D01*
X76529194Y-123531451D01*
X76631613Y-123633871D01*
X76734033Y-123531451D01*
X76631613Y-123429032D01*
X76529194Y-123531451D01*
X62617900Y-123531451D01*
X62662444Y-123300979D01*
X62845080Y-122827092D01*
X63095486Y-122478652D01*
X63424216Y-122206076D01*
X63841825Y-121959778D01*
X63972437Y-121895970D01*
X64174499Y-121823714D01*
X64442800Y-121763572D01*
X64811684Y-121714439D01*
X65315496Y-121675214D01*
X65988579Y-121644795D01*
X66865275Y-121622080D01*
X67979930Y-121605966D01*
X69366886Y-121595352D01*
X71060488Y-121589135D01*
X73095078Y-121586213D01*
X75505000Y-121585484D01*
X77375062Y-121585881D01*
X79496124Y-121588179D01*
X81267999Y-121593510D01*
X82725032Y-121602974D01*
X83901565Y-121617675D01*
X84831942Y-121638714D01*
X85550507Y-121667194D01*
X86091604Y-121704217D01*
X86489575Y-121750884D01*
X86778765Y-121808299D01*
X86993518Y-121877563D01*
X87168176Y-121959778D01*
X87262116Y-122011309D01*
X87775244Y-122361226D01*
X88143845Y-122789743D01*
X88387746Y-123362571D01*
X88417738Y-123531451D01*
X88526776Y-124145421D01*
G37*
G36*
X121335065Y-106175000D02*
G01*
X121293831Y-106216234D01*
X121252597Y-106175000D01*
X121293831Y-106133766D01*
X121335065Y-106175000D01*
G37*
G36*
X121500000Y-106133766D02*
G01*
X121494049Y-106177424D01*
X121445022Y-106188745D01*
X121435152Y-106176658D01*
X121445022Y-106078788D01*
X121469826Y-106065886D01*
X121500000Y-106133766D01*
G37*
G36*
X122159740Y-103329870D02*
G01*
X122153789Y-103373528D01*
X122104762Y-103384848D01*
X122094892Y-103372761D01*
X122104762Y-103274892D01*
X122129567Y-103261990D01*
X122159740Y-103329870D01*
G37*
G36*
X122324675Y-103577273D02*
G01*
X122318724Y-103620931D01*
X122269697Y-103632251D01*
X122259827Y-103620164D01*
X122269697Y-103522294D01*
X122294502Y-103509393D01*
X122324675Y-103577273D01*
G37*
G36*
X120511103Y-101843556D02*
G01*
X120580487Y-101932045D01*
X120584867Y-101972080D01*
X120514513Y-101998019D01*
X120469985Y-101975553D01*
X120423507Y-101893069D01*
X120487711Y-101839269D01*
X120511103Y-101843556D01*
G37*
G36*
X119644055Y-101771501D02*
G01*
X119727640Y-101854853D01*
X119710962Y-101957653D01*
X119685285Y-101980043D01*
X119571425Y-102000423D01*
X119520779Y-101886688D01*
X119529510Y-101829855D01*
X119598380Y-101762987D01*
X119644055Y-101771501D01*
G37*
G36*
X121702873Y-101776943D02*
G01*
X121747403Y-101886688D01*
X121738099Y-101943594D01*
X121664935Y-102010390D01*
X121626998Y-101996434D01*
X121582468Y-101886688D01*
X121591772Y-101829782D01*
X121664935Y-101762987D01*
X121702873Y-101776943D01*
G37*
G36*
X121948064Y-103264704D02*
G01*
X121942160Y-103371104D01*
X121911460Y-103429241D01*
X121823635Y-103494805D01*
X121794144Y-103477504D01*
X121800048Y-103371104D01*
X121830748Y-103312966D01*
X121918573Y-103247403D01*
X121948064Y-103264704D01*
G37*
G36*
X122048378Y-105872934D02*
G01*
X122054812Y-106051299D01*
X122052406Y-106172320D01*
X122039467Y-106275931D01*
X122019073Y-106236851D01*
X122005429Y-106106056D01*
X122019073Y-105865747D01*
X122031930Y-105823970D01*
X122048378Y-105872934D01*
G37*
G36*
X115335552Y-103682551D02*
G01*
X115351683Y-103684690D01*
X115394975Y-103700451D01*
X115294096Y-103711589D01*
X115067533Y-103715812D01*
X115033613Y-103715744D01*
X114821466Y-103710549D01*
X114737271Y-103698721D01*
X114799513Y-103682551D01*
X115046378Y-103668903D01*
X115335552Y-103682551D01*
G37*
G36*
X121402328Y-112999780D02*
G01*
X121411022Y-113287825D01*
X121405625Y-113532484D01*
X121382670Y-113728206D01*
X121347171Y-113803247D01*
X121322557Y-113768723D01*
X121304617Y-113611549D01*
X121312473Y-113370292D01*
X121336059Y-113115603D01*
X121363845Y-112914507D01*
X121386269Y-112875620D01*
X121402328Y-112999780D01*
G37*
G36*
X115150000Y-100160655D02*
G01*
X115331605Y-100186891D01*
X115578879Y-100238744D01*
X115727273Y-100291196D01*
X115749728Y-100321405D01*
X115648427Y-100335000D01*
X115397403Y-100314020D01*
X115215798Y-100287784D01*
X114968524Y-100235931D01*
X114820130Y-100183479D01*
X114797675Y-100153270D01*
X114898975Y-100139676D01*
X115150000Y-100160655D01*
G37*
G36*
X121854300Y-106155105D02*
G01*
X121828327Y-106217187D01*
X121819268Y-106223110D01*
X121773178Y-106311497D01*
X121833356Y-106473766D01*
X121897772Y-106602219D01*
X121881456Y-106616871D01*
X121759402Y-106512706D01*
X121642942Y-106380287D01*
X121581548Y-106225155D01*
X121618526Y-106122416D01*
X121754374Y-106111694D01*
X121854300Y-106155105D01*
G37*
G36*
X121883919Y-105660669D02*
G01*
X121827591Y-105765409D01*
X121754436Y-105832321D01*
X121613471Y-105849986D01*
X121512360Y-105716274D01*
X121502616Y-105684659D01*
X121510712Y-105640239D01*
X121610290Y-105710909D01*
X121700880Y-105768607D01*
X121747403Y-105731526D01*
X121752021Y-105702713D01*
X121839968Y-105638961D01*
X121883919Y-105660669D01*
G37*
G36*
X125661787Y-94384046D02*
G01*
X125563178Y-94502637D01*
X125385985Y-94674161D01*
X125221006Y-94814846D01*
X125039393Y-94947805D01*
X124932413Y-94998188D01*
X124932556Y-94959021D01*
X125031249Y-94840523D01*
X125211039Y-94670779D01*
X125382646Y-94528010D01*
X125562630Y-94396948D01*
X125664610Y-94346752D01*
X125661787Y-94384046D01*
G37*
G36*
X116194854Y-96465745D02*
G01*
X116428247Y-96581658D01*
X116642000Y-96701594D01*
X116815324Y-96808140D01*
X116881818Y-96862363D01*
X116871944Y-96887968D01*
X116805954Y-96884818D01*
X116652984Y-96822101D01*
X116384272Y-96689845D01*
X116216586Y-96598423D01*
X116042274Y-96483524D01*
X115974675Y-96409140D01*
X116031141Y-96404487D01*
X116194854Y-96465745D01*
G37*
G36*
X122625280Y-109116227D02*
G01*
X122694892Y-109139052D01*
X122633929Y-109191670D01*
X122529472Y-109320898D01*
X122475203Y-109580884D01*
X122460795Y-109886039D01*
X122429481Y-109540734D01*
X122425822Y-109504294D01*
X122367402Y-109260434D01*
X122258336Y-109158580D01*
X122232382Y-109147938D01*
X122277790Y-109126454D01*
X122448377Y-109114671D01*
X122625280Y-109116227D01*
G37*
G36*
X127718004Y-98341264D02*
G01*
X127630873Y-98404418D01*
X127437662Y-98485264D01*
X127312599Y-98527180D01*
X127038547Y-98600974D01*
X126848826Y-98625358D01*
X126777922Y-98594615D01*
X126800138Y-98570877D01*
X126936194Y-98508723D01*
X127149346Y-98436438D01*
X127385061Y-98370150D01*
X127588807Y-98325991D01*
X127706049Y-98320090D01*
X127718004Y-98341264D01*
G37*
G36*
X120803681Y-109122629D02*
G01*
X120922727Y-109226299D01*
X120976405Y-109310118D01*
X120932825Y-109350000D01*
X120930168Y-109350103D01*
X120866578Y-109426514D01*
X120840260Y-109602270D01*
X120840220Y-109610900D01*
X120816198Y-109771346D01*
X120757792Y-109803571D01*
X120712927Y-109723658D01*
X120682922Y-109547478D01*
X120678104Y-109342782D01*
X120699389Y-109173258D01*
X120747695Y-109102597D01*
X120803681Y-109122629D01*
G37*
G36*
X118062750Y-93633329D02*
G01*
X118211740Y-93748416D01*
X118408670Y-93929752D01*
X118777519Y-94291749D01*
X118557271Y-94521638D01*
X118512321Y-94566868D01*
X118372677Y-94683982D01*
X118296325Y-94710828D01*
X118294477Y-94708500D01*
X118322334Y-94622396D01*
X118433929Y-94480335D01*
X118612230Y-94290542D01*
X118284577Y-93970597D01*
X118151905Y-93833557D01*
X118029146Y-93683932D01*
X117998373Y-93609203D01*
X118062750Y-93633329D01*
G37*
G36*
X120071723Y-101021755D02*
G01*
X120137342Y-101074018D01*
X120171019Y-101228273D01*
X120180520Y-101515584D01*
X120180276Y-101575203D01*
X120167210Y-101837681D01*
X120128646Y-101972389D01*
X120056818Y-102010390D01*
X120041914Y-102009414D01*
X119976294Y-101957151D01*
X119942617Y-101802895D01*
X119933117Y-101515584D01*
X119933361Y-101455966D01*
X119946427Y-101193488D01*
X119984991Y-101058779D01*
X120056818Y-101020779D01*
X120071723Y-101021755D01*
G37*
G36*
X118228427Y-111216668D02*
G01*
X118242533Y-111370455D01*
X118227206Y-111505938D01*
X118180682Y-111576623D01*
X118163601Y-111573171D01*
X118118831Y-111488152D01*
X118099098Y-111473173D01*
X117988891Y-111522891D01*
X117814171Y-111650807D01*
X117710409Y-111732403D01*
X117551117Y-111839052D01*
X117472032Y-111864456D01*
X117499231Y-111811298D01*
X117614135Y-111682085D01*
X117780944Y-111515708D01*
X117960507Y-111349576D01*
X118113676Y-111221094D01*
X118201299Y-111167668D01*
X118228427Y-111216668D01*
G37*
G36*
X122100524Y-101035479D02*
G01*
X122142931Y-101163995D01*
X122159740Y-101381785D01*
X122175533Y-101584495D01*
X122241997Y-101790444D01*
X122344523Y-101882965D01*
X122465771Y-101836307D01*
X122524798Y-101794143D01*
X122609302Y-101838966D01*
X122600169Y-101916087D01*
X122474292Y-102001342D01*
X122300340Y-102043736D01*
X122125620Y-101992686D01*
X122026264Y-101804674D01*
X121994805Y-101471449D01*
X122002032Y-101287482D01*
X122031986Y-101095317D01*
X122077273Y-101020779D01*
X122100524Y-101035479D01*
G37*
G36*
X127464190Y-97578399D02*
G01*
X127372356Y-97643699D01*
X127128409Y-97763395D01*
X126878233Y-97888910D01*
X126729201Y-98006334D01*
X126719824Y-98109908D01*
X126839773Y-98215823D01*
X126891402Y-98248575D01*
X126931636Y-98290714D01*
X126819156Y-98281066D01*
X126707566Y-98227979D01*
X126629025Y-98039938D01*
X126624242Y-97980260D01*
X126650045Y-97864969D01*
X126760918Y-97780191D01*
X126994203Y-97690157D01*
X127209185Y-97620622D01*
X127408328Y-97569903D01*
X127464190Y-97578399D01*
G37*
G36*
X119224281Y-109119296D02*
G01*
X119296301Y-109135394D01*
X119211526Y-109160797D01*
X119098703Y-109197733D01*
X119028300Y-109288454D01*
X119108442Y-109391234D01*
X119161416Y-109481754D01*
X119183472Y-109664120D01*
X119182802Y-109683766D01*
X119174142Y-109809267D01*
X119151527Y-109791258D01*
X119099698Y-109622079D01*
X119095904Y-109609228D01*
X119019415Y-109415917D01*
X118942201Y-109307959D01*
X118925621Y-109297138D01*
X118858588Y-109202792D01*
X118933358Y-109134462D01*
X119129058Y-109113828D01*
X119224281Y-109119296D01*
G37*
G36*
X127520433Y-107147513D02*
G01*
X126984697Y-107247464D01*
X127375967Y-107494673D01*
X127537510Y-107602698D01*
X127703134Y-107731467D01*
X127767385Y-107808396D01*
X127763371Y-107818973D01*
X127676535Y-107805162D01*
X127503640Y-107717248D01*
X127280936Y-107575673D01*
X127044676Y-107400877D01*
X127014753Y-107376238D01*
X126890528Y-107250577D01*
X126863134Y-107176130D01*
X126864312Y-107175083D01*
X126968862Y-107147085D01*
X127190003Y-107116440D01*
X127481641Y-107089597D01*
X128056169Y-107047562D01*
X127520433Y-107147513D01*
G37*
G36*
X127885686Y-98753989D02*
G01*
X127765339Y-98818840D01*
X127485011Y-98912531D01*
X127282421Y-98978947D01*
X127078029Y-99082131D01*
X127032687Y-99176434D01*
X127149026Y-99259139D01*
X127206932Y-99290787D01*
X127272727Y-99387124D01*
X127272482Y-99394193D01*
X127218888Y-99442417D01*
X127109115Y-99395170D01*
X126997475Y-99274645D01*
X126965487Y-99213904D01*
X126964328Y-99042256D01*
X127120123Y-98903554D01*
X127435787Y-98794606D01*
X127661466Y-98746807D01*
X127849810Y-98726978D01*
X127885686Y-98753989D01*
G37*
G36*
X128262338Y-100690909D02*
G01*
X128275493Y-100716074D01*
X128319586Y-100900991D01*
X128332312Y-101144481D01*
X128327821Y-101233899D01*
X128310400Y-101337158D01*
X128287685Y-101297041D01*
X128257536Y-101205713D01*
X128182644Y-101153010D01*
X128024366Y-101137274D01*
X127742260Y-101147410D01*
X127231494Y-101175088D01*
X127705682Y-101084586D01*
X127925497Y-101038834D01*
X128092628Y-100981754D01*
X128164980Y-100903912D01*
X128181133Y-100780646D01*
X128182654Y-100717373D01*
X128204290Y-100632395D01*
X128262338Y-100690909D01*
G37*
G36*
X119190909Y-104274010D02*
G01*
X119190909Y-107362305D01*
X120407305Y-107387159D01*
X120957286Y-107394898D01*
X121591213Y-107397983D01*
X122217537Y-107396083D01*
X122757630Y-107389132D01*
X123891558Y-107366251D01*
X123891558Y-104275982D01*
X123891558Y-101185714D01*
X124097727Y-101185714D01*
X124303896Y-101185714D01*
X124303896Y-104443182D01*
X124303896Y-107700649D01*
X121500000Y-107700649D01*
X118696104Y-107700649D01*
X118696104Y-104443182D01*
X118696104Y-101185714D01*
X118943507Y-101185714D01*
X119190909Y-101185714D01*
X119190909Y-104274010D01*
G37*
G36*
X114635962Y-102731981D02*
G01*
X114652189Y-102800683D01*
X114713394Y-102876731D01*
X114853144Y-102910115D01*
X115114502Y-102917532D01*
X115295836Y-102924637D01*
X115487826Y-102954590D01*
X115562338Y-103000000D01*
X115521906Y-103033939D01*
X115357157Y-103068911D01*
X115108766Y-103082468D01*
X114938881Y-103084456D01*
X114755035Y-103103298D01*
X114673594Y-103154324D01*
X114655195Y-103252270D01*
X114642071Y-103347581D01*
X114592181Y-103383127D01*
X114573368Y-103347243D01*
X114556921Y-103184783D01*
X114567212Y-102945305D01*
X114584834Y-102802413D01*
X114612514Y-102696475D01*
X114635962Y-102731981D01*
G37*
G36*
X114632160Y-104143336D02*
G01*
X114663015Y-104248442D01*
X114733313Y-104304034D01*
X114884007Y-104317977D01*
X115156969Y-104303009D01*
X115376671Y-104293890D01*
X115570263Y-104302655D01*
X115644805Y-104330525D01*
X115610939Y-104356759D01*
X115453797Y-104393531D01*
X115211851Y-104418255D01*
X115088546Y-104426579D01*
X114886669Y-104457162D01*
X114788962Y-104518344D01*
X114752383Y-104629957D01*
X114731313Y-104728786D01*
X114682837Y-104790430D01*
X114632485Y-104728525D01*
X114594707Y-104568362D01*
X114583958Y-104335230D01*
X114591095Y-104202007D01*
X114609497Y-104100988D01*
X114632160Y-104143336D01*
G37*
G36*
X115343363Y-98916389D02*
G01*
X115600671Y-98965651D01*
X115640279Y-98974527D01*
X115882630Y-99034477D01*
X116002203Y-99092689D01*
X116033172Y-99179060D01*
X116009709Y-99323484D01*
X116009627Y-99323867D01*
X115960530Y-99521277D01*
X115918877Y-99639448D01*
X115865139Y-99701029D01*
X115843070Y-99631316D01*
X115866949Y-99412662D01*
X115878045Y-99333908D01*
X115872827Y-99171359D01*
X115799914Y-99123566D01*
X115687483Y-99111887D01*
X115488719Y-99068082D01*
X115287190Y-99007589D01*
X115137595Y-98947398D01*
X115094635Y-98904499D01*
X115157484Y-98896316D01*
X115343363Y-98916389D01*
G37*
G36*
X121150626Y-101028130D02*
G01*
X121342969Y-101058085D01*
X121417533Y-101103247D01*
X121386604Y-101151179D01*
X121252597Y-101185714D01*
X121214448Y-101187479D01*
X121133204Y-101227381D01*
X121096346Y-101350730D01*
X121087662Y-101598052D01*
X121079747Y-101813415D01*
X121041752Y-101966247D01*
X120963961Y-102010390D01*
X120899352Y-101984004D01*
X120853503Y-101857356D01*
X120840260Y-101598052D01*
X120839554Y-101502679D01*
X120823593Y-101299569D01*
X120774253Y-101207423D01*
X120675325Y-101185714D01*
X120579460Y-101170250D01*
X120510390Y-101103247D01*
X120550822Y-101069308D01*
X120715570Y-101034336D01*
X120963961Y-101020779D01*
X121150626Y-101028130D01*
G37*
G36*
X123418064Y-101022228D02*
G01*
X123463503Y-101044751D01*
X123456155Y-101119904D01*
X123389213Y-101279409D01*
X123255873Y-101554991D01*
X123149262Y-101766475D01*
X123053751Y-101942701D01*
X123007430Y-102010390D01*
X122967782Y-101946140D01*
X122884945Y-101778082D01*
X122781600Y-101555386D01*
X122680103Y-101327281D01*
X122602810Y-101142993D01*
X122572078Y-101051752D01*
X122582951Y-101038678D01*
X122687712Y-101020779D01*
X122699826Y-101022132D01*
X122805198Y-101108702D01*
X122901001Y-101288799D01*
X122998657Y-101556818D01*
X123130199Y-101288799D01*
X123148221Y-101253957D01*
X123265468Y-101088203D01*
X123370481Y-101020779D01*
X123418064Y-101022228D01*
G37*
G36*
X124584188Y-93283424D02*
G01*
X124741913Y-93379120D01*
X124920971Y-93525121D01*
X125067733Y-93675355D01*
X125128571Y-93783749D01*
X125086066Y-93805326D01*
X124971833Y-93729820D01*
X124891888Y-93665197D01*
X124808405Y-93651432D01*
X124706705Y-93731219D01*
X124545693Y-93923208D01*
X124440689Y-94046916D01*
X124289896Y-94199036D01*
X124197529Y-94258442D01*
X124176797Y-94253094D01*
X124189487Y-94178633D01*
X124310961Y-94009527D01*
X124547174Y-93736894D01*
X124599113Y-93678983D01*
X124698055Y-93549767D01*
X124694884Y-93470359D01*
X124597387Y-93386407D01*
X124513957Y-93307628D01*
X124529209Y-93268831D01*
X124584188Y-93283424D01*
G37*
G36*
X114902959Y-106204665D02*
G01*
X114972269Y-106323304D01*
X115084778Y-106367631D01*
X115295008Y-106344587D01*
X115329072Y-106338453D01*
X115571452Y-106290038D01*
X115747890Y-106247513D01*
X115828314Y-106236944D01*
X115892208Y-106281546D01*
X115857510Y-106317404D01*
X115700329Y-106377915D01*
X115459253Y-106432376D01*
X115285086Y-106464727D01*
X115117200Y-106515937D01*
X115051261Y-106589193D01*
X115049286Y-106710240D01*
X115051139Y-106727568D01*
X115050387Y-106859217D01*
X115016883Y-106863006D01*
X114965594Y-106766330D01*
X114911485Y-106596586D01*
X114869523Y-106381169D01*
X114866637Y-106359600D01*
X114845648Y-106164645D01*
X114856906Y-106117482D01*
X114902959Y-106204665D01*
G37*
G36*
X115686039Y-105020455D02*
G01*
X115686039Y-105346607D01*
X115674905Y-105541319D01*
X115616166Y-105666392D01*
X115479870Y-105730107D01*
X115250158Y-105770759D01*
X114985065Y-105788238D01*
X114696429Y-105789021D01*
X114943831Y-105722551D01*
X115161632Y-105666386D01*
X115423220Y-105603411D01*
X115509010Y-105580049D01*
X115620150Y-105496499D01*
X115629388Y-105326831D01*
X115626910Y-105305811D01*
X115601565Y-105191126D01*
X115534323Y-105133483D01*
X115384263Y-105117042D01*
X115110465Y-105125963D01*
X114836212Y-105130506D01*
X114704408Y-105109218D01*
X114706969Y-105059395D01*
X114773374Y-105027506D01*
X114974600Y-104996465D01*
X115241309Y-104995120D01*
X115686039Y-105020455D01*
G37*
G36*
X121516099Y-106475174D02*
G01*
X121628928Y-106577932D01*
X121688151Y-106617727D01*
X121701087Y-106719261D01*
X121654656Y-106762398D01*
X121573422Y-106699227D01*
X121516103Y-106629098D01*
X121501263Y-106700520D01*
X121501196Y-106704818D01*
X121474895Y-106771093D01*
X121376299Y-106711039D01*
X121312493Y-106635749D01*
X121252597Y-106453539D01*
X121260681Y-106420745D01*
X121352684Y-106420745D01*
X121362554Y-106518615D01*
X121387359Y-106531516D01*
X121417533Y-106463636D01*
X121411581Y-106419978D01*
X121362554Y-106408658D01*
X121352684Y-106420745D01*
X121260681Y-106420745D01*
X121273985Y-106366779D01*
X121376299Y-106298701D01*
X121433796Y-106311951D01*
X121500000Y-106413579D01*
X121513083Y-106463636D01*
X121516099Y-106475174D01*
G37*
G36*
X122077273Y-109468476D02*
G01*
X122076755Y-109548243D01*
X122060652Y-109741707D01*
X122006078Y-109825779D01*
X121891721Y-109843542D01*
X121665933Y-109807195D01*
X121534515Y-109673671D01*
X121515192Y-109432468D01*
X121623701Y-109432468D01*
X121648952Y-109566038D01*
X121768020Y-109664171D01*
X121815743Y-109668722D01*
X121891885Y-109613541D01*
X121912338Y-109432468D01*
X121909758Y-109347154D01*
X121870914Y-109217725D01*
X121768020Y-109200764D01*
X121676926Y-109253984D01*
X121623701Y-109432468D01*
X121515192Y-109432468D01*
X121514499Y-109423820D01*
X121541589Y-109258490D01*
X121623570Y-109156114D01*
X121809253Y-109117989D01*
X121932446Y-109108662D01*
X122034061Y-109132829D01*
X122071759Y-109238935D01*
X122076408Y-109432468D01*
X122077273Y-109468476D01*
G37*
G36*
X122732040Y-92315506D02*
G01*
X122906550Y-92444909D01*
X123020162Y-92641412D01*
X123033750Y-92877841D01*
X122973734Y-93081514D01*
X122891361Y-93240354D01*
X122836347Y-93288692D01*
X122631687Y-93347019D01*
X122396003Y-93310869D01*
X122200517Y-93185858D01*
X122113807Y-93058160D01*
X122107164Y-92964048D01*
X122179791Y-92974409D01*
X122290015Y-93088255D01*
X122427851Y-93221757D01*
X122606843Y-93258536D01*
X122764383Y-93171514D01*
X122868297Y-92981199D01*
X122886415Y-92708097D01*
X122851295Y-92562625D01*
X122756690Y-92502017D01*
X122550604Y-92494872D01*
X122383810Y-92493922D01*
X122301035Y-92464489D01*
X122333916Y-92391788D01*
X122356830Y-92366697D01*
X122535758Y-92280378D01*
X122732040Y-92315506D01*
G37*
G36*
X123275579Y-109159923D02*
G01*
X123378724Y-109267724D01*
X123355170Y-109390012D01*
X123196064Y-109479695D01*
X123054532Y-109536501D01*
X122984416Y-109615283D01*
X123035661Y-109657815D01*
X123190584Y-109646005D01*
X123226133Y-109638503D01*
X123364348Y-109648040D01*
X123396320Y-109711835D01*
X123293669Y-109790189D01*
X123251386Y-109806131D01*
X123051082Y-109826543D01*
X122894542Y-109712180D01*
X122866581Y-109676472D01*
X122836314Y-109570706D01*
X122941440Y-109464777D01*
X123052443Y-109394042D01*
X123165113Y-109350000D01*
X123183409Y-109346612D01*
X123231818Y-109261975D01*
X123199693Y-109218411D01*
X123066883Y-109226299D01*
X122965616Y-109241423D01*
X122901948Y-109185145D01*
X122961008Y-109127651D01*
X123128029Y-109117737D01*
X123275579Y-109159923D01*
G37*
G36*
X124010104Y-109139841D02*
G01*
X124050294Y-109245983D01*
X124056494Y-109473701D01*
X124055095Y-109613704D01*
X124033277Y-109771934D01*
X123961223Y-109834048D01*
X123809091Y-109844805D01*
X123806013Y-109844799D01*
X123633350Y-109820241D01*
X123561688Y-109762338D01*
X123612875Y-109708100D01*
X123767857Y-109679870D01*
X123903452Y-109659395D01*
X123974026Y-109597403D01*
X123922839Y-109543165D01*
X123767857Y-109514935D01*
X123632262Y-109494460D01*
X123561688Y-109432468D01*
X123612875Y-109378230D01*
X123767857Y-109350000D01*
X123862992Y-109342949D01*
X123965251Y-109291071D01*
X123925354Y-109218643D01*
X123747240Y-109161665D01*
X123608856Y-109137944D01*
X123619888Y-109125083D01*
X123788474Y-109114954D01*
X123903535Y-109111924D01*
X124010104Y-109139841D01*
G37*
G36*
X115233836Y-100567273D02*
G01*
X115471175Y-100602381D01*
X115654050Y-100645677D01*
X115727273Y-100690281D01*
X115704483Y-100709162D01*
X115563191Y-100725573D01*
X115335552Y-100715480D01*
X114943831Y-100677844D01*
X115294318Y-100979852D01*
X115437110Y-101110436D01*
X115586753Y-101270769D01*
X115644805Y-101368279D01*
X115643770Y-101376769D01*
X115553664Y-101419040D01*
X115335552Y-101403581D01*
X115307772Y-101399103D01*
X115048290Y-101365727D01*
X114840747Y-101351557D01*
X114725182Y-101335145D01*
X114655195Y-101278312D01*
X114678189Y-101256453D01*
X114819518Y-101237391D01*
X115046916Y-101248621D01*
X115438636Y-101291267D01*
X115067533Y-100958076D01*
X114903154Y-100798605D01*
X114778183Y-100648174D01*
X114751336Y-100568628D01*
X114816520Y-100549136D01*
X114997222Y-100547231D01*
X115233836Y-100567273D01*
G37*
G36*
X118892719Y-112085538D02*
G01*
X118726294Y-112316916D01*
X118680633Y-112368977D01*
X118489281Y-112521538D01*
X118293340Y-112550029D01*
X118131437Y-112490806D01*
X118055049Y-112355142D01*
X118146764Y-112355142D01*
X118157513Y-112380018D01*
X118271379Y-112475884D01*
X118438347Y-112426093D01*
X118644094Y-112234131D01*
X118711508Y-112143528D01*
X118797993Y-111945252D01*
X118781757Y-111798742D01*
X118661476Y-111741558D01*
X118594480Y-111759256D01*
X118438091Y-111871857D01*
X118281970Y-112043719D01*
X118170175Y-112222320D01*
X118146764Y-112355142D01*
X118055049Y-112355142D01*
X118046810Y-112340510D01*
X118086029Y-112132671D01*
X118251059Y-111897593D01*
X118449226Y-111729483D01*
X118661538Y-111665359D01*
X118844546Y-111758052D01*
X118860065Y-111774189D01*
X118934752Y-111916714D01*
X118927647Y-111945252D01*
X118892719Y-112085538D01*
G37*
G36*
X116382920Y-97000048D02*
G01*
X116563145Y-97165558D01*
X116634416Y-97392208D01*
X116593036Y-97542551D01*
X116469481Y-97722078D01*
X116316614Y-97845339D01*
X116189141Y-97882601D01*
X116139610Y-97804545D01*
X116152540Y-97767536D01*
X116260410Y-97722078D01*
X116289182Y-97719023D01*
X116422508Y-97624615D01*
X116505000Y-97450572D01*
X116499171Y-97268163D01*
X116496721Y-97262242D01*
X116376043Y-97134464D01*
X116175762Y-97025792D01*
X115975197Y-96979870D01*
X115956345Y-96980921D01*
X115805037Y-97067059D01*
X115706221Y-97245601D01*
X115697992Y-97451706D01*
X115700005Y-97459821D01*
X115715867Y-97601287D01*
X115656833Y-97605810D01*
X115642206Y-97595510D01*
X115569206Y-97447824D01*
X115589760Y-97243059D01*
X115698820Y-97048214D01*
X115897119Y-96926542D01*
X116144118Y-96914202D01*
X116382920Y-97000048D01*
G37*
G36*
X118016079Y-95015298D02*
G01*
X117871429Y-95248052D01*
X117682020Y-95379962D01*
X117447304Y-95389570D01*
X117181576Y-95242066D01*
X117161077Y-95225332D01*
X116995669Y-94997571D01*
X116990414Y-94882040D01*
X117097687Y-94882040D01*
X117181938Y-95082074D01*
X117373092Y-95246162D01*
X117475068Y-95295903D01*
X117577371Y-95330519D01*
X117649185Y-95294423D01*
X117780146Y-95173531D01*
X117900878Y-95027132D01*
X117953896Y-94918182D01*
X117932260Y-94840456D01*
X117803696Y-94686457D01*
X117612574Y-94558972D01*
X117420759Y-94505844D01*
X117238537Y-94550521D01*
X117117500Y-94690157D01*
X117097687Y-94882040D01*
X116990414Y-94882040D01*
X116984246Y-94746424D01*
X117129221Y-94505844D01*
X117342412Y-94366890D01*
X117584437Y-94373027D01*
X117833943Y-94543329D01*
X117996430Y-94772555D01*
X118008218Y-94918182D01*
X118016079Y-95015298D01*
G37*
G36*
X119434083Y-112567626D02*
G01*
X119263992Y-112848070D01*
X119081177Y-113011084D01*
X118877384Y-113051637D01*
X118699388Y-112941295D01*
X118693927Y-112934345D01*
X118653968Y-112759903D01*
X118655206Y-112755103D01*
X118794734Y-112755103D01*
X118805655Y-112809507D01*
X118887496Y-112935574D01*
X119016744Y-112922749D01*
X119174913Y-112779187D01*
X119343514Y-112513043D01*
X119347872Y-112504507D01*
X119389357Y-112347235D01*
X119303432Y-112227086D01*
X119216187Y-112175426D01*
X119115055Y-112204893D01*
X118970840Y-112351905D01*
X118946764Y-112381341D01*
X118829281Y-112583001D01*
X118794734Y-112755103D01*
X118655206Y-112755103D01*
X118711895Y-112535312D01*
X118839090Y-112311651D01*
X119006930Y-112139997D01*
X119186797Y-112071429D01*
X119242602Y-112074509D01*
X119420888Y-112155701D01*
X119485549Y-112328455D01*
X119481508Y-112347235D01*
X119434083Y-112567626D01*
G37*
G36*
X120117868Y-112799095D02*
G01*
X120051147Y-113038043D01*
X119944194Y-113266431D01*
X119826464Y-113407602D01*
X119807057Y-113419405D01*
X119608975Y-113464299D01*
X119436140Y-113347058D01*
X119411210Y-113305931D01*
X119386917Y-113110126D01*
X119482675Y-113110126D01*
X119526760Y-113274414D01*
X119529138Y-113277268D01*
X119654485Y-113378574D01*
X119765762Y-113338472D01*
X119889765Y-113147602D01*
X119934227Y-113055114D01*
X120011667Y-112796251D01*
X119981930Y-112626923D01*
X119846441Y-112566234D01*
X119784547Y-112578998D01*
X119639808Y-112699861D01*
X119529771Y-112897757D01*
X119482675Y-113110126D01*
X119386917Y-113110126D01*
X119386479Y-113106598D01*
X119435915Y-112859918D01*
X119540857Y-112631113D01*
X119682647Y-112485408D01*
X119818237Y-112439768D01*
X120008205Y-112478584D01*
X120120381Y-112642712D01*
X120117914Y-112796251D01*
X120117868Y-112799095D01*
G37*
G36*
X115923886Y-98506555D02*
G01*
X116002825Y-98697230D01*
X116089928Y-98807529D01*
X116139610Y-98909349D01*
X116137632Y-98915940D01*
X116062670Y-98898584D01*
X115912825Y-98803972D01*
X115749418Y-98682142D01*
X115439251Y-98432381D01*
X115272155Y-98262866D01*
X115268364Y-98248632D01*
X115397403Y-98248632D01*
X115452720Y-98306857D01*
X115594936Y-98409810D01*
X115712378Y-98480834D01*
X115791811Y-98484475D01*
X115834618Y-98378061D01*
X115846090Y-98315255D01*
X115803878Y-98236328D01*
X115637085Y-98216883D01*
X115469048Y-98226047D01*
X115397403Y-98248632D01*
X115268364Y-98248632D01*
X115248465Y-98173916D01*
X115353885Y-98141140D01*
X115576164Y-98110531D01*
X115866972Y-98088816D01*
X115909072Y-98086861D01*
X116141652Y-98080876D01*
X116259647Y-98087033D01*
X116238035Y-98104288D01*
X116125341Y-98148281D01*
X115972285Y-98304513D01*
X115969712Y-98315255D01*
X115923886Y-98506555D01*
G37*
G36*
X119562949Y-93602996D02*
G01*
X119400826Y-93808619D01*
X119386475Y-93822655D01*
X119211669Y-93956166D01*
X119067208Y-94011039D01*
X118926217Y-93961560D01*
X118743838Y-93814799D01*
X118593609Y-93627026D01*
X118531169Y-93455864D01*
X118561863Y-93321870D01*
X118713301Y-93321870D01*
X118741993Y-93573733D01*
X118746406Y-93586063D01*
X118863019Y-93762808D01*
X119071661Y-93829395D01*
X119262780Y-93829633D01*
X119379425Y-93795034D01*
X119414914Y-93739621D01*
X119438518Y-93545971D01*
X119389407Y-93324009D01*
X119279513Y-93150683D01*
X119156442Y-93067861D01*
X118955641Y-93041297D01*
X118796222Y-93135179D01*
X118713301Y-93321870D01*
X118561863Y-93321870D01*
X118586831Y-93212871D01*
X118748807Y-93030513D01*
X118973299Y-92950455D01*
X119215930Y-92987450D01*
X119432326Y-93156251D01*
X119466483Y-93200893D01*
X119583986Y-93418000D01*
X119569434Y-93545971D01*
X119562949Y-93602996D01*
G37*
G36*
X121058042Y-92247963D02*
G01*
X121087662Y-92402922D01*
X121100075Y-92520946D01*
X121178004Y-92592974D01*
X121370821Y-92609091D01*
X121528494Y-92599915D01*
X121641374Y-92537901D01*
X121688335Y-92382305D01*
X121704321Y-92311176D01*
X121722793Y-92347818D01*
X121735046Y-92540495D01*
X121740312Y-92650315D01*
X121764513Y-92897114D01*
X121797460Y-93055918D01*
X121809971Y-93125859D01*
X121756226Y-93186364D01*
X121755044Y-93186343D01*
X121691363Y-93112629D01*
X121664935Y-92938961D01*
X121663773Y-92886256D01*
X121623364Y-92733674D01*
X121506745Y-92691558D01*
X121291017Y-92716177D01*
X121134893Y-92827076D01*
X121087662Y-93043996D01*
X121085865Y-93150420D01*
X121071488Y-93257851D01*
X121045384Y-93214565D01*
X121010754Y-93029646D01*
X120970796Y-92712175D01*
X120953115Y-92511092D01*
X120955631Y-92275869D01*
X121001100Y-92196753D01*
X121058042Y-92247963D01*
G37*
G36*
X126121896Y-95225103D02*
G01*
X125973901Y-95455982D01*
X125873792Y-95596552D01*
X125689080Y-95825057D01*
X125578008Y-95906912D01*
X125540909Y-95841818D01*
X125551402Y-95801236D01*
X125635636Y-95681118D01*
X125653820Y-95659334D01*
X125674536Y-95513972D01*
X125592002Y-95359698D01*
X125506394Y-95293507D01*
X125677642Y-95293507D01*
X125711299Y-95359829D01*
X125814080Y-95402941D01*
X125954901Y-95287293D01*
X126019869Y-95170730D01*
X125971539Y-95099732D01*
X125798735Y-95121042D01*
X125704586Y-95173999D01*
X125677642Y-95293507D01*
X125506394Y-95293507D01*
X125445819Y-95246671D01*
X125275585Y-95225053D01*
X125157855Y-95239352D01*
X125169805Y-95188088D01*
X125204765Y-95164760D01*
X125374825Y-95102038D01*
X125619643Y-95039469D01*
X125881073Y-94988997D01*
X126100973Y-94962565D01*
X126221199Y-94972116D01*
X126210650Y-95050936D01*
X126149604Y-95170730D01*
X126121896Y-95225103D01*
G37*
G36*
X119872217Y-109366193D02*
G01*
X119873733Y-109376608D01*
X119875800Y-109594669D01*
X119874202Y-109599700D01*
X119827959Y-109745258D01*
X119745580Y-109821228D01*
X119613816Y-109833942D01*
X119517121Y-109711412D01*
X119493708Y-109562528D01*
X119620174Y-109562528D01*
X119620792Y-109691271D01*
X119656867Y-109753380D01*
X119720107Y-109690938D01*
X119748132Y-109599700D01*
X119715202Y-109518055D01*
X119635890Y-109537270D01*
X119620174Y-109562528D01*
X119493708Y-109562528D01*
X119479545Y-109472467D01*
X119488717Y-109288042D01*
X119497088Y-109267532D01*
X119603247Y-109267532D01*
X119605643Y-109287244D01*
X119685714Y-109350000D01*
X119705426Y-109347604D01*
X119768182Y-109267532D01*
X119765785Y-109247821D01*
X119685714Y-109185065D01*
X119666003Y-109187461D01*
X119603247Y-109267532D01*
X119497088Y-109267532D01*
X119539207Y-109164336D01*
X119655088Y-109118790D01*
X119730817Y-109115708D01*
X119822659Y-109178662D01*
X119846144Y-109267532D01*
X119872217Y-109366193D01*
G37*
G36*
X120449489Y-109366193D02*
G01*
X120451006Y-109376608D01*
X120453073Y-109594669D01*
X120451475Y-109599700D01*
X120405232Y-109745258D01*
X120322853Y-109821228D01*
X120191089Y-109833942D01*
X120094394Y-109711412D01*
X120070981Y-109562528D01*
X120197447Y-109562528D01*
X120198064Y-109691271D01*
X120234139Y-109753380D01*
X120297380Y-109690938D01*
X120325405Y-109599700D01*
X120292475Y-109518055D01*
X120213163Y-109537270D01*
X120197447Y-109562528D01*
X120070981Y-109562528D01*
X120056818Y-109472467D01*
X120065990Y-109288042D01*
X120074361Y-109267532D01*
X120180520Y-109267532D01*
X120182916Y-109287244D01*
X120262987Y-109350000D01*
X120282699Y-109347604D01*
X120345455Y-109267532D01*
X120343058Y-109247821D01*
X120262987Y-109185065D01*
X120243275Y-109187461D01*
X120180520Y-109267532D01*
X120074361Y-109267532D01*
X120116480Y-109164336D01*
X120232361Y-109118790D01*
X120308090Y-109115708D01*
X120399932Y-109178662D01*
X120423417Y-109267532D01*
X120449489Y-109366193D01*
G37*
G36*
X120757792Y-113441234D02*
G01*
X120757788Y-113441762D01*
X120686114Y-113492164D01*
X120510390Y-113490968D01*
X120325625Y-113489514D01*
X120257191Y-113567101D01*
X120237774Y-113600413D01*
X120185979Y-113514610D01*
X120159532Y-113407176D01*
X120184207Y-113308253D01*
X120195494Y-113297192D01*
X120244129Y-113187942D01*
X120381292Y-113187942D01*
X120391395Y-113316058D01*
X120416959Y-113343974D01*
X120552200Y-113390909D01*
X120600913Y-113382431D01*
X120625635Y-113309655D01*
X120575294Y-113128574D01*
X120566847Y-113104396D01*
X120506033Y-112950353D01*
X120464948Y-112937977D01*
X120414489Y-113053723D01*
X120381292Y-113187942D01*
X120244129Y-113187942D01*
X120252917Y-113168202D01*
X120305830Y-112957766D01*
X120317681Y-112900354D01*
X120372549Y-112720977D01*
X120425896Y-112648701D01*
X120481446Y-112710579D01*
X120567171Y-112876607D01*
X120657438Y-113091058D01*
X120728795Y-113297933D01*
X120731167Y-113309655D01*
X120757792Y-113441234D01*
G37*
G36*
X127953084Y-102604344D02*
G01*
X128122589Y-102616064D01*
X128366122Y-102658336D01*
X128451126Y-102721684D01*
X128375599Y-102802911D01*
X128137539Y-102898822D01*
X127905830Y-102974253D01*
X127717286Y-103048749D01*
X127670876Y-103106033D01*
X127757644Y-103164286D01*
X127968637Y-103241685D01*
X128120078Y-103299881D01*
X128317468Y-103399186D01*
X128408464Y-103479613D01*
X128380122Y-103531540D01*
X128223068Y-103560438D01*
X127918723Y-103562018D01*
X127396429Y-103546763D01*
X127850000Y-103511744D01*
X128303571Y-103476726D01*
X127896298Y-103336023D01*
X127744013Y-103278223D01*
X127549250Y-103184445D01*
X127461489Y-103112714D01*
X127478555Y-103073678D01*
X127608515Y-102988476D01*
X127827529Y-102899238D01*
X128221104Y-102768367D01*
X127829383Y-102760482D01*
X127699892Y-102752995D01*
X127511658Y-102718069D01*
X127437662Y-102666195D01*
X127474470Y-102631256D01*
X127650870Y-102602993D01*
X127953084Y-102604344D01*
G37*
G36*
X122352287Y-113431508D02*
G01*
X122429774Y-113622869D01*
X122441875Y-113713536D01*
X122398651Y-113713561D01*
X122314392Y-113617008D01*
X122239074Y-113528987D01*
X122059516Y-113469642D01*
X121873546Y-113526311D01*
X121743054Y-113690983D01*
X121672554Y-113830693D01*
X121616509Y-113864777D01*
X121607999Y-113803657D01*
X121633633Y-113623428D01*
X121689358Y-113379492D01*
X121728694Y-113240134D01*
X121851771Y-113240134D01*
X121860022Y-113360728D01*
X121985187Y-113390909D01*
X122089756Y-113378340D01*
X122156818Y-113329058D01*
X122151592Y-113299747D01*
X122100215Y-113176484D01*
X122021174Y-113038938D01*
X121947979Y-112941195D01*
X121914134Y-112937338D01*
X121901723Y-113024020D01*
X121860360Y-113205357D01*
X121851771Y-113240134D01*
X121728694Y-113240134D01*
X121761241Y-113124827D01*
X121835352Y-112912413D01*
X121897759Y-112795228D01*
X121955793Y-112800204D01*
X122074607Y-112932263D01*
X122232079Y-113192120D01*
X122300842Y-113329058D01*
X122352287Y-113431508D01*
G37*
G36*
X127082034Y-97118375D02*
G01*
X126885978Y-97325624D01*
X126885064Y-97326553D01*
X126685329Y-97518555D01*
X126532789Y-97645321D01*
X126460402Y-97679449D01*
X126471363Y-97612783D01*
X126565087Y-97482041D01*
X126579360Y-97465952D01*
X126662218Y-97314363D01*
X126616659Y-97151665D01*
X126527083Y-97046351D01*
X126367550Y-96979870D01*
X126318118Y-96972984D01*
X126661184Y-96972984D01*
X126668726Y-97111634D01*
X126723437Y-97202060D01*
X126826420Y-97203132D01*
X126984091Y-97062338D01*
X127071353Y-96959702D01*
X127068928Y-96905997D01*
X126928149Y-96897403D01*
X126786011Y-96907119D01*
X126661184Y-96972984D01*
X126318118Y-96972984D01*
X126275937Y-96967108D01*
X126159416Y-96897403D01*
X126192912Y-96855785D01*
X126373160Y-96825518D01*
X126690588Y-96814935D01*
X126717637Y-96814998D01*
X126998327Y-96823916D01*
X127197204Y-96844971D01*
X127272727Y-96873953D01*
X127221189Y-96955624D01*
X127217702Y-96959702D01*
X127082034Y-97118375D01*
G37*
G36*
X128110329Y-100242045D02*
G01*
X127975676Y-100373266D01*
X127767533Y-100524399D01*
X127621281Y-100615730D01*
X127433655Y-100723763D01*
X127334578Y-100768083D01*
X127272675Y-100737705D01*
X127299165Y-100653026D01*
X127401952Y-100576500D01*
X127407474Y-100574271D01*
X127505557Y-100460648D01*
X127510189Y-100290585D01*
X127504548Y-100278571D01*
X127602597Y-100278571D01*
X127619791Y-100397397D01*
X127701984Y-100429294D01*
X127869335Y-100329645D01*
X127955851Y-100234636D01*
X127927875Y-100146917D01*
X127753788Y-100113636D01*
X127661701Y-100139509D01*
X127602597Y-100278571D01*
X127504548Y-100278571D01*
X127434932Y-100130310D01*
X127293344Y-100046050D01*
X127237718Y-100032580D01*
X127130949Y-99968394D01*
X127097233Y-99898396D01*
X127169643Y-99869728D01*
X127169780Y-99869736D01*
X127384186Y-99901362D01*
X127638668Y-99965164D01*
X127882833Y-100044724D01*
X128066287Y-100123622D01*
X128138636Y-100185439D01*
X128114034Y-100234636D01*
X128110329Y-100242045D01*
G37*
G36*
X127370664Y-104907287D02*
G01*
X127390426Y-105025884D01*
X127376746Y-105233910D01*
X127365543Y-105321069D01*
X127358160Y-105488085D01*
X127405771Y-105548206D01*
X127528911Y-105543163D01*
X127604632Y-105525894D01*
X127711356Y-105433530D01*
X127762042Y-105226623D01*
X127797786Y-104937987D01*
X127844510Y-105267059D01*
X127846519Y-105280805D01*
X127917037Y-105526046D01*
X128035552Y-105623593D01*
X128062587Y-105627413D01*
X128154702Y-105586154D01*
X128181133Y-105418222D01*
X128201705Y-105234887D01*
X128262338Y-105061688D01*
X128273909Y-105043979D01*
X128330540Y-104983262D01*
X128343542Y-105071997D01*
X128329901Y-105237581D01*
X128293263Y-105463718D01*
X128272540Y-105553894D01*
X128218455Y-105662672D01*
X128111686Y-105711319D01*
X127915582Y-105710734D01*
X127593491Y-105671817D01*
X127231494Y-105622206D01*
X127260414Y-105259479D01*
X127271396Y-105156259D01*
X127309843Y-104970394D01*
X127355651Y-104896753D01*
X127370664Y-104907287D01*
G37*
G36*
X116983765Y-95450614D02*
G01*
X117207147Y-95632114D01*
X117322915Y-95856295D01*
X117300253Y-96103068D01*
X117112919Y-96340747D01*
X117098801Y-96352951D01*
X116962164Y-96458878D01*
X116860573Y-96470230D01*
X116710413Y-96399135D01*
X116699326Y-96393093D01*
X116598028Y-96294903D01*
X116636269Y-96151732D01*
X116706197Y-96054822D01*
X116812350Y-95990260D01*
X116852881Y-96009953D01*
X116800161Y-96112985D01*
X116799279Y-96114049D01*
X116744630Y-96222005D01*
X116832347Y-96287146D01*
X116941443Y-96310054D01*
X117091023Y-96254818D01*
X117172902Y-96111386D01*
X117180285Y-95922620D01*
X117106377Y-95731378D01*
X116944380Y-95580523D01*
X116861336Y-95540682D01*
X116637797Y-95517820D01*
X116476242Y-95644880D01*
X116385871Y-95916332D01*
X116363421Y-96041446D01*
X116328217Y-96114525D01*
X116283371Y-96046886D01*
X116274114Y-95881126D01*
X116348481Y-95655166D01*
X116501284Y-95478648D01*
X116733201Y-95399869D01*
X116983765Y-95450614D01*
G37*
G36*
X120398788Y-92362242D02*
G01*
X120484096Y-92524853D01*
X120579400Y-92772609D01*
X120650625Y-93012667D01*
X120689531Y-93214647D01*
X120679023Y-93307779D01*
X120652266Y-93301190D01*
X120586165Y-93188137D01*
X120518735Y-92979171D01*
X120487861Y-92863697D01*
X120429021Y-92681099D01*
X120389715Y-92609091D01*
X120360034Y-92654052D01*
X120293470Y-92818706D01*
X120210907Y-93062662D01*
X120143218Y-93258200D01*
X120062200Y-93444325D01*
X120006376Y-93516234D01*
X119964846Y-93467604D01*
X119894755Y-93304391D01*
X119818732Y-93077444D01*
X119752906Y-92840439D01*
X119713403Y-92647054D01*
X119716352Y-92550964D01*
X119731557Y-92553075D01*
X119788444Y-92652304D01*
X119857987Y-92848465D01*
X119886253Y-92936574D01*
X119958819Y-93115274D01*
X120013048Y-93186364D01*
X120040826Y-93156391D01*
X120103387Y-93006951D01*
X120172502Y-92774212D01*
X120215136Y-92622801D01*
X120288050Y-92418290D01*
X120345404Y-92320486D01*
X120398788Y-92362242D01*
G37*
G36*
X123723993Y-92743025D02*
G01*
X123900257Y-92820518D01*
X124068665Y-92916507D01*
X124165615Y-93000225D01*
X124156069Y-93074307D01*
X124081972Y-93255580D01*
X123957619Y-93494018D01*
X123712510Y-93925374D01*
X123390332Y-93741421D01*
X123298401Y-93686027D01*
X123133241Y-93566912D01*
X123067518Y-93487471D01*
X123074910Y-93475805D01*
X123172349Y-93495010D01*
X123346896Y-93582686D01*
X123420552Y-93624154D01*
X123605994Y-93693266D01*
X123717999Y-93656806D01*
X123800268Y-93528652D01*
X123755196Y-93388597D01*
X123547493Y-93262951D01*
X123506832Y-93245148D01*
X123383897Y-93169230D01*
X123385200Y-93121492D01*
X123507873Y-93134673D01*
X123685131Y-93219844D01*
X123806983Y-93292690D01*
X123898066Y-93296144D01*
X123972509Y-93189198D01*
X124008832Y-93095145D01*
X123969578Y-92998616D01*
X123802812Y-92894480D01*
X123767196Y-92875443D01*
X123624134Y-92780664D01*
X123587595Y-92720630D01*
X123603475Y-92714792D01*
X123723993Y-92743025D01*
G37*
G36*
X128379275Y-101982910D02*
G01*
X128235994Y-102065893D01*
X127973701Y-102202663D01*
X127879441Y-102250256D01*
X127635708Y-102361639D01*
X127486287Y-102411231D01*
X127448769Y-102394753D01*
X127540747Y-102307929D01*
X127638929Y-102187283D01*
X127685948Y-101991144D01*
X127672542Y-101930510D01*
X127767533Y-101930510D01*
X127793979Y-102041715D01*
X127910925Y-102080705D01*
X128138636Y-102013445D01*
X128200509Y-101986876D01*
X128253197Y-101940679D01*
X128159253Y-101895540D01*
X127993072Y-101839680D01*
X127841605Y-101804704D01*
X127779509Y-101833812D01*
X127767533Y-101930510D01*
X127672542Y-101930510D01*
X127645614Y-101808713D01*
X127520130Y-101704414D01*
X127423723Y-101666805D01*
X127355195Y-101595994D01*
X127355778Y-101593426D01*
X127436980Y-101589731D01*
X127621193Y-101624457D01*
X127859442Y-101684316D01*
X128102751Y-101756020D01*
X128302147Y-101826282D01*
X128408654Y-101881814D01*
X128421301Y-101895321D01*
X128431670Y-101932968D01*
X128423580Y-101940679D01*
X128379275Y-101982910D01*
G37*
G36*
X115397403Y-101697567D02*
G01*
X115500090Y-101779047D01*
X115597996Y-101952780D01*
X115602038Y-101964428D01*
X115626847Y-102164021D01*
X115523364Y-102337762D01*
X115405890Y-102450353D01*
X115312251Y-102505195D01*
X115208819Y-102447247D01*
X115087893Y-102275852D01*
X114995464Y-102041652D01*
X114927775Y-101878670D01*
X114836294Y-101782120D01*
X114781221Y-101779157D01*
X114697472Y-101862565D01*
X114673015Y-102018101D01*
X114724647Y-102185130D01*
X114806967Y-102341111D01*
X114799018Y-102400697D01*
X114692217Y-102336765D01*
X114613773Y-102215288D01*
X114589133Y-101976180D01*
X114603439Y-101875016D01*
X114669653Y-101751975D01*
X114820130Y-101721753D01*
X114903154Y-101729097D01*
X115028031Y-101808709D01*
X115119400Y-102010390D01*
X115132310Y-102047998D01*
X115238564Y-102246485D01*
X115352266Y-102329811D01*
X115442880Y-102289080D01*
X115479870Y-102115397D01*
X115453343Y-101929021D01*
X115376786Y-101769172D01*
X115371800Y-101763864D01*
X115318675Y-101688265D01*
X115397403Y-101697567D01*
G37*
G36*
X116000465Y-106900584D02*
G01*
X116056421Y-106968508D01*
X116093353Y-107102760D01*
X116138953Y-107284810D01*
X116193595Y-107484191D01*
X116206446Y-107570756D01*
X116157794Y-107588186D01*
X116150567Y-107582805D01*
X116080583Y-107460183D01*
X116023076Y-107256280D01*
X115989726Y-107115690D01*
X115921054Y-107016542D01*
X115798705Y-107019900D01*
X115708760Y-107056139D01*
X115657480Y-107153679D01*
X115674191Y-107354978D01*
X115685428Y-107483200D01*
X115658550Y-107566601D01*
X115603236Y-107513418D01*
X115548596Y-107329545D01*
X115506573Y-107234869D01*
X115355039Y-107164610D01*
X115282710Y-107168080D01*
X115218257Y-107206835D01*
X115215421Y-107322517D01*
X115264699Y-107556331D01*
X115280897Y-107714663D01*
X115244347Y-107783117D01*
X115201192Y-107743830D01*
X115138580Y-107591013D01*
X115088205Y-107378988D01*
X115067533Y-107168466D01*
X115098541Y-107123928D01*
X115250375Y-107044385D01*
X115486162Y-106972605D01*
X115673254Y-106929800D01*
X115885927Y-106890507D01*
X116000465Y-106900584D01*
G37*
G36*
X117892691Y-110879706D02*
G01*
X117803262Y-111084636D01*
X117683729Y-111184139D01*
X117503654Y-111220745D01*
X117355619Y-111150327D01*
X117294156Y-110983696D01*
X117293653Y-110949889D01*
X117276524Y-110896266D01*
X117391505Y-110896266D01*
X117404158Y-111037280D01*
X117522078Y-111081818D01*
X117613207Y-111073487D01*
X117733983Y-111026840D01*
X117762990Y-110974052D01*
X117788961Y-110814935D01*
X117787271Y-110788233D01*
X117718792Y-110686977D01*
X117591748Y-110679059D01*
X117463524Y-110752736D01*
X117391505Y-110896266D01*
X117276524Y-110896266D01*
X117265998Y-110863312D01*
X117170455Y-110916883D01*
X117065671Y-111055120D01*
X117071840Y-111207798D01*
X117210761Y-111305083D01*
X117300458Y-111345893D01*
X117329457Y-111421287D01*
X117247923Y-111461550D01*
X117123303Y-111406039D01*
X117012279Y-111280916D01*
X116964286Y-111126136D01*
X116992741Y-111001877D01*
X117136937Y-110802829D01*
X117354630Y-110648825D01*
X117591012Y-110587013D01*
X117683268Y-110597489D01*
X117846017Y-110701671D01*
X117875711Y-110814935D01*
X117892691Y-110879706D01*
G37*
G36*
X127235084Y-106011904D02*
G01*
X127219646Y-106202886D01*
X127202408Y-106325895D01*
X127195711Y-106483389D01*
X127243647Y-106538724D01*
X127364109Y-106532756D01*
X127521756Y-106461767D01*
X127587458Y-106278084D01*
X127621899Y-106122567D01*
X127673983Y-106051299D01*
X127682077Y-106054113D01*
X127707869Y-106150006D01*
X127700717Y-106339935D01*
X127689511Y-106506116D01*
X127726383Y-106605735D01*
X127840978Y-106628571D01*
X127968237Y-106592511D01*
X128016198Y-106443019D01*
X128032433Y-106316403D01*
X128105609Y-106133766D01*
X128141111Y-106091749D01*
X128166543Y-106117960D01*
X128145580Y-106288393D01*
X128143507Y-106300470D01*
X128110875Y-106523828D01*
X128097403Y-106680114D01*
X128095402Y-106726265D01*
X128068490Y-106774200D01*
X127982518Y-106785111D01*
X127803342Y-106760155D01*
X127496821Y-106700492D01*
X127458446Y-106692774D01*
X127215113Y-106638286D01*
X127094560Y-106582674D01*
X127061856Y-106496420D01*
X127082071Y-106350005D01*
X127108772Y-106224327D01*
X127165374Y-106037889D01*
X127212236Y-105961993D01*
X127235084Y-106011904D01*
G37*
G36*
X128419638Y-104239586D02*
G01*
X128392012Y-104531213D01*
X128391002Y-104535229D01*
X128351679Y-104651498D01*
X128280610Y-104706725D01*
X128133898Y-104713852D01*
X127867649Y-104685823D01*
X127754547Y-104671484D01*
X127493055Y-104630469D01*
X127373329Y-104597254D01*
X127402788Y-104575003D01*
X127588853Y-104566883D01*
X127784752Y-104525362D01*
X127852090Y-104409759D01*
X127840728Y-104381331D01*
X127933730Y-104381331D01*
X127960692Y-104508107D01*
X128087784Y-104566883D01*
X128177709Y-104543122D01*
X128279162Y-104416702D01*
X128297431Y-104238137D01*
X128215665Y-104072566D01*
X128180362Y-104038410D01*
X128089437Y-103990832D01*
X128013216Y-104072078D01*
X127968846Y-104174492D01*
X127933730Y-104381331D01*
X127840728Y-104381331D01*
X127784412Y-104240424D01*
X127581981Y-104037736D01*
X127510994Y-103977969D01*
X127415060Y-103869143D01*
X127431169Y-103825590D01*
X127545454Y-103859268D01*
X127711237Y-103968993D01*
X127720018Y-103976708D01*
X127847878Y-104058058D01*
X127910155Y-104010227D01*
X127977668Y-103945109D01*
X128143938Y-103907143D01*
X128202226Y-103913689D01*
X128351927Y-104022552D01*
X128419186Y-104238137D01*
X128419638Y-104239586D01*
G37*
G36*
X126907877Y-96114377D02*
G01*
X126931237Y-96190696D01*
X126877847Y-96226954D01*
X126716892Y-96329327D01*
X126663409Y-96362580D01*
X126491642Y-96469377D01*
X126081660Y-96722053D01*
X125935529Y-96500475D01*
X125832716Y-96305892D01*
X125788855Y-96144676D01*
X125794052Y-96127232D01*
X125903027Y-96127232D01*
X125952335Y-96318426D01*
X126049202Y-96433753D01*
X126199681Y-96482644D01*
X126323297Y-96404302D01*
X126337760Y-96362580D01*
X126306902Y-96207146D01*
X126205447Y-96057334D01*
X126078914Y-95990260D01*
X125980005Y-96010823D01*
X125903027Y-96127232D01*
X125794052Y-96127232D01*
X125832007Y-95999844D01*
X125848877Y-95985029D01*
X126365584Y-95985029D01*
X126369432Y-96039915D01*
X126440747Y-96200136D01*
X126565583Y-96262355D01*
X126695894Y-96195899D01*
X126721041Y-96163173D01*
X126749589Y-96048653D01*
X126654581Y-95908190D01*
X126517053Y-95801188D01*
X126407015Y-95821154D01*
X126365584Y-95985029D01*
X125848877Y-95985029D01*
X125969120Y-95879432D01*
X126138321Y-95869875D01*
X126208371Y-95876905D01*
X126311121Y-95788830D01*
X126326835Y-95754247D01*
X126442274Y-95666613D01*
X126601161Y-95721324D01*
X126781303Y-95912540D01*
X126812802Y-95957857D01*
X126867954Y-96048653D01*
X126907877Y-96114377D01*
G37*
G36*
X125357352Y-110711183D02*
G01*
X125610066Y-110887041D01*
X125783922Y-111026133D01*
X125950937Y-111159324D01*
X126028842Y-111220859D01*
X126034677Y-111227290D01*
X126007900Y-111302057D01*
X126007639Y-111302314D01*
X125914060Y-111293273D01*
X125767370Y-111195059D01*
X125615301Y-111063466D01*
X125433731Y-110917944D01*
X125357605Y-110883647D01*
X125378033Y-110958902D01*
X125486125Y-111142030D01*
X125496060Y-111157875D01*
X125645509Y-111423788D01*
X125707439Y-111597130D01*
X125674979Y-111659091D01*
X125650386Y-111653604D01*
X125508636Y-111609109D01*
X125291011Y-111534509D01*
X125184439Y-111498234D01*
X124999609Y-111443341D01*
X124917091Y-111431425D01*
X124921160Y-111443932D01*
X125008542Y-111528140D01*
X125175087Y-111659091D01*
X125242032Y-111710355D01*
X125394294Y-111844044D01*
X125456171Y-111927110D01*
X125449336Y-111967772D01*
X125378834Y-111973837D01*
X125221430Y-111874777D01*
X124963723Y-111663415D01*
X124802240Y-111512257D01*
X124676209Y-111364630D01*
X124650000Y-111285497D01*
X124694416Y-111273898D01*
X124862063Y-111295040D01*
X125096853Y-111360939D01*
X125236272Y-111405555D01*
X125429655Y-111455238D01*
X125519838Y-111460249D01*
X125518114Y-111429269D01*
X125454555Y-111293326D01*
X125333109Y-111094145D01*
X125227581Y-110918762D01*
X125159086Y-110732295D01*
X125204684Y-110661351D01*
X125357352Y-110711183D01*
G37*
G36*
X123189704Y-112976076D02*
G01*
X123200094Y-113005586D01*
X123273332Y-113231001D01*
X123282999Y-113260753D01*
X123301752Y-113408579D01*
X123251836Y-113491831D01*
X123128734Y-113553274D01*
X122991817Y-113598682D01*
X122808961Y-113633084D01*
X122647045Y-113581317D01*
X122530035Y-113434372D01*
X122529474Y-113420217D01*
X122679792Y-113420217D01*
X122739944Y-113523167D01*
X122842918Y-113539679D01*
X123039860Y-113473176D01*
X123160848Y-113388997D01*
X123174560Y-113231001D01*
X123120490Y-113115246D01*
X122985532Y-113070080D01*
X122780609Y-113172815D01*
X122698039Y-113261180D01*
X122679792Y-113420217D01*
X122529474Y-113420217D01*
X122523041Y-113257805D01*
X122536440Y-113177260D01*
X122481807Y-113010403D01*
X122448910Y-112964231D01*
X122441480Y-112901661D01*
X122572078Y-112901661D01*
X122597142Y-113011217D01*
X122702018Y-113045623D01*
X122922565Y-113004192D01*
X122994575Y-112980074D01*
X123060028Y-112897117D01*
X122993449Y-112742961D01*
X122927420Y-112685684D01*
X122776348Y-112678260D01*
X122634730Y-112758979D01*
X122572078Y-112901661D01*
X122441480Y-112901661D01*
X122430529Y-112809447D01*
X122569994Y-112667576D01*
X122870821Y-112534314D01*
X123264831Y-112400061D01*
X123578195Y-112706053D01*
X123703639Y-112822952D01*
X123833497Y-112910431D01*
X123890216Y-112872956D01*
X123881651Y-112699742D01*
X123815656Y-112380005D01*
X123785740Y-112224595D01*
X123795044Y-112077277D01*
X123879474Y-111993118D01*
X123975767Y-111972042D01*
X124119079Y-112037953D01*
X124326665Y-112218801D01*
X124355757Y-112246875D01*
X124543895Y-112408927D01*
X124672117Y-112464498D01*
X124780236Y-112432331D01*
X124811466Y-112411051D01*
X124933065Y-112238388D01*
X124901947Y-112024977D01*
X124719533Y-111785953D01*
X124661145Y-111727741D01*
X124523749Y-111567274D01*
X124468831Y-111463298D01*
X124469983Y-111455909D01*
X124530767Y-111468375D01*
X124657258Y-111565298D01*
X124812264Y-111711908D01*
X124958596Y-111873434D01*
X125059062Y-112015108D01*
X125087085Y-112136596D01*
X125029020Y-112334899D01*
X124885964Y-112498304D01*
X124697642Y-112566234D01*
X124635228Y-112555257D01*
X124442074Y-112459819D01*
X124234741Y-112298214D01*
X123951564Y-112030195D01*
X124178983Y-112425641D01*
X124290963Y-112635513D01*
X124358968Y-112807165D01*
X124346198Y-112856829D01*
X124258953Y-112774206D01*
X124103533Y-112548993D01*
X124099437Y-112542438D01*
X123990833Y-112373506D01*
X123932002Y-112307798D01*
X123918973Y-112359859D01*
X123947777Y-112544240D01*
X124014444Y-112875487D01*
X124025331Y-112943976D01*
X124013343Y-113103800D01*
X123948066Y-113153154D01*
X123852698Y-113064879D01*
X123841990Y-113050406D01*
X123725840Y-112941240D01*
X123545135Y-112801849D01*
X123286167Y-112617448D01*
X123479829Y-112962022D01*
X123541046Y-113078409D01*
X123616991Y-113261326D01*
X123625766Y-113354320D01*
X123581295Y-113332279D01*
X123479422Y-113199763D01*
X123350365Y-112983726D01*
X123273085Y-112845392D01*
X123152614Y-112655455D01*
X123097116Y-112613855D01*
X123108758Y-112720694D01*
X123164677Y-112897117D01*
X123189704Y-112976076D01*
G37*
G36*
X128949337Y-103041234D02*
G01*
X128948142Y-103389585D01*
X128933249Y-104148478D01*
X128896915Y-104807305D01*
X128833602Y-105411756D01*
X128737773Y-106007522D01*
X128603891Y-106640292D01*
X128426417Y-107355757D01*
X128199670Y-108138235D01*
X127726094Y-109388118D01*
X127142504Y-110523749D01*
X126443424Y-111555164D01*
X125623377Y-112492398D01*
X125562862Y-112553298D01*
X124914245Y-113151952D01*
X124290853Y-113616116D01*
X123661099Y-113963485D01*
X122993396Y-114211751D01*
X122256157Y-114378610D01*
X122109419Y-114401000D01*
X121250641Y-114438206D01*
X120403931Y-114319819D01*
X119577131Y-114053801D01*
X118778087Y-113648113D01*
X118014642Y-113110717D01*
X117294642Y-112449574D01*
X116625930Y-111672648D01*
X116016351Y-110787900D01*
X115473750Y-109803291D01*
X115005969Y-108726784D01*
X114620855Y-107566340D01*
X114326251Y-106329921D01*
X114248794Y-105901409D01*
X114075874Y-104535521D01*
X114012377Y-103179825D01*
X114030439Y-102597791D01*
X114163232Y-102597791D01*
X114188582Y-104107472D01*
X114336631Y-105588334D01*
X114607380Y-106999675D01*
X114738020Y-107496961D01*
X115131688Y-108685056D01*
X115615625Y-109790777D01*
X116181228Y-110802722D01*
X116819893Y-111709494D01*
X117523018Y-112499690D01*
X118281999Y-113161912D01*
X119088233Y-113684759D01*
X119933117Y-114056831D01*
X120009023Y-114081091D01*
X120491514Y-114188045D01*
X121057280Y-114253972D01*
X121646353Y-114276187D01*
X122198765Y-114252004D01*
X122654545Y-114178735D01*
X123219065Y-114000632D01*
X124071629Y-113594827D01*
X124878317Y-113042279D01*
X125631889Y-112351929D01*
X126325105Y-111532719D01*
X126950722Y-110593590D01*
X127501500Y-109543484D01*
X127970199Y-108391342D01*
X128349576Y-107146108D01*
X128610565Y-105910097D01*
X128785932Y-104475459D01*
X128841173Y-103009033D01*
X128777729Y-101541218D01*
X128597038Y-100102414D01*
X128300541Y-98723022D01*
X127889676Y-97433442D01*
X127432107Y-96374129D01*
X126863144Y-95344647D01*
X126217378Y-94421633D01*
X125504839Y-93616348D01*
X124735557Y-92940051D01*
X123919561Y-92404002D01*
X123066883Y-92019461D01*
X122808678Y-91945126D01*
X122258178Y-91854150D01*
X121639198Y-91816095D01*
X121007913Y-91830962D01*
X120420494Y-91898751D01*
X119933117Y-92019461D01*
X119688920Y-92111987D01*
X118835883Y-92544138D01*
X118028704Y-93123500D01*
X117275573Y-93839211D01*
X116584681Y-94680406D01*
X115964219Y-95636225D01*
X115422377Y-96695804D01*
X114967346Y-97848281D01*
X114607315Y-99082792D01*
X114480632Y-99654773D01*
X114260582Y-101099991D01*
X114163232Y-102597791D01*
X114030439Y-102597791D01*
X114053780Y-101845614D01*
X114195561Y-100544176D01*
X114433197Y-99286803D01*
X114762167Y-98084786D01*
X115177949Y-96949414D01*
X115676020Y-95891979D01*
X116251859Y-94923771D01*
X116900943Y-94056080D01*
X117618749Y-93300197D01*
X118400757Y-92667414D01*
X119242443Y-92169019D01*
X120139286Y-91816305D01*
X120194052Y-91800766D01*
X120674036Y-91711971D01*
X121242387Y-91669127D01*
X121837412Y-91672235D01*
X122397419Y-91721294D01*
X122860714Y-91816305D01*
X123268395Y-91955854D01*
X124136981Y-92375602D01*
X124959093Y-92941735D01*
X125726577Y-93644020D01*
X126431278Y-94472228D01*
X127065039Y-95416127D01*
X127619706Y-96465488D01*
X128087125Y-97610078D01*
X128459139Y-98839667D01*
X128511597Y-99049263D01*
X128667576Y-99722747D01*
X128783233Y-100332012D01*
X128863905Y-100922775D01*
X128914923Y-101540755D01*
X128941623Y-102231669D01*
X128949030Y-103009033D01*
X128949337Y-103041234D01*
G37*
G36*
X126935077Y-103156517D02*
G01*
X126919976Y-103915769D01*
X126881618Y-104615431D01*
X126820001Y-105203654D01*
X126653719Y-106155539D01*
X126367074Y-107291769D01*
X126001343Y-108342325D01*
X125563166Y-109296348D01*
X125059183Y-110142981D01*
X124496034Y-110871366D01*
X123880358Y-111470645D01*
X123218796Y-111929959D01*
X122517987Y-112238452D01*
X122058432Y-112351743D01*
X121347307Y-112396693D01*
X120649163Y-112286505D01*
X119971529Y-112027147D01*
X119321932Y-111624587D01*
X118707902Y-111084792D01*
X118136966Y-110413731D01*
X117616654Y-109617370D01*
X117154494Y-108701678D01*
X116758014Y-107672621D01*
X116604220Y-107198665D01*
X116442312Y-106649140D01*
X116318707Y-106142467D01*
X116228523Y-105644057D01*
X116166878Y-105119319D01*
X116128890Y-104533662D01*
X116109677Y-103852497D01*
X116105223Y-103173183D01*
X116369907Y-103173183D01*
X116387370Y-103961684D01*
X116431278Y-104690746D01*
X116501643Y-105309091D01*
X116658330Y-106162691D01*
X116947672Y-107276976D01*
X117315359Y-108305407D01*
X117754407Y-109235482D01*
X118257832Y-110054702D01*
X118818649Y-110750564D01*
X119429876Y-111310570D01*
X120084528Y-111722217D01*
X120138639Y-111748839D01*
X120467063Y-111898372D01*
X120739954Y-111986698D01*
X121030760Y-112032098D01*
X121412930Y-112052852D01*
X121738472Y-112057676D01*
X122046335Y-112038608D01*
X122305836Y-111982939D01*
X122580974Y-111881270D01*
X122731966Y-111816359D01*
X123132964Y-111619687D01*
X123470707Y-111401908D01*
X123798220Y-111125309D01*
X124168530Y-110752178D01*
X124397399Y-110495055D01*
X124979888Y-109690506D01*
X125487504Y-108756297D01*
X125913426Y-107708331D01*
X126250829Y-106562510D01*
X126492890Y-105334737D01*
X126515917Y-105170005D01*
X126580059Y-104502282D01*
X126617366Y-103739916D01*
X126627789Y-102934374D01*
X126611279Y-102137125D01*
X126567786Y-101399636D01*
X126497260Y-100773377D01*
X126388813Y-100150347D01*
X126112943Y-99008317D01*
X125754346Y-97950899D01*
X125319929Y-96990605D01*
X124816601Y-96139948D01*
X124251272Y-95411440D01*
X123630848Y-94817594D01*
X122962240Y-94370922D01*
X122828775Y-94300047D01*
X122588318Y-94181351D01*
X122385972Y-94108287D01*
X122170977Y-94069793D01*
X121892573Y-94054809D01*
X121500000Y-94052273D01*
X121306832Y-94052577D01*
X120971663Y-94059321D01*
X120727931Y-94083465D01*
X120524877Y-94136073D01*
X120311740Y-94228204D01*
X120037760Y-94370922D01*
X119726861Y-94555523D01*
X119073218Y-95074543D01*
X118473387Y-95735731D01*
X117933689Y-96527640D01*
X117460442Y-97438825D01*
X117059967Y-98457840D01*
X116738582Y-99573239D01*
X116502609Y-100773575D01*
X116476079Y-100963842D01*
X116414273Y-101622983D01*
X116378878Y-102376523D01*
X116369907Y-103173183D01*
X116105223Y-103173183D01*
X116104358Y-103041234D01*
X116104574Y-102747037D01*
X116107485Y-102142583D01*
X116115259Y-101662256D01*
X116129738Y-101277231D01*
X116152767Y-100958683D01*
X116186189Y-100677785D01*
X116231847Y-100405711D01*
X116291585Y-100113636D01*
X116438239Y-99492193D01*
X116782076Y-98342274D01*
X117192901Y-97303176D01*
X117665422Y-96381429D01*
X118194353Y-95583568D01*
X118774402Y-94916124D01*
X119400280Y-94385630D01*
X120066699Y-93998618D01*
X120768369Y-93761620D01*
X121500000Y-93681169D01*
X121800218Y-93695140D01*
X122508357Y-93840873D01*
X123188366Y-94137781D01*
X123833612Y-94576894D01*
X124437466Y-95149239D01*
X124993295Y-95845846D01*
X125494470Y-96657744D01*
X125934359Y-97575961D01*
X126306331Y-98591526D01*
X126603756Y-99695467D01*
X126820001Y-100878813D01*
X126840836Y-101039710D01*
X126895507Y-101666640D01*
X126926921Y-102389525D01*
X126932715Y-102934374D01*
X126935077Y-103156517D01*
G37*
G36*
X124440280Y-97077642D02*
G01*
X124631861Y-97238170D01*
X124698602Y-97282119D01*
X124965610Y-97565478D01*
X125093325Y-97924792D01*
X125092838Y-97934349D01*
X125072346Y-98336618D01*
X125059489Y-98394057D01*
X125026075Y-98609954D01*
X125053205Y-98742610D01*
X125150206Y-98853995D01*
X125256181Y-98965378D01*
X125389641Y-99239300D01*
X125364949Y-99522426D01*
X125339389Y-99647668D01*
X125387188Y-99803683D01*
X125539673Y-100014509D01*
X125786837Y-100314362D01*
X125755911Y-100346033D01*
X125498938Y-100609197D01*
X125258093Y-100855844D01*
X125211039Y-100904032D01*
X125211039Y-104776529D01*
X125211039Y-108649026D01*
X121500000Y-108649026D01*
X117788961Y-108649026D01*
X117788961Y-104749916D01*
X117788961Y-100855844D01*
X118118831Y-100855844D01*
X118118831Y-104525649D01*
X118118831Y-108195455D01*
X121500000Y-108195455D01*
X124881169Y-108195455D01*
X124881169Y-104525649D01*
X124881169Y-100855844D01*
X121500000Y-100855844D01*
X118118831Y-100855844D01*
X117788961Y-100855844D01*
X117788961Y-100850805D01*
X117500228Y-100597294D01*
X117252974Y-100380203D01*
X118045964Y-100380203D01*
X118084150Y-100440384D01*
X118111685Y-100450521D01*
X118233780Y-100423302D01*
X118453295Y-100327837D01*
X118780589Y-100158932D01*
X119226016Y-99911393D01*
X119516523Y-99743662D01*
X121293831Y-99743662D01*
X121324303Y-99852035D01*
X121479752Y-99933868D01*
X121522832Y-99936480D01*
X121674188Y-99877480D01*
X121740305Y-99747657D01*
X121684645Y-99605554D01*
X121665105Y-99588221D01*
X121507419Y-99541769D01*
X121359372Y-99602166D01*
X121293831Y-99743662D01*
X119516523Y-99743662D01*
X119799936Y-99580027D01*
X120053524Y-99432389D01*
X120501216Y-99174720D01*
X120891739Y-98953767D01*
X121203887Y-98781331D01*
X121416456Y-98669215D01*
X121508242Y-98629221D01*
X121518313Y-98631569D01*
X121641635Y-98689657D01*
X121878988Y-98816338D01*
X122207841Y-98999133D01*
X122605663Y-99225563D01*
X123049924Y-99483148D01*
X123124022Y-99526485D01*
X123502224Y-99747657D01*
X123661981Y-99841083D01*
X124076267Y-100082298D01*
X124383762Y-100258616D01*
X124601346Y-100378522D01*
X124745902Y-100450499D01*
X124834311Y-100483034D01*
X124883455Y-100484610D01*
X124910215Y-100463714D01*
X124931474Y-100428829D01*
X124936625Y-100346033D01*
X124833395Y-100226028D01*
X124720942Y-100150966D01*
X124525018Y-100010007D01*
X124433183Y-99907748D01*
X124420984Y-99807571D01*
X124463966Y-99672862D01*
X124503996Y-99553367D01*
X124542437Y-99197513D01*
X124433149Y-98913002D01*
X124417431Y-98892223D01*
X124312412Y-98804730D01*
X124212435Y-98854058D01*
X124195998Y-98871281D01*
X124160918Y-98975135D01*
X124252318Y-99112595D01*
X124265630Y-99127392D01*
X124342763Y-99237284D01*
X124324643Y-99337459D01*
X124202773Y-99493200D01*
X124010782Y-99716404D01*
X122858475Y-99038587D01*
X122602755Y-98887529D01*
X122235996Y-98668474D01*
X121933980Y-98485148D01*
X121722619Y-98353337D01*
X121627825Y-98288827D01*
X121631649Y-98276119D01*
X121750555Y-98252236D01*
X122001550Y-98233499D01*
X122362360Y-98221263D01*
X122810708Y-98216883D01*
X123013657Y-98217011D01*
X123438912Y-98219564D01*
X123733996Y-98227846D01*
X123924031Y-98245037D01*
X124034140Y-98274311D01*
X124089444Y-98318846D01*
X124115066Y-98381818D01*
X124136685Y-98437404D01*
X124233833Y-98531787D01*
X124337840Y-98533906D01*
X124386364Y-98432188D01*
X124350537Y-98313698D01*
X124242045Y-98143822D01*
X124220481Y-98118823D01*
X124171540Y-98075446D01*
X124101108Y-98041374D01*
X123991255Y-98015439D01*
X123824050Y-97996475D01*
X123581564Y-97983315D01*
X123245864Y-97974791D01*
X122799022Y-97969737D01*
X122223105Y-97966985D01*
X121500184Y-97965369D01*
X121047951Y-97964627D01*
X120415825Y-97964404D01*
X119919952Y-97966434D01*
X119542404Y-97971853D01*
X119265257Y-97981798D01*
X119070585Y-97997404D01*
X118940462Y-98019809D01*
X118856964Y-98050147D01*
X118802165Y-98089555D01*
X118758139Y-98139170D01*
X118662353Y-98286428D01*
X118613636Y-98432188D01*
X118621993Y-98484041D01*
X118701581Y-98544450D01*
X118815611Y-98506780D01*
X118902273Y-98381818D01*
X118913448Y-98351152D01*
X118952366Y-98297360D01*
X119031316Y-98260218D01*
X119175278Y-98236663D01*
X119409231Y-98223632D01*
X119758154Y-98218060D01*
X120247028Y-98216883D01*
X121539434Y-98216883D01*
X120275318Y-98965188D01*
X120274773Y-98965511D01*
X119822254Y-99232191D01*
X119489293Y-99423302D01*
X119254056Y-99548146D01*
X119094708Y-99616026D01*
X118989415Y-99636245D01*
X118916341Y-99618106D01*
X118853653Y-99570913D01*
X118826997Y-99544938D01*
X118719208Y-99370389D01*
X118705533Y-99204699D01*
X118793408Y-99105336D01*
X118823005Y-99086343D01*
X118845530Y-98978082D01*
X118795006Y-98853654D01*
X118696651Y-98794156D01*
X118586609Y-98865922D01*
X118513493Y-99052401D01*
X118489291Y-99305226D01*
X118524647Y-99576021D01*
X118569033Y-99786313D01*
X118554628Y-99917907D01*
X118467994Y-100006960D01*
X118415452Y-100043609D01*
X118188815Y-100207560D01*
X118073253Y-100311177D01*
X118045964Y-100380203D01*
X117252974Y-100380203D01*
X117211495Y-100343784D01*
X117453287Y-100038497D01*
X117594234Y-99837561D01*
X117660531Y-99643578D01*
X117651928Y-99408001D01*
X117637937Y-99234621D01*
X117677695Y-99053484D01*
X117812665Y-98892170D01*
X117826826Y-98878839D01*
X117946540Y-98739580D01*
X117978538Y-98593651D01*
X117941153Y-98365968D01*
X117934134Y-98332944D01*
X117921878Y-97943711D01*
X118312975Y-97943711D01*
X118320662Y-97945257D01*
X118436812Y-97920916D01*
X118659725Y-97855664D01*
X118950201Y-97760755D01*
X119127667Y-97701526D01*
X120010940Y-97450766D01*
X120825739Y-97306572D01*
X121610680Y-97269242D01*
X122404375Y-97339079D01*
X123245440Y-97516383D01*
X124172488Y-97801455D01*
X124392981Y-97877193D01*
X124592749Y-97941368D01*
X124689406Y-97959044D01*
X124713928Y-97934349D01*
X124697290Y-97871414D01*
X124684466Y-97841896D01*
X124527273Y-97682822D01*
X124234612Y-97517295D01*
X123830425Y-97353975D01*
X123338654Y-97201521D01*
X122783241Y-97068594D01*
X122188127Y-96963854D01*
X121718563Y-96912518D01*
X121292687Y-96911758D01*
X120817226Y-96963080D01*
X120611740Y-96996019D01*
X120134893Y-97093434D01*
X119659108Y-97215365D01*
X119216693Y-97351377D01*
X118839956Y-97491037D01*
X118561204Y-97623913D01*
X118412745Y-97739570D01*
X118335236Y-97866347D01*
X118312975Y-97943711D01*
X117921878Y-97943711D01*
X117921013Y-97916255D01*
X118053982Y-97560291D01*
X118326480Y-97283482D01*
X118378529Y-97243745D01*
X118575663Y-97052886D01*
X118664328Y-96951403D01*
X119140684Y-96951403D01*
X119171453Y-96975840D01*
X119281093Y-96950013D01*
X119321208Y-96938836D01*
X120267042Y-96735099D01*
X121221757Y-96636746D01*
X122142000Y-96645946D01*
X122984416Y-96764865D01*
X123026728Y-96774253D01*
X123342574Y-96846215D01*
X123602684Y-96908513D01*
X123754318Y-96948564D01*
X123823993Y-96966643D01*
X123864402Y-96939776D01*
X123804968Y-96807231D01*
X123713126Y-96660195D01*
X123473561Y-96368609D01*
X123168955Y-96068696D01*
X122833106Y-95787732D01*
X122499813Y-95552993D01*
X122202875Y-95391754D01*
X121976089Y-95331293D01*
X121840290Y-95273476D01*
X121698585Y-95124351D01*
X121552454Y-94954728D01*
X121437045Y-94939629D01*
X121358724Y-95084019D01*
X121277195Y-95205602D01*
X121098425Y-95301890D01*
X120695704Y-95447781D01*
X120201413Y-95746941D01*
X119735486Y-96153178D01*
X119335966Y-96637658D01*
X119335748Y-96637975D01*
X119193784Y-96848262D01*
X119140684Y-96951403D01*
X118664328Y-96951403D01*
X118809890Y-96784799D01*
X119041091Y-96484345D01*
X119098092Y-96406475D01*
X119513573Y-95915238D01*
X119970916Y-95486340D01*
X120434833Y-95149672D01*
X120870037Y-94935125D01*
X120898096Y-94925060D01*
X121195187Y-94776992D01*
X121342184Y-94608929D01*
X121343618Y-94605224D01*
X121446416Y-94448874D01*
X121558206Y-94454664D01*
X121662031Y-94621907D01*
X121753966Y-94757620D01*
X121985850Y-94874981D01*
X122163169Y-94929625D01*
X122558475Y-95132557D01*
X122985692Y-95438616D01*
X123412747Y-95820557D01*
X123807564Y-96251136D01*
X124138067Y-96703106D01*
X124233899Y-96840064D01*
X124320518Y-96939776D01*
X124440280Y-97077642D01*
G37*
G36*
X123479221Y-104480382D02*
G01*
X123477025Y-104595454D01*
X123458459Y-105361182D01*
X123436024Y-105963127D01*
X123416355Y-106290777D01*
X123409662Y-106402264D01*
X123379318Y-106679571D01*
X123344934Y-106796024D01*
X123341075Y-106799522D01*
X123207724Y-106855766D01*
X122963491Y-106914457D01*
X122658248Y-106963437D01*
X122330766Y-107016592D01*
X122037239Y-107085347D01*
X121844158Y-107154396D01*
X121686354Y-107234799D01*
X121558741Y-107269658D01*
X121420647Y-107242871D01*
X121200818Y-107154444D01*
X121014452Y-107091292D01*
X120687662Y-107011496D01*
X120346610Y-106953856D01*
X120156698Y-106930183D01*
X119961943Y-106896685D01*
X119811621Y-106842341D01*
X119699983Y-106749139D01*
X119621285Y-106599070D01*
X119571085Y-106379823D01*
X119603247Y-106379823D01*
X119640256Y-106451013D01*
X119757993Y-106578116D01*
X119833571Y-106643079D01*
X119913105Y-106671443D01*
X119928635Y-106644891D01*
X120015777Y-106644891D01*
X120018501Y-106740359D01*
X120083214Y-106762488D01*
X120273314Y-106799274D01*
X120537479Y-106837093D01*
X121018140Y-106896596D01*
X121002887Y-106763096D01*
X121092915Y-106763096D01*
X121107820Y-106896596D01*
X121108744Y-106904870D01*
X121174452Y-106987845D01*
X121303691Y-107058899D01*
X121439759Y-107105513D01*
X121667042Y-107108154D01*
X121842367Y-107026813D01*
X121913601Y-106877035D01*
X121923601Y-106815640D01*
X121975451Y-106841435D01*
X122019689Y-106871059D01*
X122220548Y-106896741D01*
X122562024Y-106878622D01*
X122735124Y-106855388D01*
X123102319Y-106741466D01*
X123323051Y-106553130D01*
X123396753Y-106290777D01*
X123396411Y-106256054D01*
X123378341Y-106184828D01*
X123302785Y-106198895D01*
X123128734Y-106299605D01*
X122949793Y-106390733D01*
X122720833Y-106454873D01*
X122554090Y-106441732D01*
X122489610Y-106348262D01*
X122526725Y-106263307D01*
X122677011Y-106137203D01*
X122888475Y-106029480D01*
X123101942Y-105968337D01*
X123258235Y-105981976D01*
X123263350Y-105984812D01*
X123369367Y-106009775D01*
X123396753Y-105897334D01*
X123351302Y-105744642D01*
X123221645Y-105697172D01*
X123046266Y-105786205D01*
X122988486Y-105833392D01*
X122880691Y-105866290D01*
X122752999Y-105777129D01*
X122684894Y-105719138D01*
X122584468Y-105687136D01*
X122540385Y-105721429D01*
X122470904Y-105775479D01*
X122373138Y-105853416D01*
X122273064Y-105844080D01*
X122113926Y-105732559D01*
X122094087Y-105721429D01*
X122283442Y-105721429D01*
X122300368Y-105746108D01*
X122370776Y-105803896D01*
X122379006Y-105801752D01*
X122407143Y-105721429D01*
X122403787Y-105698825D01*
X122319808Y-105638961D01*
X122289980Y-105645436D01*
X122283442Y-105721429D01*
X122094087Y-105721429D01*
X121871323Y-105596454D01*
X121607164Y-105567848D01*
X121529041Y-105607215D01*
X121392007Y-105676268D01*
X121314131Y-105739685D01*
X121234926Y-105758735D01*
X121219106Y-105752483D01*
X121187812Y-105824513D01*
X121177460Y-105924787D01*
X121168300Y-106010065D01*
X121153270Y-106149992D01*
X121122076Y-106435339D01*
X121113309Y-106515647D01*
X121092915Y-106763096D01*
X121002887Y-106763096D01*
X120991051Y-106659499D01*
X120990756Y-106656996D01*
X120919527Y-106482272D01*
X120791013Y-106390036D01*
X120656722Y-106397197D01*
X120568165Y-106520665D01*
X120557563Y-106560820D01*
X120532058Y-106622512D01*
X120519956Y-106526004D01*
X120480315Y-106431388D01*
X120329047Y-106409879D01*
X120257894Y-106430380D01*
X120217174Y-106456586D01*
X120111554Y-106524559D01*
X120015777Y-106644891D01*
X119928635Y-106644891D01*
X119964161Y-106584153D01*
X120006431Y-106456586D01*
X119969056Y-106397847D01*
X119809416Y-106360985D01*
X119672072Y-106349630D01*
X119603247Y-106379823D01*
X119571085Y-106379823D01*
X119569780Y-106374123D01*
X119539724Y-106056289D01*
X119525368Y-105627557D01*
X119520969Y-105069917D01*
X119520967Y-105064277D01*
X119603247Y-105064277D01*
X119603511Y-105211873D01*
X119607057Y-105606971D01*
X119614093Y-105925757D01*
X119623796Y-106138691D01*
X119635344Y-106216234D01*
X120015584Y-106216234D01*
X120016530Y-106234897D01*
X120051951Y-106298701D01*
X120065180Y-106294906D01*
X120139286Y-106216234D01*
X120152172Y-106184289D01*
X120102919Y-106133766D01*
X120078982Y-106136935D01*
X120015584Y-106216234D01*
X119635344Y-106216234D01*
X119636448Y-106216150D01*
X119717570Y-106164148D01*
X119862130Y-106045016D01*
X119884458Y-106025111D01*
X119899187Y-106010065D01*
X120098052Y-106010065D01*
X120139286Y-106051299D01*
X120180520Y-106010065D01*
X120139286Y-105968831D01*
X120098052Y-106010065D01*
X119899187Y-106010065D01*
X119972647Y-105935023D01*
X119953734Y-105926181D01*
X119930361Y-105930202D01*
X119892191Y-105873432D01*
X119867647Y-105711555D01*
X119854533Y-105424679D01*
X119850649Y-104992911D01*
X119849910Y-104855519D01*
X120015584Y-104855519D01*
X120056818Y-104896753D01*
X120098052Y-104855519D01*
X120056818Y-104814286D01*
X120015584Y-104855519D01*
X119849910Y-104855519D01*
X119848943Y-104675915D01*
X119839008Y-104341985D01*
X119817444Y-104128693D01*
X119781131Y-104009981D01*
X119726948Y-103959788D01*
X119699584Y-103954004D01*
X119658065Y-103983628D01*
X119630236Y-104086572D01*
X119613532Y-104285732D01*
X119605391Y-104604002D01*
X119603247Y-105064277D01*
X119520967Y-105064277D01*
X119520779Y-104365360D01*
X119520779Y-102340260D01*
X119603247Y-102340260D01*
X119603247Y-103041234D01*
X119604315Y-103170866D01*
X119615785Y-103462559D01*
X119637158Y-103664689D01*
X119665097Y-103739585D01*
X119685926Y-103736333D01*
X119820192Y-103665147D01*
X119954691Y-103547357D01*
X120016228Y-103444480D01*
X120071154Y-103369572D01*
X120222397Y-103275778D01*
X120334722Y-103229196D01*
X120412704Y-103243405D01*
X120427922Y-103378863D01*
X120403970Y-103506016D01*
X120304221Y-103577273D01*
X120255376Y-103597038D01*
X120217895Y-103680529D01*
X120195028Y-103853179D01*
X120183621Y-104140220D01*
X120180520Y-104566883D01*
X120185226Y-104855519D01*
X120187783Y-105012376D01*
X120209515Y-105347343D01*
X120240934Y-105520716D01*
X120277183Y-105531958D01*
X120313405Y-105380528D01*
X120344742Y-105065888D01*
X120366338Y-104587500D01*
X120392456Y-103618506D01*
X120410189Y-104628734D01*
X120414643Y-105016668D01*
X120409942Y-105325728D01*
X120392467Y-105516105D01*
X120359771Y-105612337D01*
X120309406Y-105638961D01*
X120264035Y-105648345D01*
X120221761Y-105737171D01*
X120237558Y-105935023D01*
X120238611Y-105948214D01*
X120249391Y-106010065D01*
X120269714Y-106126674D01*
X120285381Y-106184289D01*
X120308881Y-106270714D01*
X120335583Y-106263501D01*
X120345455Y-106098879D01*
X120363403Y-106010065D01*
X120864766Y-106010065D01*
X120866389Y-106047573D01*
X120893277Y-106226087D01*
X120939071Y-106298701D01*
X120947714Y-106296228D01*
X120988576Y-106200900D01*
X121005195Y-106010065D01*
X121004556Y-105972265D01*
X120980011Y-105793950D01*
X120930890Y-105721429D01*
X120921121Y-105723968D01*
X120877996Y-105819410D01*
X120864766Y-106010065D01*
X120363403Y-106010065D01*
X120379147Y-105932158D01*
X120531007Y-105719402D01*
X120609621Y-105649514D01*
X120668872Y-105536334D01*
X120613474Y-105398048D01*
X120551226Y-105271965D01*
X120528824Y-105184082D01*
X120702872Y-105184082D01*
X120708882Y-105253985D01*
X120733009Y-105343827D01*
X120757792Y-105522005D01*
X120772083Y-105576409D01*
X120881494Y-105638961D01*
X120885158Y-105638947D01*
X120988187Y-105607215D01*
X120970934Y-105503004D01*
X120830749Y-105309091D01*
X120777390Y-105246883D01*
X120702872Y-105184082D01*
X120528824Y-105184082D01*
X120510390Y-105111762D01*
X120510390Y-105111454D01*
X120563456Y-105031156D01*
X120685412Y-105040525D01*
X120821266Y-105120530D01*
X120916028Y-105252141D01*
X120927341Y-105280101D01*
X120995355Y-105354911D01*
X121056902Y-105293309D01*
X121099917Y-105119533D01*
X121112334Y-104857818D01*
X121111048Y-104689702D01*
X121120598Y-104654416D01*
X121143725Y-104773052D01*
X121168189Y-104902947D01*
X121228329Y-105079389D01*
X121283674Y-105100345D01*
X121319677Y-104971803D01*
X121319762Y-104960874D01*
X121418791Y-104960874D01*
X121442859Y-105157357D01*
X121500000Y-105267857D01*
X121530450Y-105263534D01*
X121568286Y-105138888D01*
X121571213Y-105080464D01*
X122164798Y-105080464D01*
X122231689Y-105171888D01*
X122311843Y-105252297D01*
X122417241Y-105309091D01*
X122477776Y-105297487D01*
X122459129Y-105235651D01*
X122304058Y-105133556D01*
X122212349Y-105086540D01*
X122164798Y-105080464D01*
X121571213Y-105080464D01*
X121581205Y-104881003D01*
X121577739Y-104773052D01*
X121664935Y-104773052D01*
X121665208Y-104810571D01*
X121669403Y-104881003D01*
X121675841Y-104989078D01*
X121697146Y-105061688D01*
X121701724Y-105059133D01*
X121732728Y-104963664D01*
X121763054Y-104773052D01*
X121767120Y-104732682D01*
X121766728Y-104679057D01*
X122005250Y-104679057D01*
X122009409Y-104732682D01*
X122020611Y-104877098D01*
X122031149Y-104904116D01*
X122049838Y-104860309D01*
X122056476Y-104690584D01*
X122054337Y-104600643D01*
X122044668Y-104530516D01*
X122324675Y-104530516D01*
X122326819Y-104538746D01*
X122407143Y-104566883D01*
X122429746Y-104563527D01*
X122489610Y-104479549D01*
X122483135Y-104449720D01*
X122407143Y-104443182D01*
X122382463Y-104460108D01*
X122324675Y-104530516D01*
X122044668Y-104530516D01*
X122040671Y-104501522D01*
X122018947Y-104547228D01*
X122005250Y-104679057D01*
X121766728Y-104679057D01*
X121765830Y-104556116D01*
X121730843Y-104484416D01*
X121722229Y-104486888D01*
X121681500Y-104582216D01*
X121664935Y-104773052D01*
X121577739Y-104773052D01*
X121574049Y-104658097D01*
X121548000Y-104541323D01*
X121500000Y-104566883D01*
X121443926Y-104727977D01*
X121418795Y-104953737D01*
X121418791Y-104960874D01*
X121319762Y-104960874D01*
X121321791Y-104699751D01*
X121320363Y-104674473D01*
X121315685Y-104390097D01*
X121331099Y-104328304D01*
X121335065Y-104328304D01*
X121337687Y-104364370D01*
X121385338Y-104390732D01*
X121501567Y-104276359D01*
X121521495Y-104251931D01*
X121559460Y-104181568D01*
X121470431Y-104202714D01*
X121401163Y-104239737D01*
X121335065Y-104328304D01*
X121331099Y-104328304D01*
X121358073Y-104220168D01*
X121472903Y-104118620D01*
X121685552Y-104039383D01*
X121753470Y-104013237D01*
X121826294Y-103934969D01*
X121753397Y-103860188D01*
X121547323Y-103809734D01*
X121352758Y-103812947D01*
X121167957Y-103859253D01*
X121051432Y-103930736D01*
X121051245Y-104008171D01*
X121059676Y-104077785D01*
X121005087Y-104239767D01*
X120905792Y-104428167D01*
X120793842Y-104584268D01*
X120701284Y-104649351D01*
X120650700Y-104610627D01*
X120616617Y-104474391D01*
X120598310Y-104218238D01*
X120592857Y-103819808D01*
X120591779Y-103652570D01*
X120578574Y-103299720D01*
X120551118Y-103092860D01*
X120510390Y-103041234D01*
X120486674Y-103043864D01*
X120443606Y-102945443D01*
X120427922Y-102716231D01*
X120427922Y-102670130D01*
X120510390Y-102670130D01*
X120510392Y-102672793D01*
X120522649Y-102845735D01*
X120551623Y-102917532D01*
X120575517Y-102886811D01*
X120592857Y-102752597D01*
X120599561Y-102718425D01*
X120806113Y-102718425D01*
X120899005Y-102728952D01*
X121149513Y-102738190D01*
X121664935Y-102752597D01*
X121671446Y-103268019D01*
X121679907Y-103509427D01*
X121696717Y-103662891D01*
X121718008Y-103684990D01*
X121751120Y-103643862D01*
X121876432Y-103631962D01*
X121929772Y-103671554D01*
X121988042Y-103820619D01*
X121980167Y-103934969D01*
X121976275Y-103991480D01*
X121891721Y-104099929D01*
X121854806Y-104126915D01*
X121932955Y-104148035D01*
X122009763Y-104137299D01*
X122077273Y-104062593D01*
X122128040Y-104029780D01*
X122276771Y-104101358D01*
X122399188Y-104181568D01*
X122476270Y-104232074D01*
X122503557Y-103655438D01*
X122513342Y-103421927D01*
X122515606Y-103154816D01*
X122496168Y-103008296D01*
X122449788Y-102955144D01*
X122371223Y-102968138D01*
X122306979Y-102969931D01*
X122212560Y-102876755D01*
X122195966Y-102802766D01*
X122252373Y-102800113D01*
X122292247Y-102814942D01*
X122397923Y-102767516D01*
X122409999Y-102750478D01*
X122508513Y-102720815D01*
X122614958Y-102819919D01*
X122698181Y-103021443D01*
X122700582Y-103031160D01*
X122715621Y-103198009D01*
X122642869Y-103248665D01*
X122579781Y-103267030D01*
X122654545Y-103337411D01*
X122727672Y-103410027D01*
X122675162Y-103466722D01*
X122662735Y-103473335D01*
X122595037Y-103599825D01*
X122569635Y-103824496D01*
X122584157Y-104094004D01*
X122636232Y-104355005D01*
X122690802Y-104479549D01*
X122723491Y-104554153D01*
X122744339Y-104584516D01*
X122812814Y-104690584D01*
X122866469Y-104773696D01*
X122935481Y-104899580D01*
X122939545Y-104936897D01*
X122866830Y-104860374D01*
X122778211Y-104762914D01*
X122743055Y-104789331D01*
X122737013Y-104960871D01*
X122741205Y-105074049D01*
X122780572Y-105176326D01*
X122881331Y-105168818D01*
X122957708Y-105144888D01*
X122969849Y-105171621D01*
X122871329Y-105292036D01*
X122868065Y-105297487D01*
X122779623Y-105445177D01*
X122765657Y-105594656D01*
X122797027Y-105654333D01*
X122912511Y-105717467D01*
X123030090Y-105631777D01*
X123087367Y-105588840D01*
X123241125Y-105582822D01*
X123256178Y-105586436D01*
X123306152Y-105586274D01*
X123342640Y-105547305D01*
X123367755Y-105448507D01*
X123383612Y-105268859D01*
X123392321Y-104987341D01*
X123395997Y-104582932D01*
X123396753Y-104034611D01*
X123396753Y-102445701D01*
X122963799Y-102393697D01*
X122696038Y-102369613D01*
X122311153Y-102349126D01*
X121932955Y-102340977D01*
X121871227Y-102340986D01*
X121584848Y-102346814D01*
X121423054Y-102369192D01*
X121351306Y-102417335D01*
X121335065Y-102500453D01*
X121334021Y-102505195D01*
X121315587Y-102588907D01*
X121212465Y-102656353D01*
X120984578Y-102692214D01*
X120863518Y-102704570D01*
X120806113Y-102718425D01*
X120599561Y-102718425D01*
X120611533Y-102657397D01*
X120706914Y-102601494D01*
X120922727Y-102587662D01*
X120996671Y-102585559D01*
X121179436Y-102556836D01*
X121252597Y-102505195D01*
X121235569Y-102480549D01*
X121102811Y-102439107D01*
X120881494Y-102422727D01*
X120741491Y-102424126D01*
X120583261Y-102445944D01*
X120521147Y-102517998D01*
X120510390Y-102670130D01*
X120427922Y-102670130D01*
X120427922Y-102340260D01*
X120015584Y-102340260D01*
X119603247Y-102340260D01*
X119520779Y-102340260D01*
X119520779Y-102202888D01*
X119706331Y-102223468D01*
X119740473Y-102225922D01*
X119931983Y-102232247D01*
X120251165Y-102238268D01*
X120671161Y-102243617D01*
X121165114Y-102247927D01*
X121706169Y-102250830D01*
X123520455Y-102257613D01*
X123487490Y-104034611D01*
X123479221Y-104480382D01*
G37*
G36*
X76272715Y-74587859D02*
G01*
X76567541Y-74644735D01*
X76874001Y-74747244D01*
X77174139Y-74886496D01*
X77450000Y-75053601D01*
X77683628Y-75239667D01*
X77857067Y-75435804D01*
X77904887Y-75516536D01*
X77943267Y-75650932D01*
X77917524Y-75758111D01*
X77828370Y-75828355D01*
X77776133Y-75848458D01*
X77721941Y-75857810D01*
X77670058Y-75838289D01*
X77601230Y-75781162D01*
X77496202Y-75677697D01*
X77290748Y-75492270D01*
X76950712Y-75262206D01*
X76589415Y-75105148D01*
X76210772Y-75023088D01*
X76054410Y-75002748D01*
X75926042Y-74974861D01*
X75851074Y-74936168D01*
X75815998Y-74879064D01*
X75807308Y-74795944D01*
X75814847Y-74720061D01*
X75862419Y-74636591D01*
X75962976Y-74592051D01*
X76127124Y-74579256D01*
X76272715Y-74587859D01*
G37*
G36*
X78944380Y-80970533D02*
G01*
X78995687Y-81036131D01*
X79011616Y-81151172D01*
X79008259Y-81183711D01*
X78971344Y-81262044D01*
X78888193Y-81346519D01*
X78751985Y-81442228D01*
X78555899Y-81554265D01*
X78293115Y-81687724D01*
X78063313Y-81793006D01*
X77515118Y-81990875D01*
X76929166Y-82130312D01*
X76295770Y-82213871D01*
X76264543Y-82216332D01*
X76056941Y-82217138D01*
X75914895Y-82183349D01*
X75833365Y-82112793D01*
X75807308Y-82003294D01*
X75810844Y-81949130D01*
X75837578Y-81883901D01*
X75902047Y-81840748D01*
X76017722Y-81812366D01*
X76198077Y-81791452D01*
X76723477Y-81723943D01*
X77305026Y-81593763D01*
X77846306Y-81406819D01*
X78357490Y-81160135D01*
X78525376Y-81071119D01*
X78714506Y-80987955D01*
X78852414Y-80954450D01*
X78944380Y-80970533D01*
G37*
G36*
X81093437Y-76809167D02*
G01*
X81117710Y-76821802D01*
X81176654Y-76878202D01*
X81210250Y-76969853D01*
X81221807Y-77110544D01*
X81214636Y-77314063D01*
X81199975Y-77481719D01*
X81156751Y-77786868D01*
X81094004Y-78102675D01*
X81015432Y-78418121D01*
X80924733Y-78722185D01*
X80825605Y-79003846D01*
X80721745Y-79252084D01*
X80616851Y-79455879D01*
X80514620Y-79604211D01*
X80418750Y-79686060D01*
X80406763Y-79691794D01*
X80321022Y-79713798D01*
X80242904Y-79682031D01*
X80222210Y-79667138D01*
X80175571Y-79612106D01*
X80160023Y-79536596D01*
X80176962Y-79428475D01*
X80227788Y-79275610D01*
X80313898Y-79065868D01*
X80488579Y-78624400D01*
X80659238Y-78071477D01*
X80764496Y-77543032D01*
X80806145Y-77031656D01*
X80819409Y-76940719D01*
X80879386Y-76836739D01*
X80975257Y-76789381D01*
X81093437Y-76809167D01*
G37*
G36*
X78000863Y-73408770D02*
G01*
X78350784Y-73620965D01*
X78703464Y-73901641D01*
X79036683Y-74231781D01*
X79337350Y-74596989D01*
X79592375Y-74982866D01*
X79788665Y-75375014D01*
X79805240Y-75415205D01*
X79929940Y-75754872D01*
X80015354Y-76076860D01*
X80068221Y-76412326D01*
X80095281Y-76792427D01*
X80100190Y-76935031D01*
X80103532Y-77255787D01*
X80092635Y-77508611D01*
X80066757Y-77700076D01*
X80025154Y-77836758D01*
X79967080Y-77925228D01*
X79949062Y-77943002D01*
X79873026Y-78003504D01*
X79810590Y-78008281D01*
X79732238Y-77961948D01*
X79728424Y-77959099D01*
X79703347Y-77934283D01*
X79684793Y-77896417D01*
X79671744Y-77834650D01*
X79663180Y-77738131D01*
X79658081Y-77596011D01*
X79655428Y-77397438D01*
X79654200Y-77131563D01*
X79653633Y-76994890D01*
X79650862Y-76747382D01*
X79644970Y-76556105D01*
X79634725Y-76406042D01*
X79618891Y-76282180D01*
X79596234Y-76169502D01*
X79565520Y-76052995D01*
X79383578Y-75548191D01*
X79132548Y-75075899D01*
X78815178Y-74644589D01*
X78432031Y-74255024D01*
X77983672Y-73907967D01*
X77895274Y-73847591D01*
X77754472Y-73745926D01*
X77666087Y-73668426D01*
X77620652Y-73603550D01*
X77608701Y-73539754D01*
X77620766Y-73465494D01*
X77641686Y-73413506D01*
X77720025Y-73351689D01*
X77841613Y-73349833D01*
X78000863Y-73408770D01*
G37*
G36*
X76840826Y-71846330D02*
G01*
X77434516Y-71978922D01*
X78007831Y-72178381D01*
X78552725Y-72442452D01*
X79061154Y-72768878D01*
X79525071Y-73155404D01*
X79656605Y-73283001D01*
X80056423Y-73717610D01*
X80384949Y-74156652D01*
X80647395Y-74606872D01*
X80727799Y-74783546D01*
X80763346Y-74914019D01*
X80755283Y-75012269D01*
X80705405Y-75093371D01*
X80624883Y-75157469D01*
X80540879Y-75164525D01*
X80452803Y-75106121D01*
X80355613Y-74978824D01*
X80244271Y-74779199D01*
X80163207Y-74628879D01*
X79901062Y-74226640D01*
X79582510Y-73833516D01*
X79222355Y-73466697D01*
X78835402Y-73143372D01*
X78619275Y-72997531D01*
X78350718Y-72841390D01*
X78060914Y-72691930D01*
X77777145Y-72563203D01*
X77526693Y-72469262D01*
X77347015Y-72415528D01*
X76756924Y-72288774D01*
X76158965Y-72233165D01*
X75563358Y-72248625D01*
X74980322Y-72335077D01*
X74420077Y-72492445D01*
X74299725Y-72534581D01*
X74141473Y-72588705D01*
X74017542Y-72629573D01*
X73947553Y-72650617D01*
X73901856Y-72654878D01*
X73816706Y-72619268D01*
X73759411Y-72539649D01*
X73736922Y-72438136D01*
X73756187Y-72336844D01*
X73824154Y-72257890D01*
X73833141Y-72252363D01*
X73948486Y-72196554D01*
X74119049Y-72130085D01*
X74326068Y-72059093D01*
X74550782Y-71989714D01*
X74774428Y-71928088D01*
X74978244Y-71880352D01*
X75017959Y-71872322D01*
X75624502Y-71790774D01*
X76234806Y-71782862D01*
X76840826Y-71846330D01*
G37*
G36*
X85382568Y-78530123D02*
G01*
X85489341Y-78788798D01*
X85252798Y-78813522D01*
X85143704Y-78826390D01*
X85045085Y-78841534D01*
X85001350Y-78853149D01*
X85014096Y-78883866D01*
X85064669Y-78965731D01*
X85145156Y-79085327D01*
X85246993Y-79229536D01*
X85531004Y-79643202D01*
X85836509Y-80139269D01*
X86092707Y-80616370D01*
X86260385Y-80956435D01*
X85997004Y-81201828D01*
X85890393Y-81298312D01*
X85793927Y-81373666D01*
X85696502Y-81429565D01*
X85582778Y-81471642D01*
X85437412Y-81505525D01*
X85245062Y-81536846D01*
X84990385Y-81571234D01*
X84873869Y-81583570D01*
X84677812Y-81596084D01*
X84504890Y-81598609D01*
X84273394Y-81592986D01*
X84188311Y-81313849D01*
X84103228Y-81034712D01*
X84243960Y-81011433D01*
X84292703Y-81004762D01*
X84437247Y-80992700D01*
X84588250Y-80987724D01*
X84714403Y-80982833D01*
X84882257Y-80968178D01*
X85057982Y-80946722D01*
X85220114Y-80921470D01*
X85347191Y-80895427D01*
X85417751Y-80871596D01*
X85424471Y-80866177D01*
X85433545Y-80821354D01*
X85406717Y-80733868D01*
X85340809Y-80592179D01*
X85338149Y-80586877D01*
X85271446Y-80457433D01*
X85215249Y-80354441D01*
X85181478Y-80299777D01*
X85152398Y-80286832D01*
X85066908Y-80287031D01*
X84921000Y-80307491D01*
X84707354Y-80348970D01*
X84547730Y-80380678D01*
X84384171Y-80409420D01*
X84259624Y-80427113D01*
X84192726Y-80430795D01*
X84165425Y-80415624D01*
X84113214Y-80346671D01*
X84059513Y-80241334D01*
X84012133Y-80120597D01*
X83978889Y-80005442D01*
X83967594Y-79916850D01*
X83986061Y-79875804D01*
X83997209Y-79873184D01*
X84075735Y-79859206D01*
X84203449Y-79839206D01*
X84358884Y-79816593D01*
X84445163Y-79804527D01*
X84621210Y-79777910D01*
X84730019Y-79751356D01*
X84778747Y-79715741D01*
X84774549Y-79661941D01*
X84724581Y-79580833D01*
X84636000Y-79463294D01*
X84442929Y-79209294D01*
X84628734Y-79040866D01*
X84660418Y-79012095D01*
X84743384Y-78934312D01*
X84774019Y-78895974D01*
X84757077Y-78887184D01*
X84697308Y-78898044D01*
X84375677Y-78975181D01*
X83970392Y-79091853D01*
X83609833Y-79218114D01*
X83521445Y-79252077D01*
X83387270Y-79301093D01*
X83292892Y-79332174D01*
X83254672Y-79339717D01*
X83253379Y-79337535D01*
X83231089Y-79287020D01*
X83189412Y-79185863D01*
X83136167Y-79052986D01*
X83128744Y-79034248D01*
X83074826Y-78898160D01*
X83032440Y-78791216D01*
X83010210Y-78735175D01*
X83009864Y-78734171D01*
X83037285Y-78697992D01*
X83127758Y-78649268D01*
X83268523Y-78592359D01*
X83446817Y-78531623D01*
X83649879Y-78471419D01*
X83864947Y-78416106D01*
X84079260Y-78370043D01*
X84177517Y-78352776D01*
X84422093Y-78318494D01*
X84672936Y-78292864D01*
X84888859Y-78280445D01*
X85275794Y-78271448D01*
X85382568Y-78530123D01*
G37*
G36*
X75242694Y-79996750D02*
G01*
X75318502Y-80125785D01*
X75417213Y-80292261D01*
X75492165Y-80417191D01*
X75501904Y-80433424D01*
X75559958Y-80528140D01*
X75652109Y-80674679D01*
X76025040Y-80674679D01*
X76171924Y-80670786D01*
X76484959Y-80643078D01*
X76789815Y-80593481D01*
X76837876Y-80583553D01*
X77000192Y-80551513D01*
X77106637Y-80535616D01*
X77173784Y-80535384D01*
X77218208Y-80550338D01*
X77256483Y-80579999D01*
X77296711Y-80629101D01*
X77329489Y-80746783D01*
X77296726Y-80864129D01*
X77249192Y-80902976D01*
X77130699Y-80952436D01*
X77011765Y-80985296D01*
X76960464Y-80999470D01*
X76753156Y-81040758D01*
X76523445Y-81072981D01*
X76286000Y-81092820D01*
X76173439Y-81099736D01*
X75995408Y-81116540D01*
X75884675Y-81136627D01*
X75846659Y-81159178D01*
X75843223Y-81169593D01*
X75798869Y-81228435D01*
X75714052Y-81318600D01*
X75602429Y-81425210D01*
X75556747Y-81466714D01*
X75454692Y-81553876D01*
X75366817Y-81610195D01*
X75274780Y-81639865D01*
X75160240Y-81647080D01*
X75004855Y-81636034D01*
X74790283Y-81610921D01*
X74406338Y-81547434D01*
X73973436Y-81428726D01*
X73600047Y-81268425D01*
X73327093Y-81124063D01*
X73279352Y-80835281D01*
X73259180Y-80713261D01*
X73881855Y-80713261D01*
X73885548Y-80743857D01*
X73939787Y-80776423D01*
X74055667Y-80824266D01*
X74133461Y-80853546D01*
X74297286Y-80907666D01*
X74439616Y-80946276D01*
X74469650Y-80952463D01*
X74634154Y-80975882D01*
X74791308Y-80985340D01*
X74967154Y-80985296D01*
X74681020Y-80887829D01*
X74514644Y-80826882D01*
X74338105Y-80754906D01*
X74197002Y-80690086D01*
X74185673Y-80684347D01*
X74077131Y-80631646D01*
X74012838Y-80612350D01*
X73969379Y-80624362D01*
X73923341Y-80665586D01*
X73917611Y-80671328D01*
X73881855Y-80713261D01*
X73259180Y-80713261D01*
X73231611Y-80546499D01*
X73335033Y-80464050D01*
X73336183Y-80463134D01*
X73424407Y-80393522D01*
X73492097Y-80341261D01*
X73492245Y-80341149D01*
X73499033Y-80329778D01*
X74510008Y-80329778D01*
X74518557Y-80360161D01*
X74597989Y-80396005D01*
X74671756Y-80421306D01*
X74730978Y-80435540D01*
X74740031Y-80417191D01*
X74713154Y-80362063D01*
X74692103Y-80329327D01*
X74619210Y-80286707D01*
X74523773Y-80318449D01*
X74510008Y-80329778D01*
X73499033Y-80329778D01*
X73512807Y-80306705D01*
X73483746Y-80258449D01*
X73396753Y-80182548D01*
X73319534Y-80125301D01*
X73175586Y-80028955D01*
X73029487Y-79940381D01*
X72935833Y-79883244D01*
X72771766Y-79769783D01*
X72631345Y-79658266D01*
X72613628Y-79642647D01*
X72523333Y-79558959D01*
X72481136Y-79501692D01*
X72477073Y-79449679D01*
X72501180Y-79381756D01*
X72519632Y-79330428D01*
X72523900Y-79284158D01*
X73168335Y-79284158D01*
X73169683Y-79321762D01*
X73230318Y-79381338D01*
X73269558Y-79411349D01*
X73409378Y-79499802D01*
X73589489Y-79597759D01*
X73786035Y-79693360D01*
X73975162Y-79774749D01*
X74133015Y-79830067D01*
X74182739Y-79844398D01*
X74297017Y-79876417D01*
X74363030Y-79886390D01*
X74381557Y-79865859D01*
X74353375Y-79806367D01*
X74279262Y-79699456D01*
X74159996Y-79536668D01*
X74131277Y-79497185D01*
X74049370Y-79381778D01*
X73992189Y-79296879D01*
X73970693Y-79258588D01*
X73991020Y-79233776D01*
X74058288Y-79173025D01*
X74156308Y-79092667D01*
X74341923Y-78946047D01*
X74146539Y-78973789D01*
X74077413Y-78986325D01*
X73929876Y-79021384D01*
X73754650Y-79069429D01*
X73572454Y-79124142D01*
X73404008Y-79179205D01*
X73270031Y-79228299D01*
X73191241Y-79265107D01*
X73168335Y-79284158D01*
X72523900Y-79284158D01*
X72525016Y-79272064D01*
X72507293Y-79200302D01*
X72461516Y-79096835D01*
X72382738Y-78943352D01*
X72323217Y-78825494D01*
X72146024Y-78407664D01*
X72012745Y-77980186D01*
X71928802Y-77562900D01*
X71899616Y-77175640D01*
X71899705Y-77133834D01*
X71903504Y-76997588D01*
X71916998Y-76914098D01*
X71945768Y-76862833D01*
X71995395Y-76823262D01*
X72029212Y-76803048D01*
X72129927Y-76774209D01*
X72209691Y-76809824D01*
X72270677Y-76913077D01*
X72315059Y-77087150D01*
X72345010Y-77335228D01*
X72368020Y-77520835D01*
X72408342Y-77732581D01*
X72461278Y-77950249D01*
X72522801Y-78162050D01*
X72588884Y-78356199D01*
X72655501Y-78520909D01*
X72718624Y-78644392D01*
X72774227Y-78714863D01*
X72818284Y-78720534D01*
X72879515Y-78685798D01*
X73005927Y-78634588D01*
X73173773Y-78577442D01*
X73364300Y-78520288D01*
X73558754Y-78469056D01*
X73738384Y-78429672D01*
X73804792Y-78418036D01*
X74005796Y-78389423D01*
X74232049Y-78364030D01*
X74446071Y-78346274D01*
X74849923Y-78320512D01*
X74921121Y-78524066D01*
X74957099Y-78618785D01*
X75006888Y-78702486D01*
X75081340Y-78761564D01*
X75204870Y-78821622D01*
X75334303Y-78869627D01*
X75519762Y-78921899D01*
X75700289Y-78958583D01*
X75775838Y-78970345D01*
X75959954Y-79004025D01*
X76082194Y-79038951D01*
X76154601Y-79081269D01*
X76189215Y-79137123D01*
X76198077Y-79212660D01*
X76196876Y-79244730D01*
X76168166Y-79339445D01*
X76094008Y-79396036D01*
X75964831Y-79418987D01*
X75771066Y-79412784D01*
X75711264Y-79406680D01*
X75385480Y-79342057D01*
X75056824Y-79230828D01*
X74763386Y-79085368D01*
X74657118Y-79022326D01*
X74572099Y-78973848D01*
X74534868Y-78955294D01*
X74544207Y-78973043D01*
X74591404Y-79041423D01*
X74669713Y-79149206D01*
X74769970Y-79283596D01*
X74832916Y-79369372D01*
X74974496Y-79573856D01*
X75118785Y-79794592D01*
X75162467Y-79865859D01*
X75242694Y-79996750D01*
G37*
G36*
X76374659Y-76314882D02*
G01*
X76547717Y-76456321D01*
X76674661Y-76649887D01*
X76698560Y-76699222D01*
X76770753Y-76809133D01*
X76836854Y-76845140D01*
X76864183Y-76848533D01*
X76961987Y-76871766D01*
X77102255Y-76912181D01*
X77116681Y-76916796D01*
X77264436Y-76964064D01*
X77312666Y-76980372D01*
X77538123Y-77061959D01*
X77742573Y-77148009D01*
X77930988Y-77243808D01*
X78108343Y-77354644D01*
X78279613Y-77485805D01*
X78449771Y-77642577D01*
X78623791Y-77830249D01*
X78806647Y-78054107D01*
X79003313Y-78319439D01*
X79218764Y-78631533D01*
X79457973Y-78995674D01*
X79725914Y-79417152D01*
X80027562Y-79901253D01*
X80166099Y-80122860D01*
X80276622Y-80293591D01*
X80357692Y-80409722D01*
X80414280Y-80477888D01*
X80451360Y-80504724D01*
X80473904Y-80496866D01*
X80500324Y-80474232D01*
X80547152Y-80465176D01*
X80627692Y-80471862D01*
X80755948Y-80495485D01*
X80945923Y-80537245D01*
X81081717Y-80568140D01*
X81290050Y-80613430D01*
X81429451Y-80635010D01*
X81504922Y-80627763D01*
X81521464Y-80586571D01*
X81484077Y-80506317D01*
X81397762Y-80381883D01*
X81267521Y-80208151D01*
X81249697Y-80184400D01*
X81122913Y-80012208D01*
X81007483Y-79850228D01*
X80915504Y-79715706D01*
X80859073Y-79625888D01*
X80772222Y-79471076D01*
X81031371Y-79302235D01*
X81108725Y-79252254D01*
X81210423Y-79191005D01*
X81271399Y-79166142D01*
X81307143Y-79172713D01*
X81333144Y-79205766D01*
X81365018Y-79258843D01*
X81498918Y-79468411D01*
X81659670Y-79705167D01*
X81830598Y-79945507D01*
X81995024Y-80165828D01*
X82136273Y-80342525D01*
X82191178Y-80405828D01*
X82321690Y-80544917D01*
X82452266Y-80671015D01*
X82465832Y-80682794D01*
X82572296Y-80775231D01*
X82671169Y-80848673D01*
X82738274Y-80882450D01*
X82763000Y-80867671D01*
X82760452Y-80843586D01*
X82735171Y-80741624D01*
X82687756Y-80591316D01*
X82624319Y-80409293D01*
X82550975Y-80212188D01*
X82473836Y-80016633D01*
X82399015Y-79839260D01*
X82332624Y-79696702D01*
X82295768Y-79620819D01*
X82238460Y-79488724D01*
X82205532Y-79391592D01*
X82203249Y-79346387D01*
X82245372Y-79314833D01*
X82334906Y-79252681D01*
X82450002Y-79175357D01*
X82664543Y-79033261D01*
X82870703Y-79444215D01*
X83009932Y-79730971D01*
X83174366Y-80106538D01*
X83298540Y-80445325D01*
X83387961Y-80761352D01*
X83461660Y-81069920D01*
X83299186Y-81214222D01*
X83244492Y-81262954D01*
X83113379Y-81380607D01*
X82998703Y-81484468D01*
X82952886Y-81525613D01*
X82880958Y-81586892D01*
X82846266Y-81611468D01*
X82838132Y-81609793D01*
X82775762Y-81578606D01*
X82671488Y-81516370D01*
X82542048Y-81433922D01*
X82404183Y-81342100D01*
X82274630Y-81251742D01*
X82170130Y-81173687D01*
X81968636Y-81014415D01*
X81826624Y-81180955D01*
X81684613Y-81347494D01*
X81393422Y-81265426D01*
X81111295Y-81179243D01*
X80795391Y-81064575D01*
X80535848Y-80948336D01*
X80389526Y-80873688D01*
X80296494Y-80974864D01*
X80243357Y-81028401D01*
X80132358Y-81124622D01*
X80015514Y-81211975D01*
X79913607Y-81275419D01*
X79847420Y-81299910D01*
X79813632Y-81285278D01*
X79723186Y-81224530D01*
X79586970Y-81122131D01*
X79412036Y-80984063D01*
X79205439Y-80816306D01*
X78974232Y-80624843D01*
X78725469Y-80415654D01*
X78466203Y-80194720D01*
X78203488Y-79968023D01*
X77944377Y-79741545D01*
X77695924Y-79521266D01*
X77465182Y-79313169D01*
X77259205Y-79123234D01*
X77085047Y-78957442D01*
X77029786Y-78903063D01*
X76837120Y-78705927D01*
X76641742Y-78496205D01*
X76463702Y-78295760D01*
X76323047Y-78126456D01*
X76255144Y-78040677D01*
X76143054Y-77904289D01*
X76057381Y-77812652D01*
X75984430Y-77753721D01*
X75910504Y-77715454D01*
X75821906Y-77685807D01*
X75792593Y-77676457D01*
X75636718Y-77593465D01*
X76472197Y-77593465D01*
X76488221Y-77627460D01*
X76547918Y-77711885D01*
X76642121Y-77831803D01*
X76760581Y-77975093D01*
X76893050Y-78129631D01*
X77029280Y-78283295D01*
X77159020Y-78423963D01*
X77272022Y-78539512D01*
X77373147Y-78636298D01*
X77563199Y-78812238D01*
X77795649Y-79022424D01*
X78060001Y-79257599D01*
X78345761Y-79508509D01*
X78642434Y-79765899D01*
X78939525Y-80020514D01*
X79226539Y-80263099D01*
X79352057Y-80368331D01*
X79513295Y-80503492D01*
X79648853Y-80617102D01*
X79747329Y-80699608D01*
X79797320Y-80741453D01*
X79804734Y-80747525D01*
X79860189Y-80772815D01*
X79910527Y-80733123D01*
X79926110Y-80712259D01*
X79937593Y-80682794D01*
X79935563Y-80643171D01*
X79916011Y-80585384D01*
X79874931Y-80501431D01*
X79808315Y-80383308D01*
X79712155Y-80223012D01*
X79582444Y-80012539D01*
X79415173Y-79743887D01*
X79373438Y-79677042D01*
X79139853Y-79305934D01*
X78939569Y-78994046D01*
X78767479Y-78734187D01*
X78618478Y-78519164D01*
X78487459Y-78341787D01*
X78369317Y-78194864D01*
X78258946Y-78071203D01*
X78151240Y-77963613D01*
X78059031Y-77881758D01*
X77739937Y-77655404D01*
X77373574Y-77466963D01*
X76980510Y-77327608D01*
X76734142Y-77259111D01*
X76603460Y-77413587D01*
X76555458Y-77472064D01*
X76495764Y-77551582D01*
X76472197Y-77593465D01*
X75636718Y-77593465D01*
X75593565Y-77570489D01*
X75423931Y-77408358D01*
X75304409Y-77209147D01*
X75269512Y-77141909D01*
X75204030Y-77087848D01*
X75090586Y-77058154D01*
X75044576Y-77049450D01*
X74839435Y-76994810D01*
X74611494Y-76916205D01*
X75709375Y-76916205D01*
X75720590Y-77063619D01*
X75808302Y-77197827D01*
X75831719Y-77218466D01*
X75950126Y-77267862D01*
X76079119Y-77256576D01*
X76195951Y-77190525D01*
X76277876Y-77075630D01*
X76281695Y-77066120D01*
X76306666Y-76916796D01*
X76259366Y-76792872D01*
X76142559Y-76701978D01*
X76115849Y-76690091D01*
X75964517Y-76659379D01*
X75839301Y-76700179D01*
X75746223Y-76810838D01*
X75709375Y-76916205D01*
X74611494Y-76916205D01*
X74599848Y-76912189D01*
X74351571Y-76811068D01*
X74120356Y-76700929D01*
X74013262Y-76640336D01*
X73732831Y-76440631D01*
X73454539Y-76187537D01*
X73196071Y-75896448D01*
X73150152Y-75836427D01*
X73045435Y-75689707D01*
X72917416Y-75501317D01*
X72771610Y-75280176D01*
X72613527Y-75035205D01*
X72448681Y-74775321D01*
X72282584Y-74509444D01*
X72120749Y-74246494D01*
X71968687Y-73995389D01*
X71831912Y-73765049D01*
X71715936Y-73564393D01*
X71626271Y-73402340D01*
X71568429Y-73287810D01*
X71562928Y-73272228D01*
X72077666Y-73272228D01*
X72084929Y-73296579D01*
X72127076Y-73384760D01*
X72201699Y-73522625D01*
X72302950Y-73699813D01*
X72424984Y-73905959D01*
X72561955Y-74130701D01*
X72752844Y-74437863D01*
X73001540Y-74830016D01*
X73221850Y-75164073D01*
X73419522Y-75446038D01*
X73600308Y-75681916D01*
X73769959Y-75877710D01*
X73934223Y-76039426D01*
X74098853Y-76173067D01*
X74269597Y-76284639D01*
X74452207Y-76380144D01*
X74652433Y-76465588D01*
X74876026Y-76546975D01*
X74911140Y-76558846D01*
X75058056Y-76604822D01*
X75177810Y-76636736D01*
X75247256Y-76648273D01*
X75253035Y-76647757D01*
X75317893Y-76610997D01*
X75392778Y-76532980D01*
X75460756Y-76437196D01*
X75504892Y-76347133D01*
X75508250Y-76286281D01*
X75484406Y-76249781D01*
X75401818Y-76139912D01*
X75285030Y-75996029D01*
X75147164Y-75833462D01*
X75001346Y-75667539D01*
X74860697Y-75513592D01*
X74738342Y-75386949D01*
X74702184Y-75351515D01*
X74539456Y-75197814D01*
X74325742Y-75002587D01*
X74068271Y-74772219D01*
X73774272Y-74513092D01*
X73450975Y-74231592D01*
X73105609Y-73934104D01*
X72745405Y-73627011D01*
X72650238Y-73546853D01*
X72451069Y-73384729D01*
X72300549Y-73272946D01*
X72193312Y-73208655D01*
X72123995Y-73189005D01*
X72087235Y-73211146D01*
X72077666Y-73272228D01*
X71562928Y-73272228D01*
X71547923Y-73229721D01*
X71548262Y-73225310D01*
X71580860Y-73159906D01*
X71655948Y-73061625D01*
X71758309Y-72946116D01*
X71872724Y-72829031D01*
X71983973Y-72726022D01*
X72076838Y-72652738D01*
X72136100Y-72624833D01*
X72142386Y-72625710D01*
X72209060Y-72659927D01*
X72325492Y-72739640D01*
X72484735Y-72859013D01*
X72679841Y-73012209D01*
X72903865Y-73193391D01*
X73149858Y-73396722D01*
X73410874Y-73616365D01*
X73679965Y-73846483D01*
X73950185Y-74081239D01*
X74214586Y-74314797D01*
X74466222Y-74541319D01*
X74698145Y-74754969D01*
X74903408Y-74949910D01*
X74980281Y-75025465D01*
X75178001Y-75228034D01*
X75376323Y-75441186D01*
X75555846Y-75643787D01*
X75697169Y-75814701D01*
X75742457Y-75872392D01*
X75863057Y-76021706D01*
X75952688Y-76121855D01*
X76022898Y-76183501D01*
X76085238Y-76217306D01*
X76151257Y-76233935D01*
X76170265Y-76237314D01*
X76299295Y-76286281D01*
X76374659Y-76314882D01*
G37*
G36*
X64173376Y-80208814D02*
G01*
X64313378Y-80504949D01*
X64740982Y-80687506D01*
X64907359Y-80757784D01*
X65048911Y-80816131D01*
X65148548Y-80855573D01*
X65191356Y-80870063D01*
X65191741Y-80870027D01*
X65183782Y-80837728D01*
X65143454Y-80756558D01*
X65079201Y-80643565D01*
X65040583Y-80573482D01*
X64971669Y-80431985D01*
X64897922Y-80266153D01*
X64827085Y-80094938D01*
X64766901Y-79937293D01*
X64725112Y-79812170D01*
X64709462Y-79738522D01*
X64715719Y-79726235D01*
X64768460Y-79671052D01*
X64863268Y-79587552D01*
X64986062Y-79488466D01*
X65262662Y-79273547D01*
X65464754Y-79392137D01*
X65592293Y-79470742D01*
X65756286Y-79577922D01*
X65911077Y-79684369D01*
X65940440Y-79705020D01*
X66049725Y-79777396D01*
X66126317Y-79820897D01*
X66155141Y-79826730D01*
X66145911Y-79800835D01*
X66103409Y-79723209D01*
X66038077Y-79619602D01*
X65992519Y-79549024D01*
X65941094Y-79462327D01*
X65921014Y-79417776D01*
X65943630Y-79383047D01*
X66015803Y-79320739D01*
X66116226Y-79249086D01*
X66222787Y-79182688D01*
X66313373Y-79136146D01*
X66365871Y-79124060D01*
X66373304Y-79127790D01*
X66433794Y-79186867D01*
X66520194Y-79301838D01*
X66624926Y-79460754D01*
X66740407Y-79651663D01*
X66859058Y-79862614D01*
X66973297Y-80081657D01*
X67174932Y-80485096D01*
X67417351Y-80597271D01*
X67456053Y-80614966D01*
X67614618Y-80683991D01*
X67779267Y-80751259D01*
X67934430Y-80810931D01*
X68064538Y-80857170D01*
X68154021Y-80884138D01*
X68187308Y-80885994D01*
X68187306Y-80885853D01*
X68170457Y-80839820D01*
X68126012Y-80740860D01*
X68062021Y-80605387D01*
X67986533Y-80449814D01*
X67907598Y-80290553D01*
X67833266Y-80144019D01*
X67771586Y-80026623D01*
X67730608Y-79954779D01*
X67728210Y-79951085D01*
X67631775Y-79856273D01*
X67482741Y-79798284D01*
X67433837Y-79785948D01*
X67350775Y-79755419D01*
X67317202Y-79712651D01*
X67313230Y-79638953D01*
X67314738Y-79616852D01*
X67332870Y-79492155D01*
X67362945Y-79358197D01*
X67407509Y-79194485D01*
X67592254Y-79249083D01*
X67732231Y-79285011D01*
X67915172Y-79324159D01*
X68115523Y-79361766D01*
X68309919Y-79393720D01*
X68474992Y-79415907D01*
X68587377Y-79424217D01*
X68622113Y-79423294D01*
X68679675Y-79406737D01*
X68679784Y-79361972D01*
X68660397Y-79309684D01*
X68635678Y-79211279D01*
X68649896Y-79136322D01*
X68711568Y-79062280D01*
X68829211Y-78966619D01*
X69043509Y-78802097D01*
X69299255Y-79082311D01*
X69364515Y-79155862D01*
X69462486Y-79275437D01*
X69529908Y-79370117D01*
X69555000Y-79424155D01*
X69551058Y-79444999D01*
X69511152Y-79525358D01*
X69442140Y-79620973D01*
X69329280Y-79756161D01*
X69480738Y-79946384D01*
X69559411Y-80044285D01*
X69711525Y-80223851D01*
X69837890Y-80351648D01*
X69951578Y-80436290D01*
X70065662Y-80486393D01*
X70193215Y-80510571D01*
X70347312Y-80517439D01*
X70494854Y-80518371D01*
X70440529Y-80410910D01*
X70391915Y-80297779D01*
X70332801Y-80130141D01*
X70278411Y-79949958D01*
X70239609Y-79790759D01*
X70233560Y-79751744D01*
X70237698Y-79702399D01*
X70265116Y-79649938D01*
X70324429Y-79583240D01*
X70834984Y-79583240D01*
X70860158Y-79747960D01*
X70881093Y-79847660D01*
X70975253Y-80097242D01*
X71119986Y-80346843D01*
X71300887Y-80576999D01*
X71503551Y-80768248D01*
X71713574Y-80901125D01*
X71783380Y-80932350D01*
X71882580Y-80971851D01*
X71938267Y-80987294D01*
X71958773Y-80980046D01*
X71975577Y-80914940D01*
X71954621Y-80783168D01*
X71896026Y-80585868D01*
X71827235Y-80415558D01*
X71663800Y-80142289D01*
X71455415Y-79909883D01*
X71214017Y-79730593D01*
X70951546Y-79616670D01*
X70834984Y-79583240D01*
X70324429Y-79583240D01*
X70324987Y-79582612D01*
X70426484Y-79488671D01*
X70578781Y-79356367D01*
X70655264Y-79290910D01*
X70789127Y-79179902D01*
X70884550Y-79109638D01*
X70955062Y-79072143D01*
X71014190Y-79059442D01*
X71075465Y-79063560D01*
X71156939Y-79071980D01*
X71189919Y-79057543D01*
X71178818Y-79009490D01*
X71080037Y-78744907D01*
X70912827Y-78140269D01*
X70817562Y-77519558D01*
X70794292Y-76891972D01*
X70843070Y-76266710D01*
X70963945Y-75652971D01*
X71156968Y-75059954D01*
X71212624Y-74926861D01*
X71304362Y-74749104D01*
X71392276Y-74639536D01*
X71481657Y-74592397D01*
X71577798Y-74601929D01*
X71644685Y-74634865D01*
X71675834Y-74690437D01*
X71680190Y-74794888D01*
X71675978Y-74836318D01*
X71647485Y-74966206D01*
X71598457Y-75130193D01*
X71536178Y-75302600D01*
X71440720Y-75567700D01*
X71324062Y-76012647D01*
X71256861Y-76480775D01*
X71235308Y-76993500D01*
X71241395Y-77289537D01*
X71282337Y-77755275D01*
X71366338Y-78189266D01*
X71498656Y-78615672D01*
X71684546Y-79058657D01*
X71723430Y-79138229D01*
X71820559Y-79315055D01*
X71920637Y-79473320D01*
X72007251Y-79586196D01*
X72085781Y-79678309D01*
X72203448Y-79831867D01*
X72307185Y-79982742D01*
X72328321Y-80014838D01*
X72435712Y-80161254D01*
X72568557Y-80324883D01*
X72702967Y-80475955D01*
X72840073Y-80631028D01*
X72926486Y-80754912D01*
X72954693Y-80840723D01*
X72936019Y-80914940D01*
X72927725Y-80947903D01*
X72846482Y-81009932D01*
X72720134Y-81012675D01*
X72715677Y-81011810D01*
X72635946Y-81007205D01*
X72603000Y-81026342D01*
X72584578Y-81054452D01*
X72517092Y-81125066D01*
X72411676Y-81224077D01*
X72280616Y-81339549D01*
X72246920Y-81368353D01*
X72111849Y-81481030D01*
X72016826Y-81551486D01*
X71946791Y-81588014D01*
X71886689Y-81598908D01*
X71821462Y-81592464D01*
X71693186Y-81558257D01*
X71501988Y-81481412D01*
X71297943Y-81378634D01*
X71107027Y-81263236D01*
X70955216Y-81148530D01*
X70772817Y-80986314D01*
X70672869Y-81113804D01*
X70572922Y-81241294D01*
X70174009Y-81104525D01*
X70071476Y-81067338D01*
X69868561Y-80984116D01*
X69679455Y-80895608D01*
X69534702Y-80815618D01*
X69467711Y-80771942D01*
X69365075Y-80693840D01*
X69281925Y-80606380D01*
X69200459Y-80489210D01*
X69102875Y-80321982D01*
X68911440Y-79980484D01*
X68637297Y-79960447D01*
X68626535Y-79959666D01*
X68492381Y-79950861D01*
X68395461Y-79946175D01*
X68356115Y-79946609D01*
X68370194Y-79977443D01*
X68416339Y-80056973D01*
X68484346Y-80167205D01*
X68518888Y-80223998D01*
X68607379Y-80380002D01*
X68705871Y-80564020D01*
X68798742Y-80747231D01*
X68977867Y-81112860D01*
X68732933Y-81359990D01*
X68487999Y-81607121D01*
X68327884Y-81545980D01*
X68278928Y-81526405D01*
X68145603Y-81469596D01*
X67979762Y-81396045D01*
X67806308Y-81316699D01*
X67711567Y-81273136D01*
X67577783Y-81215500D01*
X67496188Y-81188650D01*
X67455398Y-81189376D01*
X67444033Y-81214465D01*
X67420309Y-81251339D01*
X67350406Y-81317930D01*
X67251664Y-81398995D01*
X67141670Y-81481409D01*
X67038011Y-81552048D01*
X66958271Y-81597788D01*
X66920039Y-81605506D01*
X66913690Y-81590753D01*
X66886076Y-81516217D01*
X66842652Y-81394123D01*
X66789449Y-81241294D01*
X66757259Y-81147826D01*
X66687292Y-80948479D01*
X66629371Y-80802719D01*
X66572872Y-80696185D01*
X66507172Y-80614519D01*
X66421647Y-80543362D01*
X66305674Y-80468354D01*
X66148629Y-80375137D01*
X65990664Y-80282250D01*
X65792149Y-80168099D01*
X65647487Y-80089304D01*
X65549157Y-80042054D01*
X65489635Y-80022538D01*
X65461401Y-80026945D01*
X65458853Y-80033042D01*
X65472399Y-80093708D01*
X65517231Y-80202207D01*
X65585606Y-80343707D01*
X65669780Y-80503373D01*
X65762010Y-80666374D01*
X65854551Y-80817874D01*
X65939659Y-80943042D01*
X65955996Y-80965365D01*
X66037158Y-81080630D01*
X66094043Y-81168728D01*
X66115192Y-81212096D01*
X66111006Y-81220017D01*
X66062228Y-81266279D01*
X65973358Y-81337356D01*
X65862872Y-81419720D01*
X65749245Y-81499842D01*
X65650953Y-81564193D01*
X65586473Y-81599246D01*
X65559784Y-81596701D01*
X65469524Y-81567236D01*
X65330948Y-81511581D01*
X65157077Y-81435069D01*
X64960933Y-81343033D01*
X64388376Y-81066490D01*
X64160644Y-81285235D01*
X64104625Y-81339049D01*
X63971759Y-81463748D01*
X63871580Y-81544875D01*
X63785983Y-81589837D01*
X63696859Y-81606041D01*
X63586104Y-81600891D01*
X63435610Y-81581794D01*
X63189383Y-81537343D01*
X62821374Y-81437848D01*
X62439388Y-81301113D01*
X62069124Y-81135530D01*
X61739616Y-80971433D01*
X61739616Y-80705334D01*
X61739616Y-80439235D01*
X62003385Y-80571733D01*
X62375360Y-80732744D01*
X62802403Y-80870101D01*
X63239427Y-80967222D01*
X63375365Y-80989963D01*
X63538938Y-81014420D01*
X63643908Y-81023667D01*
X63701461Y-81017487D01*
X63722779Y-80995665D01*
X63719046Y-80957986D01*
X63716860Y-80949686D01*
X63696952Y-80858774D01*
X63675565Y-80743063D01*
X63650844Y-80596525D01*
X63325373Y-80596525D01*
X63237031Y-80594739D01*
X62910706Y-80551420D01*
X62635193Y-80451115D01*
X62412327Y-80295019D01*
X62243947Y-80084326D01*
X62131889Y-79820231D01*
X62121145Y-79774914D01*
X62123424Y-79729223D01*
X62150171Y-79679990D01*
X62210448Y-79615798D01*
X62299912Y-79537029D01*
X62755616Y-79537029D01*
X62755616Y-79631152D01*
X62768598Y-79709599D01*
X62839395Y-79847256D01*
X62957390Y-79977310D01*
X63106134Y-80078756D01*
X63177337Y-80112273D01*
X63303800Y-80156567D01*
X63388816Y-80163814D01*
X63419923Y-80131902D01*
X63416345Y-80119851D01*
X63371619Y-80057511D01*
X63288070Y-79965667D01*
X63181388Y-79859537D01*
X63067262Y-79754340D01*
X62961382Y-79665296D01*
X62879438Y-79607623D01*
X62755616Y-79537029D01*
X62299912Y-79537029D01*
X62313315Y-79525228D01*
X62467833Y-79396862D01*
X62473179Y-79392459D01*
X62617951Y-79274594D01*
X62741642Y-79176359D01*
X62831275Y-79107900D01*
X62873874Y-79079364D01*
X62877651Y-79078756D01*
X62937010Y-79093459D01*
X63042731Y-79134793D01*
X63174714Y-79195029D01*
X63288743Y-79256789D01*
X63551772Y-79444396D01*
X63800372Y-79679292D01*
X64014316Y-79940943D01*
X64127706Y-80131902D01*
X64173376Y-80208814D01*
G37*
%TD*%
M02*
