%TF.GenerationSoftware,KiCad,Pcbnew,8.0.2*%
%TF.CreationDate,2024-06-04T14:33:09+05:30*%
%TF.ProjectId,evoborne,65766f62-6f72-46e6-952e-6b696361645f,rev?*%
%TF.SameCoordinates,Original*%
%TF.FileFunction,Paste,Top*%
%TF.FilePolarity,Positive*%
%FSLAX46Y46*%
G04 Gerber Fmt 4.6, Leading zero omitted, Abs format (unit mm)*
G04 Created by KiCad (PCBNEW 8.0.2) date 2024-06-04 14:33:09*
%MOMM*%
%LPD*%
G01*
G04 APERTURE LIST*
G04 Aperture macros list*
%AMRoundRect*
0 Rectangle with rounded corners*
0 $1 Rounding radius*
0 $2 $3 $4 $5 $6 $7 $8 $9 X,Y pos of 4 corners*
0 Add a 4 corners polygon primitive as box body*
4,1,4,$2,$3,$4,$5,$6,$7,$8,$9,$2,$3,0*
0 Add four circle primitives for the rounded corners*
1,1,$1+$1,$2,$3*
1,1,$1+$1,$4,$5*
1,1,$1+$1,$6,$7*
1,1,$1+$1,$8,$9*
0 Add four rect primitives between the rounded corners*
20,1,$1+$1,$2,$3,$4,$5,0*
20,1,$1+$1,$4,$5,$6,$7,0*
20,1,$1+$1,$6,$7,$8,$9,0*
20,1,$1+$1,$8,$9,$2,$3,0*%
G04 Aperture macros list end*
%ADD10RoundRect,0.250000X1.500000X0.550000X-1.500000X0.550000X-1.500000X-0.550000X1.500000X-0.550000X0*%
%ADD11RoundRect,0.200000X-0.200000X-0.275000X0.200000X-0.275000X0.200000X0.275000X-0.200000X0.275000X0*%
%ADD12RoundRect,0.250000X0.300000X-2.050000X0.300000X2.050000X-0.300000X2.050000X-0.300000X-2.050000X0*%
%ADD13RoundRect,0.250000X2.375000X-2.025000X2.375000X2.025000X-2.375000X2.025000X-2.375000X-2.025000X0*%
%ADD14R,2.700000X3.600000*%
%ADD15RoundRect,0.250000X-1.000000X-0.650000X1.000000X-0.650000X1.000000X0.650000X-1.000000X0.650000X0*%
%ADD16RoundRect,0.200000X-0.200000X-0.800000X0.200000X-0.800000X0.200000X0.800000X-0.200000X0.800000X0*%
%ADD17R,0.900000X1.500000*%
%ADD18R,1.500000X0.900000*%
%ADD19R,0.900000X0.900000*%
%ADD20RoundRect,0.225000X-0.225000X-0.250000X0.225000X-0.250000X0.225000X0.250000X-0.225000X0.250000X0*%
%ADD21RoundRect,0.250000X0.550000X-1.500000X0.550000X1.500000X-0.550000X1.500000X-0.550000X-1.500000X0*%
%ADD22RoundRect,0.200000X0.200000X0.275000X-0.200000X0.275000X-0.200000X-0.275000X0.200000X-0.275000X0*%
%ADD23RoundRect,0.250000X-1.000000X-0.900000X1.000000X-0.900000X1.000000X0.900000X-1.000000X0.900000X0*%
%ADD24RoundRect,0.200000X0.275000X-0.200000X0.275000X0.200000X-0.275000X0.200000X-0.275000X-0.200000X0*%
%ADD25RoundRect,0.250000X1.950000X1.000000X-1.950000X1.000000X-1.950000X-1.000000X1.950000X-1.000000X0*%
%ADD26RoundRect,0.225000X0.225000X0.250000X-0.225000X0.250000X-0.225000X-0.250000X0.225000X-0.250000X0*%
%ADD27RoundRect,0.218750X-0.218750X-0.256250X0.218750X-0.256250X0.218750X0.256250X-0.218750X0.256250X0*%
%ADD28RoundRect,0.200000X-0.275000X0.200000X-0.275000X-0.200000X0.275000X-0.200000X0.275000X0.200000X0*%
%ADD29R,1.600000X1.400000*%
%ADD30RoundRect,0.218750X0.218750X0.256250X-0.218750X0.256250X-0.218750X-0.256250X0.218750X-0.256250X0*%
%ADD31RoundRect,0.150000X-0.587500X-0.150000X0.587500X-0.150000X0.587500X0.150000X-0.587500X0.150000X0*%
%ADD32R,1.400000X1.600000*%
%ADD33RoundRect,0.250000X0.262500X0.450000X-0.262500X0.450000X-0.262500X-0.450000X0.262500X-0.450000X0*%
%ADD34RoundRect,0.218750X-0.256250X0.218750X-0.256250X-0.218750X0.256250X-0.218750X0.256250X0.218750X0*%
%ADD35RoundRect,0.135000X0.135000X0.185000X-0.135000X0.185000X-0.135000X-0.185000X0.135000X-0.185000X0*%
%ADD36RoundRect,0.135000X-0.135000X-0.185000X0.135000X-0.185000X0.135000X0.185000X-0.135000X0.185000X0*%
%ADD37RoundRect,0.885400X-0.279600X-0.649600X0.279600X-0.649600X0.279600X0.649600X-0.279600X0.649600X0*%
%ADD38RoundRect,0.250000X0.625000X-0.312500X0.625000X0.312500X-0.625000X0.312500X-0.625000X-0.312500X0*%
%ADD39RoundRect,0.225000X0.250000X-0.225000X0.250000X0.225000X-0.250000X0.225000X-0.250000X-0.225000X0*%
%ADD40RoundRect,0.250000X-1.950000X-1.000000X1.950000X-1.000000X1.950000X1.000000X-1.950000X1.000000X0*%
%ADD41RoundRect,0.250000X1.000000X0.900000X-1.000000X0.900000X-1.000000X-0.900000X1.000000X-0.900000X0*%
%ADD42RoundRect,0.250000X-2.050000X-0.300000X2.050000X-0.300000X2.050000X0.300000X-2.050000X0.300000X0*%
%ADD43RoundRect,0.250000X-2.025000X-2.375000X2.025000X-2.375000X2.025000X2.375000X-2.025000X2.375000X0*%
%ADD44R,1.240000X0.600000*%
%ADD45R,1.240000X0.300000*%
%ADD46R,2.000000X1.500000*%
%ADD47R,2.000000X3.800000*%
%ADD48R,3.600000X2.700000*%
%ADD49RoundRect,0.250000X-1.500000X-0.550000X1.500000X-0.550000X1.500000X0.550000X-1.500000X0.550000X0*%
%ADD50RoundRect,0.250000X-0.262500X-0.450000X0.262500X-0.450000X0.262500X0.450000X-0.262500X0.450000X0*%
%ADD51R,1.400000X1.200000*%
%ADD52RoundRect,0.885400X0.649600X-0.279600X0.649600X0.279600X-0.649600X0.279600X-0.649600X-0.279600X0*%
%ADD53RoundRect,0.150000X-0.825000X-0.150000X0.825000X-0.150000X0.825000X0.150000X-0.825000X0.150000X0*%
G04 APERTURE END LIST*
D10*
%TO.C,C12*%
X57410000Y-144520000D03*
X52010000Y-144520000D03*
%TD*%
D11*
%TO.C,R14*%
X104840000Y-84290000D03*
X106490000Y-84290000D03*
%TD*%
%TO.C,R20*%
X52355000Y-73000000D03*
X54005000Y-73000000D03*
%TD*%
D12*
%TO.C,U5*%
X83285000Y-134935000D03*
X84985000Y-134935000D03*
X86685000Y-134935000D03*
D13*
X83910000Y-128210000D03*
X89460000Y-128210000D03*
X83910000Y-123360000D03*
X89460000Y-123360000D03*
D12*
X88385000Y-134935000D03*
X90085000Y-134935000D03*
%TD*%
D11*
%TO.C,R19*%
X115052500Y-73930000D03*
X116702500Y-73930000D03*
%TD*%
D14*
%TO.C,L3*%
X83050000Y-76210000D03*
X74750000Y-76210000D03*
%TD*%
D15*
%TO.C,D8*%
X83860000Y-84220000D03*
X87860000Y-84220000D03*
%TD*%
D16*
%TO.C,SW6*%
X74360000Y-122560000D03*
X78560000Y-122560000D03*
%TD*%
D17*
%TO.C,U3*%
X51480000Y-112450000D03*
X52750000Y-112450000D03*
X54020000Y-112450000D03*
X55290000Y-112450000D03*
X56560000Y-112450000D03*
X57830000Y-112450000D03*
X59100000Y-112450000D03*
X60370000Y-112450000D03*
X61640000Y-112450000D03*
X62910000Y-112450000D03*
X64180000Y-112450000D03*
X65450000Y-112450000D03*
X66720000Y-112450000D03*
X67990000Y-112450000D03*
D18*
X69240000Y-109415000D03*
X69240000Y-108145000D03*
X69240000Y-106875000D03*
X69240000Y-105605000D03*
X69240000Y-104335000D03*
X69240000Y-103065000D03*
X69240000Y-101795000D03*
X69240000Y-100525000D03*
X69240000Y-99255000D03*
X69240000Y-97985000D03*
D17*
X67990000Y-94950000D03*
X66720000Y-94950000D03*
X65450000Y-94950000D03*
X64180000Y-94950000D03*
X62910000Y-94950000D03*
X61640000Y-94950000D03*
X60370000Y-94950000D03*
X59100000Y-94950000D03*
X57830000Y-94950000D03*
X56560000Y-94950000D03*
X55290000Y-94950000D03*
X54020000Y-94950000D03*
X52750000Y-94950000D03*
X51480000Y-94950000D03*
D19*
X57800000Y-106600000D03*
X57800000Y-105200000D03*
X57800000Y-103800000D03*
X59200000Y-106600000D03*
X59200000Y-105200000D03*
X59200000Y-103800000D03*
X60600000Y-106600000D03*
X60600000Y-105200000D03*
X60600000Y-103800000D03*
%TD*%
D20*
%TO.C,C24*%
X74725000Y-130050000D03*
X76275000Y-130050000D03*
%TD*%
D21*
%TO.C,C9*%
X88790000Y-145080000D03*
X88790000Y-139680000D03*
%TD*%
D12*
%TO.C,U4*%
X117610000Y-113250000D03*
X119310000Y-113250000D03*
X121010000Y-113250000D03*
D13*
X118235000Y-106525000D03*
X123785000Y-106525000D03*
X118235000Y-101675000D03*
X123785000Y-101675000D03*
D12*
X122710000Y-113250000D03*
X124410000Y-113250000D03*
%TD*%
D11*
%TO.C,R18*%
X65790000Y-77280000D03*
X67440000Y-77280000D03*
%TD*%
D22*
%TO.C,R11*%
X102885000Y-84110000D03*
X101235000Y-84110000D03*
%TD*%
D20*
%TO.C,C13*%
X81280000Y-149606000D03*
X82830000Y-149606000D03*
%TD*%
D23*
%TO.C,D3*%
X85330000Y-108820000D03*
X89630000Y-108820000D03*
%TD*%
D24*
%TO.C,R8*%
X69010000Y-122015000D03*
X69010000Y-120365000D03*
%TD*%
D25*
%TO.C,C11*%
X102340000Y-130230000D03*
X94940000Y-130230000D03*
%TD*%
D26*
%TO.C,C17*%
X129140000Y-114100000D03*
X127590000Y-114100000D03*
%TD*%
D27*
%TO.C,D18*%
X52044500Y-71120000D03*
X53619500Y-71120000D03*
%TD*%
D28*
%TO.C,R12*%
X89916000Y-100521000D03*
X89916000Y-102171000D03*
%TD*%
D11*
%TO.C,R17*%
X65752500Y-79830000D03*
X67402500Y-79830000D03*
%TD*%
D29*
%TO.C,SW7*%
X60662000Y-66016000D03*
X67862000Y-66016000D03*
X60662000Y-63016000D03*
X67862000Y-63016000D03*
%TD*%
D26*
%TO.C,C3*%
X57990000Y-71950000D03*
X56440000Y-71950000D03*
%TD*%
D20*
%TO.C,C21*%
X67500000Y-130560000D03*
X69050000Y-130560000D03*
%TD*%
%TO.C,C22*%
X67500000Y-127620000D03*
X69050000Y-127620000D03*
%TD*%
D16*
%TO.C,SW5*%
X74320000Y-126020000D03*
X78520000Y-126020000D03*
%TD*%
D30*
%TO.C,D15*%
X64270000Y-79840000D03*
X62695000Y-79840000D03*
%TD*%
D31*
%TO.C,Q1*%
X70785000Y-125110000D03*
X70785000Y-127010000D03*
X72660000Y-126060000D03*
%TD*%
%TO.C,Q2*%
X70780000Y-121680000D03*
X70780000Y-123580000D03*
X72655000Y-122630000D03*
%TD*%
D32*
%TO.C,SW8*%
X69112000Y-68028000D03*
X69112000Y-75228000D03*
X72112000Y-68028000D03*
X72112000Y-75228000D03*
%TD*%
D30*
%TO.C,D13*%
X64180000Y-85620000D03*
X62605000Y-85620000D03*
%TD*%
D20*
%TO.C,C25*%
X70840000Y-120060000D03*
X72390000Y-120060000D03*
%TD*%
D33*
%TO.C,R22*%
X123692500Y-75320000D03*
X121867500Y-75320000D03*
%TD*%
D34*
%TO.C,D10*%
X91694000Y-100558500D03*
X91694000Y-102133500D03*
%TD*%
D30*
%TO.C,D2*%
X128829000Y-122174000D03*
X127254000Y-122174000D03*
%TD*%
D14*
%TO.C,L1*%
X116800000Y-93410000D03*
X125100000Y-93410000D03*
%TD*%
D20*
%TO.C,C15*%
X61695000Y-138940000D03*
X63245000Y-138940000D03*
%TD*%
D30*
%TO.C,D9*%
X102877500Y-86890000D03*
X101302500Y-86890000D03*
%TD*%
%TO.C,D14*%
X64147500Y-82450000D03*
X62572500Y-82450000D03*
%TD*%
D35*
%TO.C,R29*%
X68210000Y-124220000D03*
X67190000Y-124220000D03*
%TD*%
D36*
%TO.C,R25*%
X54090000Y-120320000D03*
X55110000Y-120320000D03*
%TD*%
D27*
%TO.C,D5*%
X115072500Y-72270000D03*
X116647500Y-72270000D03*
%TD*%
D11*
%TO.C,R9*%
X74680000Y-128550000D03*
X76330000Y-128550000D03*
%TD*%
D37*
%TO.C,D7*%
X82157500Y-109060000D03*
X75427500Y-109060000D03*
%TD*%
D38*
%TO.C,R4*%
X106500000Y-101285000D03*
X106500000Y-98360000D03*
%TD*%
D37*
%TO.C,D6*%
X101660000Y-121800000D03*
X94930000Y-121800000D03*
%TD*%
D30*
%TO.C,D11*%
X90247500Y-118100000D03*
X88672500Y-118100000D03*
%TD*%
D11*
%TO.C,R15*%
X65650000Y-85640000D03*
X67300000Y-85640000D03*
%TD*%
D26*
%TO.C,C2*%
X57960000Y-74930000D03*
X56410000Y-74930000D03*
%TD*%
D39*
%TO.C,C10*%
X103930000Y-134340000D03*
X103930000Y-132790000D03*
%TD*%
D30*
%TO.C,D16*%
X64287500Y-77260000D03*
X62712500Y-77260000D03*
%TD*%
D36*
%TO.C,R26*%
X51570000Y-120220000D03*
X52590000Y-120220000D03*
%TD*%
D27*
%TO.C,D12*%
X104972500Y-86940000D03*
X106547500Y-86940000D03*
%TD*%
D20*
%TO.C,C6*%
X127675000Y-112520000D03*
X129225000Y-112520000D03*
%TD*%
D11*
%TO.C,R27*%
X56800000Y-91200000D03*
X58450000Y-91200000D03*
%TD*%
D20*
%TO.C,C14*%
X79222000Y-145034000D03*
X80772000Y-145034000D03*
%TD*%
D26*
%TO.C,C4*%
X57960000Y-70490000D03*
X56410000Y-70490000D03*
%TD*%
D27*
%TO.C,D19*%
X118545000Y-75310000D03*
X120120000Y-75310000D03*
%TD*%
D39*
%TO.C,C23*%
X67540000Y-121995000D03*
X67540000Y-120445000D03*
%TD*%
D40*
%TO.C,C16*%
X52610000Y-136360000D03*
X60010000Y-136360000D03*
%TD*%
D41*
%TO.C,D1*%
X110700000Y-130920000D03*
X106400000Y-130920000D03*
%TD*%
D42*
%TO.C,U6*%
X66890000Y-133640000D03*
X66890000Y-135340000D03*
X66890000Y-137040000D03*
D43*
X73615000Y-134265000D03*
X73615000Y-139815000D03*
X78465000Y-134265000D03*
X78465000Y-139815000D03*
D42*
X66890000Y-138740000D03*
X66890000Y-140440000D03*
%TD*%
D22*
%TO.C,R21*%
X81340000Y-85460000D03*
X79690000Y-85460000D03*
%TD*%
D27*
%TO.C,D20*%
X126962500Y-127750000D03*
X128537500Y-127750000D03*
%TD*%
D44*
%TO.C,J14*%
X58175000Y-123070000D03*
X58175000Y-123870000D03*
D45*
X58175000Y-125020000D03*
X58175000Y-126020000D03*
X58175000Y-126520000D03*
X58175000Y-127520000D03*
D44*
X58175000Y-128670000D03*
X58175000Y-129470000D03*
X58175000Y-129470000D03*
X58175000Y-128670000D03*
D45*
X58175000Y-128020000D03*
X58175000Y-127020000D03*
X58175000Y-125520000D03*
X58175000Y-124520000D03*
D44*
X58175000Y-123870000D03*
X58175000Y-123070000D03*
%TD*%
D25*
%TO.C,C19*%
X127750000Y-67890000D03*
X120350000Y-67890000D03*
%TD*%
D38*
%TO.C,R2*%
X96680000Y-101192500D03*
X96680000Y-98267500D03*
%TD*%
D46*
%TO.C,U2*%
X59980000Y-69390000D03*
X59980000Y-71690000D03*
D47*
X66280000Y-71690000D03*
D46*
X59980000Y-73990000D03*
%TD*%
D20*
%TO.C,C20*%
X67480000Y-129100000D03*
X69030000Y-129100000D03*
%TD*%
%TO.C,C26*%
X80305000Y-94050000D03*
X81855000Y-94050000D03*
%TD*%
D26*
%TO.C,C1*%
X57990000Y-73470000D03*
X56440000Y-73470000D03*
%TD*%
D48*
%TO.C,L2*%
X108730000Y-127070000D03*
X108730000Y-118770000D03*
%TD*%
D27*
%TO.C,D17*%
X76275000Y-85450000D03*
X77850000Y-85450000D03*
%TD*%
D49*
%TO.C,C5*%
X106170000Y-77850000D03*
X111570000Y-77850000D03*
%TD*%
D20*
%TO.C,C18*%
X122450000Y-81100000D03*
X124000000Y-81100000D03*
%TD*%
D33*
%TO.C,R23*%
X129079000Y-123952000D03*
X127254000Y-123952000D03*
%TD*%
D50*
%TO.C,R24*%
X126837500Y-129640000D03*
X128662500Y-129640000D03*
%TD*%
D38*
%TO.C,R3*%
X104010000Y-101125000D03*
X104010000Y-98200000D03*
%TD*%
D50*
%TO.C,R10*%
X80277500Y-95810000D03*
X82102500Y-95810000D03*
%TD*%
D51*
%TO.C,Y1*%
X70780000Y-130370000D03*
X72980000Y-130370000D03*
X72980000Y-128670000D03*
X70780000Y-128670000D03*
%TD*%
D52*
%TO.C,D4*%
X118430000Y-79302500D03*
X118430000Y-86032500D03*
%TD*%
D35*
%TO.C,R28*%
X68210000Y-125490000D03*
X67190000Y-125490000D03*
%TD*%
D20*
%TO.C,C8*%
X83630000Y-146230000D03*
X85180000Y-146230000D03*
%TD*%
D38*
%TO.C,R1*%
X99020000Y-101210000D03*
X99020000Y-98285000D03*
%TD*%
D53*
%TO.C,U7*%
X60590000Y-121660000D03*
X60590000Y-122930000D03*
X60590000Y-124200000D03*
X60590000Y-125470000D03*
X60590000Y-126740000D03*
X60590000Y-128010000D03*
X60590000Y-129280000D03*
X60590000Y-130550000D03*
X65540000Y-130550000D03*
X65540000Y-129280000D03*
X65540000Y-128010000D03*
X65540000Y-126740000D03*
X65540000Y-125470000D03*
X65540000Y-124200000D03*
X65540000Y-122930000D03*
X65540000Y-121660000D03*
%TD*%
D20*
%TO.C,C7*%
X82920000Y-144740000D03*
X84470000Y-144740000D03*
%TD*%
D22*
%TO.C,R13*%
X90445000Y-116480000D03*
X88795000Y-116480000D03*
%TD*%
D11*
%TO.C,R16*%
X65625000Y-82470000D03*
X67275000Y-82470000D03*
%TD*%
M02*
