M48
; DRILL file {KiCad 8.0.2} date 2024-06-04T14:33:12+0530
; FORMAT={-:-/ absolute / inch / decimal}
; #@! TF.CreationDate,2024-06-04T14:33:12+05:30
; #@! TF.GenerationSoftware,Kicad,Pcbnew,8.0.2
; #@! TF.FileFunction,Plated,1,2,PTH
FMAT,2
INCH
; #@! TA.AperFunction,Plated,PTH,ComponentDrill
T1C0.0079
; #@! TA.AperFunction,Plated,PTH,ViaDrill
T2C0.0118
; #@! TA.AperFunction,Plated,PTH,ViaDrill
T3C0.0157
; #@! TA.AperFunction,Plated,PTH,ComponentDrill
T4C0.0236
; #@! TA.AperFunction,Plated,PTH,ComponentDrill
T5C0.0280
; #@! TA.AperFunction,Plated,PTH,ComponentDrill
T6C0.0280
; #@! TA.AperFunction,Plated,PTH,ComponentDrill
T7C0.0283
; #@! TA.AperFunction,Plated,PTH,ComponentDrill
T8C0.0320
; #@! TA.AperFunction,Plated,PTH,ComponentDrill
T9C0.0394
; #@! TA.AperFunction,Plated,PTH,ComponentDrill
T10C0.0400
; #@! TA.AperFunction,Plated,PTH,ComponentDrill
T11C0.0413
; #@! TA.AperFunction,Plated,PTH,ComponentDrill
T12C0.0520
; #@! TA.AperFunction,Plated,PTH,ComponentDrill
T13C0.0598
; #@! TA.AperFunction,Plated,PTH,ComponentDrill
T14C0.0728
; #@! TA.AperFunction,Plated,PTH,ComponentDrill
T15C0.1063
%
G90
G05
T1
X2.2756Y-4.1142
X2.2756Y-4.1693
X2.3031Y-4.0866
X2.3031Y-4.1417
X2.3031Y-4.1969
X2.3307Y-4.1142
X2.3307Y-4.1693
X2.3583Y-4.0866
X2.3583Y-4.1417
X2.3583Y-4.1969
X2.3858Y-4.1142
X2.3858Y-4.1693
T2
X2.1587Y-4.8354
X2.1925Y-4.2256
X2.2157Y-4.363
X2.235Y-4.913
X2.2654Y-3.6642
X2.3669Y-4.7492
X2.4213Y-3.9862
X2.4406Y-4.8177
X2.4409Y-4.1634
X2.4957Y-5.3965
X2.5024Y-5.3421
X2.6033Y-4.7124
X2.6252Y-3.8449
X2.65Y-4.01
X2.72Y-2.53
X2.81Y-3.69
X2.81Y-4.01
X2.91Y-4.01
X2.97Y-4.04
X2.99Y-3.72
X3.0Y-3.79
X3.06Y-4.04
X3.2028Y-4.439
X3.2398Y-5.4657
X3.63Y-5.44
X3.9882Y-4.0512
X5.0154Y-4.1579
T3
X1.99Y-2.96
X2.0325Y-5.0935
X2.09Y-3.81
X2.0906Y-4.8504
X2.1786Y-5.0852
X2.222Y-5.0173
X2.2441Y-4.2913
X2.27Y-4.51
X2.2835Y-5.5512
X2.4Y-4.26
X2.41Y-4.36
X2.4409Y-4.0846
X2.4606Y-5.2264
X2.5197Y-4.8031
X2.82Y-3.19
X2.85Y-3.38
X2.9626Y-3.9469
X3.05Y-2.89
X3.0709Y-5.128
X3.2874Y-3.7402
X3.38Y-5.44
X3.4547Y-4.0453
X3.48Y-4.19
X3.54Y-3.04
X3.5433Y-4.1878
X4.0551Y-4.1535
X4.11Y-5.38
X4.1358Y-4.087
X4.16Y-5.29
X4.252Y-4.0748
X4.4335Y-2.8882
X5.05Y-5.69
T5
X2.85Y-2.55
X2.95Y-2.55
X3.05Y-2.55
X3.41Y-5.92
X3.51Y-5.92
X3.61Y-5.92
X5.02Y-3.15
X5.02Y-3.25
X5.02Y-3.35
T6
X4.614Y-4.6783
X4.8128Y-4.6783
T7
X2.5364Y-5.7028
X2.936Y-5.7539
X3.525Y-2.863
X3.9246Y-2.9142
T8
X3.3374Y-3.65
X3.3374Y-3.85
X3.4374Y-3.65
X3.4374Y-3.85
X3.5374Y-3.65
X3.5374Y-3.85
X3.6614Y-3.135
X3.6614Y-3.335
X3.7614Y-3.135
X3.7614Y-3.335
X3.8614Y-3.135
X3.8614Y-3.335
X4.574Y-4.8661
X4.574Y-5.0661
X4.674Y-4.8661
X4.674Y-5.0661
X4.774Y-4.8661
X4.774Y-5.0661
T9
X2.0429Y-3.4878
X2.052Y-4.624
X2.1429Y-3.4878
X2.152Y-4.624
X2.2429Y-3.4878
X2.252Y-4.624
X2.3429Y-3.4878
X2.352Y-4.624
X2.4429Y-3.4878
X2.452Y-4.624
X2.5429Y-3.4878
X2.552Y-4.624
X2.6429Y-3.4878
X2.652Y-4.624
X2.7429Y-3.4878
X2.752Y-4.624
X2.8374Y-4.2701
X2.8374Y-4.3701
X2.8382Y-3.8089
X2.8382Y-3.9089
X2.84Y-4.12
X2.8429Y-3.4878
X2.852Y-4.624
X2.94Y-4.12
X2.9429Y-3.4878
X2.952Y-4.624
X3.04Y-4.12
X3.0429Y-3.4878
X3.052Y-4.624
X3.14Y-4.12
X3.1429Y-3.4878
X3.152Y-4.624
X3.24Y-4.12
X3.2429Y-3.4878
X3.252Y-4.624
X3.34Y-4.12
X3.3429Y-3.4878
X3.352Y-4.624
X3.44Y-4.12
X3.54Y-4.12
X3.7059Y-4.5398
X3.7114Y-3.5791
X3.8059Y-4.5398
X3.8114Y-3.5791
X3.9059Y-4.5398
X3.9114Y-3.5791
X4.0059Y-4.5398
X4.0114Y-3.5791
X4.1059Y-4.5398
X4.1114Y-3.5791
X4.2059Y-4.5398
X4.2114Y-3.5791
X4.3059Y-4.5398
X4.3114Y-3.5791
X4.4059Y-4.5398
X4.4114Y-3.5791
T10
X2.0299Y-3.2512
X2.0303Y-3.0362
X2.0323Y-3.3594
X2.0327Y-3.1417
X2.1299Y-3.2512
X2.1303Y-3.0362
X2.1323Y-3.3594
X2.1327Y-3.1417
X2.2299Y-3.2512
X2.2303Y-3.0362
X2.2323Y-3.3594
X2.2327Y-3.1417
T11
X2.5008Y-5.96
X2.5992Y-5.96
X2.8708Y-5.9607
X2.9692Y-5.9607
X3.2908Y-2.5693
X3.3892Y-2.5693
X3.6716Y-2.5687
X3.77Y-2.5687
T12
X3.7004Y-3.7598
X3.7004Y-4.3598
X3.8004Y-3.7598
X3.8004Y-4.3598
X3.9004Y-3.7598
X3.9004Y-4.3598
X4.0004Y-3.7598
X4.0004Y-4.3598
X4.1004Y-3.7598
X4.1004Y-4.3598
X4.2004Y-3.7598
X4.2004Y-4.3598
X4.3004Y-3.7598
X4.3004Y-4.3598
X4.4004Y-3.7598
X4.4004Y-4.3598
T13
X4.0071Y-2.6098
X4.2071Y-2.6098
T14
X4.6799Y-5.9425
X4.865Y-5.9425
X5.05Y-5.9425
T15
X3.913Y-5.5094
X4.1965Y-5.5094
X4.5252Y-5.3339
X4.5252Y-5.6173
T4
G00X2.1171Y-4.8012
M15
G01X2.0856Y-4.8012
M16
G05
G00X2.1171Y-5.1413
M15
G01X2.0856Y-5.1413
M16
G05
G00X2.2884Y-4.8012
M15
G01X2.2451Y-4.8012
M16
G05
G00X2.2884Y-5.1413
M15
G01X2.2451Y-5.1413
M16
G05
G00X3.789Y-5.7673
M15
G01X3.789Y-5.724
M16
G05
G00X4.3205Y-5.7673
M15
G01X4.3205Y-5.724
M16
G05
G00X4.7831Y-5.2098
M15
G01X4.7398Y-5.2098
M16
G05
G00X4.7831Y-5.7413
M15
G01X4.7398Y-5.7413
M16
G05
M30
