%TF.GenerationSoftware,KiCad,Pcbnew,8.0.2*%
%TF.CreationDate,2024-05-19T21:43:39+05:30*%
%TF.ProjectId,Evoborne,45766f62-6f72-46e6-952e-6b696361645f,rev?*%
%TF.SameCoordinates,Original*%
%TF.FileFunction,Soldermask,Bot*%
%TF.FilePolarity,Negative*%
%FSLAX46Y46*%
G04 Gerber Fmt 4.6, Leading zero omitted, Abs format (unit mm)*
G04 Created by KiCad (PCBNEW 8.0.2) date 2024-05-19 21:43:39*
%MOMM*%
%LPD*%
G01*
G04 APERTURE LIST*
G04 Aperture macros list*
%AMRoundRect*
0 Rectangle with rounded corners*
0 $1 Rounding radius*
0 $2 $3 $4 $5 $6 $7 $8 $9 X,Y pos of 4 corners*
0 Add a 4 corners polygon primitive as box body*
4,1,4,$2,$3,$4,$5,$6,$7,$8,$9,$2,$3,0*
0 Add four circle primitives for the rounded corners*
1,1,$1+$1,$2,$3*
1,1,$1+$1,$4,$5*
1,1,$1+$1,$6,$7*
1,1,$1+$1,$8,$9*
0 Add four rect primitives between the rounded corners*
20,1,$1+$1,$2,$3,$4,$5,0*
20,1,$1+$1,$4,$5,$6,$7,0*
20,1,$1+$1,$6,$7,$8,$9,0*
20,1,$1+$1,$8,$9,$2,$3,0*%
%AMFreePoly0*
4,1,25,0.440719,0.844196,0.452842,0.833842,0.833842,0.452842,0.862349,0.396894,0.863600,0.381000,0.863600,-0.381000,0.844196,-0.440719,0.833842,-0.452842,0.452842,-0.833842,0.396894,-0.862349,0.381000,-0.863600,-0.381000,-0.863600,-0.440719,-0.844196,-0.452842,-0.833842,-0.833842,-0.452842,-0.862349,-0.396894,-0.863600,-0.381000,-0.863600,0.381000,-0.844196,0.440719,-0.833842,0.452842,
-0.452842,0.833842,-0.396894,0.862349,-0.381000,0.863600,0.381000,0.863600,0.440719,0.844196,0.440719,0.844196,$1*%
G04 Aperture macros list end*
%ADD10RoundRect,0.101600X-0.762000X0.762000X-0.762000X-0.762000X0.762000X-0.762000X0.762000X0.762000X0*%
%ADD11FreePoly0,270.000000*%
%ADD12R,1.700000X1.700000*%
%ADD13O,1.700000X1.700000*%
%ADD14RoundRect,0.102000X0.787500X0.787500X-0.787500X0.787500X-0.787500X-0.787500X0.787500X-0.787500X0*%
%ADD15C,1.779000*%
%ADD16RoundRect,0.102000X-0.609000X-0.609000X0.609000X-0.609000X0.609000X0.609000X-0.609000X0.609000X0*%
%ADD17C,1.422000*%
%ADD18C,3.200000*%
%ADD19O,1.524000X2.844800*%
%ADD20RoundRect,0.102000X-0.787500X-0.787500X0.787500X-0.787500X0.787500X0.787500X-0.787500X0.787500X0*%
%ADD21C,2.184000*%
%ADD22R,0.900000X2.000000*%
%ADD23RoundRect,1.025000X1.025000X1.025000X-1.025000X1.025000X-1.025000X-1.025000X1.025000X-1.025000X0*%
%ADD24C,4.100000*%
%ADD25RoundRect,0.102000X0.609000X-0.609000X0.609000X0.609000X-0.609000X0.609000X-0.609000X-0.609000X0*%
%ADD26C,1.432000*%
%ADD27R,3.000000X3.000000*%
%ADD28C,3.000000*%
%ADD29C,0.650000*%
%ADD30O,2.100000X1.000000*%
%ADD31O,1.800000X1.000000*%
%ADD32C,1.219000*%
%ADD33RoundRect,0.102000X-1.387500X-1.387500X1.387500X-1.387500X1.387500X1.387500X-1.387500X1.387500X0*%
%ADD34C,2.979000*%
%ADD35R,2.000000X0.900000*%
%ADD36RoundRect,1.025000X-1.025000X1.025000X-1.025000X-1.025000X1.025000X-1.025000X1.025000X1.025000X0*%
G04 APERTURE END LIST*
D10*
%TO.C,J6*%
X56640000Y-82580000D03*
D11*
X54100000Y-82580000D03*
X51560000Y-82580000D03*
%TD*%
D12*
%TO.C,J12*%
X94130000Y-115310000D03*
D13*
X96670000Y-115310000D03*
X99210000Y-115310000D03*
X101750000Y-115310000D03*
X104290000Y-115310000D03*
X106830000Y-115310000D03*
X109370000Y-115310000D03*
X111910000Y-115310000D03*
%TD*%
D10*
%TO.C,J5*%
X56700000Y-85330000D03*
D11*
X54160000Y-85330000D03*
X51620000Y-85330000D03*
%TD*%
D14*
%TO.C,J4*%
X86086000Y-65261000D03*
D15*
X83586000Y-65261000D03*
%TD*%
D12*
%TO.C,J17*%
X51890000Y-88590000D03*
D13*
X54430000Y-88590000D03*
X56970000Y-88590000D03*
X59510000Y-88590000D03*
X62050000Y-88590000D03*
X64590000Y-88590000D03*
X67130000Y-88590000D03*
X69670000Y-88590000D03*
X72210000Y-88590000D03*
X74750000Y-88590000D03*
X77290000Y-88590000D03*
X79830000Y-88590000D03*
X82370000Y-88590000D03*
X84910000Y-88590000D03*
%TD*%
D12*
%TO.C,J11*%
X94270000Y-90910000D03*
D13*
X96810000Y-90910000D03*
X99350000Y-90910000D03*
X101890000Y-90910000D03*
X104430000Y-90910000D03*
X106970000Y-90910000D03*
X109510000Y-90910000D03*
X112050000Y-90910000D03*
%TD*%
D16*
%TO.C,R6*%
X72390000Y-64770000D03*
D17*
X74930000Y-64770000D03*
X77470000Y-64770000D03*
%TD*%
D12*
%TO.C,J15*%
X72136000Y-104648000D03*
D13*
X74676000Y-104648000D03*
X77216000Y-104648000D03*
X79756000Y-104648000D03*
X82296000Y-104648000D03*
X84836000Y-104648000D03*
X87376000Y-104648000D03*
X89916000Y-104648000D03*
%TD*%
D18*
%TO.C,H2*%
X54980000Y-65620000D03*
%TD*%
D10*
%TO.C,J8*%
X56650000Y-77120000D03*
D11*
X54110000Y-77120000D03*
X51570000Y-77120000D03*
%TD*%
D19*
%TO.C,SW3*%
X84770000Y-92710000D03*
X87310000Y-92710000D03*
X89850000Y-92710000D03*
X84770000Y-97790000D03*
X87310000Y-97790000D03*
X89850000Y-97790000D03*
%TD*%
D12*
%TO.C,J18*%
X72070000Y-110225000D03*
D13*
X72070000Y-107685000D03*
%TD*%
D18*
%TO.C,H3*%
X113020000Y-65430000D03*
%TD*%
D10*
%TO.C,J7*%
X56710000Y-79800000D03*
D11*
X54170000Y-79800000D03*
X51630000Y-79800000D03*
%TD*%
D19*
%TO.C,SW2*%
X121260000Y-128680000D03*
X118720000Y-128680000D03*
X116180000Y-128680000D03*
X121260000Y-123600000D03*
X118720000Y-123600000D03*
X116180000Y-123600000D03*
%TD*%
D20*
%TO.C,J1*%
X63520000Y-151384000D03*
D15*
X66020000Y-151384000D03*
%TD*%
D20*
%TO.C,J2*%
X72918000Y-151401000D03*
D15*
X75418000Y-151401000D03*
%TD*%
D21*
%TO.C,U1*%
X93990000Y-110740000D03*
X96530000Y-110740000D03*
X99070000Y-110740000D03*
X101610000Y-110740000D03*
X104150000Y-110740000D03*
X106690000Y-110740000D03*
X109230000Y-110740000D03*
X111770000Y-110740000D03*
X111770000Y-95500000D03*
X109230000Y-95500000D03*
X106690000Y-95500000D03*
X104150000Y-95500000D03*
X101610000Y-95500000D03*
X99070000Y-95500000D03*
X96530000Y-95500000D03*
X93990000Y-95500000D03*
%TD*%
D12*
%TO.C,J16*%
X52120000Y-117450000D03*
D13*
X54660000Y-117450000D03*
X57200000Y-117450000D03*
X59740000Y-117450000D03*
X62280000Y-117450000D03*
X64820000Y-117450000D03*
X67360000Y-117450000D03*
X69900000Y-117450000D03*
X72440000Y-117450000D03*
X74980000Y-117450000D03*
X77520000Y-117450000D03*
X80060000Y-117450000D03*
X82600000Y-117450000D03*
X85140000Y-117450000D03*
%TD*%
D22*
%TO.C,J9*%
X109740000Y-145940000D03*
X96240000Y-145940000D03*
D23*
X106590000Y-139940000D03*
D24*
X99390000Y-139940000D03*
%TD*%
D25*
%TO.C,R7*%
X127508000Y-85090000D03*
D17*
X127508000Y-82550000D03*
X127508000Y-80010000D03*
%TD*%
D26*
%TO.C,F2*%
X89535000Y-72720000D03*
X99685000Y-74020000D03*
%TD*%
D12*
%TO.C,J19*%
X72090000Y-99285000D03*
D13*
X72090000Y-96745000D03*
%TD*%
D27*
%TO.C,J13*%
X106860000Y-66290000D03*
D28*
X101780000Y-66290000D03*
%TD*%
D16*
%TO.C,R5*%
X86614000Y-150368000D03*
D17*
X89154000Y-150368000D03*
X91694000Y-150368000D03*
%TD*%
D29*
%TO.C,J14*%
X57055000Y-123380000D03*
X57055000Y-129160000D03*
D30*
X57575000Y-121950000D03*
D31*
X53375000Y-121950000D03*
D30*
X57575000Y-130590000D03*
D31*
X53375000Y-130590000D03*
%TD*%
D18*
%TO.C,H4*%
X55010000Y-151550000D03*
%TD*%
%TO.C,H1*%
X113010000Y-151450000D03*
%TD*%
D32*
%TO.C,F1*%
X122245000Y-118830000D03*
X117195000Y-118830000D03*
%TD*%
D19*
%TO.C,SW4*%
X93000000Y-79630000D03*
X95540000Y-79630000D03*
X98080000Y-79630000D03*
X93000000Y-84710000D03*
X95540000Y-84710000D03*
X98080000Y-84710000D03*
%TD*%
D33*
%TO.C,SW_1*%
X118870000Y-150940000D03*
D34*
X123570000Y-150940000D03*
X128270000Y-150940000D03*
%TD*%
D14*
%TO.C,J3*%
X95758000Y-65244000D03*
D15*
X93258000Y-65244000D03*
%TD*%
D35*
%TO.C,J10*%
X120940000Y-132330000D03*
X120940000Y-145830000D03*
D36*
X114940000Y-142680000D03*
D24*
X114940000Y-135480000D03*
%TD*%
M02*
