%TF.GenerationSoftware,KiCad,Pcbnew,8.0.2*%
%TF.CreationDate,2024-05-19T21:43:49+05:30*%
%TF.ProjectId,Evoborne,45766f62-6f72-46e6-952e-6b696361645f,rev?*%
%TF.SameCoordinates,Original*%
%TF.FileFunction,Drillmap*%
%TF.FilePolarity,Positive*%
%FSLAX45Y45*%
G04 Gerber Fmt 4.5, Leading zero omitted, Abs format (unit mm)*
G04 Created by KiCad (PCBNEW 8.0.2) date 2024-05-19 21:43:49*
%MOMM*%
%LPD*%
G01*
G04 APERTURE LIST*
%ADD10C,0.100000*%
%ADD11C,0.200000*%
%ADD12C,0.320000*%
G04 APERTURE END LIST*
D10*
X4953000Y-6181000D02*
X13040000Y-6181000D01*
X13040000Y-15453800D01*
X4953000Y-15453800D01*
X4953000Y-6181000D01*
D11*
D10*
X5673000Y-12305500D02*
X5738000Y-12370500D01*
X5738000Y-12305500D02*
X5673000Y-12370500D01*
X5673000Y-12883500D02*
X5738000Y-12948500D01*
X5738000Y-12883500D02*
X5673000Y-12948500D01*
D12*
X5658000Y-6562000D02*
G75*
G02*
X5338000Y-6562000I-160000J0D01*
G01*
X5338000Y-6562000D02*
G75*
G02*
X5658000Y-6562000I160000J0D01*
G01*
X5661000Y-15155000D02*
G75*
G02*
X5341000Y-15155000I-160000J0D01*
G01*
X5341000Y-15155000D02*
G75*
G02*
X5661000Y-15155000I160000J0D01*
G01*
X11461000Y-15145000D02*
G75*
G02*
X11141000Y-15145000I-160000J0D01*
G01*
X11141000Y-15145000D02*
G75*
G02*
X11461000Y-15145000I160000J0D01*
G01*
X11462000Y-6543000D02*
G75*
G02*
X11142000Y-6543000I-160000J0D01*
G01*
X11142000Y-6543000D02*
G75*
G02*
X11462000Y-6543000I160000J0D01*
G01*
D11*
X5208777Y-15770284D02*
X5208777Y-15570284D01*
X5208777Y-15570284D02*
X5256396Y-15570284D01*
X5256396Y-15570284D02*
X5284967Y-15579808D01*
X5284967Y-15579808D02*
X5304015Y-15598855D01*
X5304015Y-15598855D02*
X5313539Y-15617903D01*
X5313539Y-15617903D02*
X5323063Y-15655998D01*
X5323063Y-15655998D02*
X5323063Y-15684569D01*
X5323063Y-15684569D02*
X5313539Y-15722665D01*
X5313539Y-15722665D02*
X5304015Y-15741712D01*
X5304015Y-15741712D02*
X5284967Y-15760760D01*
X5284967Y-15760760D02*
X5256396Y-15770284D01*
X5256396Y-15770284D02*
X5208777Y-15770284D01*
X5408777Y-15770284D02*
X5408777Y-15636950D01*
X5408777Y-15675046D02*
X5418301Y-15655998D01*
X5418301Y-15655998D02*
X5427824Y-15646474D01*
X5427824Y-15646474D02*
X5446872Y-15636950D01*
X5446872Y-15636950D02*
X5465920Y-15636950D01*
X5532586Y-15770284D02*
X5532586Y-15636950D01*
X5532586Y-15570284D02*
X5523063Y-15579808D01*
X5523063Y-15579808D02*
X5532586Y-15589331D01*
X5532586Y-15589331D02*
X5542110Y-15579808D01*
X5542110Y-15579808D02*
X5532586Y-15570284D01*
X5532586Y-15570284D02*
X5532586Y-15589331D01*
X5656396Y-15770284D02*
X5637348Y-15760760D01*
X5637348Y-15760760D02*
X5627824Y-15741712D01*
X5627824Y-15741712D02*
X5627824Y-15570284D01*
X5761158Y-15770284D02*
X5742110Y-15760760D01*
X5742110Y-15760760D02*
X5732586Y-15741712D01*
X5732586Y-15741712D02*
X5732586Y-15570284D01*
X5989729Y-15770284D02*
X5989729Y-15570284D01*
X5989729Y-15570284D02*
X6056396Y-15713141D01*
X6056396Y-15713141D02*
X6123062Y-15570284D01*
X6123062Y-15570284D02*
X6123062Y-15770284D01*
X6304015Y-15770284D02*
X6304015Y-15665522D01*
X6304015Y-15665522D02*
X6294491Y-15646474D01*
X6294491Y-15646474D02*
X6275443Y-15636950D01*
X6275443Y-15636950D02*
X6237348Y-15636950D01*
X6237348Y-15636950D02*
X6218301Y-15646474D01*
X6304015Y-15760760D02*
X6284967Y-15770284D01*
X6284967Y-15770284D02*
X6237348Y-15770284D01*
X6237348Y-15770284D02*
X6218301Y-15760760D01*
X6218301Y-15760760D02*
X6208777Y-15741712D01*
X6208777Y-15741712D02*
X6208777Y-15722665D01*
X6208777Y-15722665D02*
X6218301Y-15703617D01*
X6218301Y-15703617D02*
X6237348Y-15694093D01*
X6237348Y-15694093D02*
X6284967Y-15694093D01*
X6284967Y-15694093D02*
X6304015Y-15684569D01*
X6399253Y-15636950D02*
X6399253Y-15836950D01*
X6399253Y-15646474D02*
X6418301Y-15636950D01*
X6418301Y-15636950D02*
X6456396Y-15636950D01*
X6456396Y-15636950D02*
X6475443Y-15646474D01*
X6475443Y-15646474D02*
X6484967Y-15655998D01*
X6484967Y-15655998D02*
X6494491Y-15675046D01*
X6494491Y-15675046D02*
X6494491Y-15732188D01*
X6494491Y-15732188D02*
X6484967Y-15751236D01*
X6484967Y-15751236D02*
X6475443Y-15760760D01*
X6475443Y-15760760D02*
X6456396Y-15770284D01*
X6456396Y-15770284D02*
X6418301Y-15770284D01*
X6418301Y-15770284D02*
X6399253Y-15760760D01*
X6580205Y-15751236D02*
X6589729Y-15760760D01*
X6589729Y-15760760D02*
X6580205Y-15770284D01*
X6580205Y-15770284D02*
X6570682Y-15760760D01*
X6570682Y-15760760D02*
X6580205Y-15751236D01*
X6580205Y-15751236D02*
X6580205Y-15770284D01*
X6580205Y-15646474D02*
X6589729Y-15655998D01*
X6589729Y-15655998D02*
X6580205Y-15665522D01*
X6580205Y-15665522D02*
X6570682Y-15655998D01*
X6570682Y-15655998D02*
X6580205Y-15646474D01*
X6580205Y-15646474D02*
X6580205Y-15665522D01*
D10*
X4883000Y-16066300D02*
X4948000Y-16131300D01*
X4948000Y-16066300D02*
X4883000Y-16131300D01*
D11*
X5246872Y-15990284D02*
X5265920Y-15990284D01*
X5265920Y-15990284D02*
X5284967Y-15999808D01*
X5284967Y-15999808D02*
X5294491Y-16009331D01*
X5294491Y-16009331D02*
X5304015Y-16028379D01*
X5304015Y-16028379D02*
X5313539Y-16066474D01*
X5313539Y-16066474D02*
X5313539Y-16114093D01*
X5313539Y-16114093D02*
X5304015Y-16152188D01*
X5304015Y-16152188D02*
X5294491Y-16171236D01*
X5294491Y-16171236D02*
X5284967Y-16180760D01*
X5284967Y-16180760D02*
X5265920Y-16190284D01*
X5265920Y-16190284D02*
X5246872Y-16190284D01*
X5246872Y-16190284D02*
X5227824Y-16180760D01*
X5227824Y-16180760D02*
X5218301Y-16171236D01*
X5218301Y-16171236D02*
X5208777Y-16152188D01*
X5208777Y-16152188D02*
X5199253Y-16114093D01*
X5199253Y-16114093D02*
X5199253Y-16066474D01*
X5199253Y-16066474D02*
X5208777Y-16028379D01*
X5208777Y-16028379D02*
X5218301Y-16009331D01*
X5218301Y-16009331D02*
X5227824Y-15999808D01*
X5227824Y-15999808D02*
X5246872Y-15990284D01*
X5399253Y-16171236D02*
X5408777Y-16180760D01*
X5408777Y-16180760D02*
X5399253Y-16190284D01*
X5399253Y-16190284D02*
X5389729Y-16180760D01*
X5389729Y-16180760D02*
X5399253Y-16171236D01*
X5399253Y-16171236D02*
X5399253Y-16190284D01*
X5580205Y-15990284D02*
X5542110Y-15990284D01*
X5542110Y-15990284D02*
X5523063Y-15999808D01*
X5523063Y-15999808D02*
X5513539Y-16009331D01*
X5513539Y-16009331D02*
X5494491Y-16037903D01*
X5494491Y-16037903D02*
X5484967Y-16075998D01*
X5484967Y-16075998D02*
X5484967Y-16152188D01*
X5484967Y-16152188D02*
X5494491Y-16171236D01*
X5494491Y-16171236D02*
X5504015Y-16180760D01*
X5504015Y-16180760D02*
X5523063Y-16190284D01*
X5523063Y-16190284D02*
X5561158Y-16190284D01*
X5561158Y-16190284D02*
X5580205Y-16180760D01*
X5580205Y-16180760D02*
X5589729Y-16171236D01*
X5589729Y-16171236D02*
X5599253Y-16152188D01*
X5599253Y-16152188D02*
X5599253Y-16104569D01*
X5599253Y-16104569D02*
X5589729Y-16085522D01*
X5589729Y-16085522D02*
X5580205Y-16075998D01*
X5580205Y-16075998D02*
X5561158Y-16066474D01*
X5561158Y-16066474D02*
X5523063Y-16066474D01*
X5523063Y-16066474D02*
X5504015Y-16075998D01*
X5504015Y-16075998D02*
X5494491Y-16085522D01*
X5494491Y-16085522D02*
X5484967Y-16104569D01*
X5780205Y-15990284D02*
X5684967Y-15990284D01*
X5684967Y-15990284D02*
X5675443Y-16085522D01*
X5675443Y-16085522D02*
X5684967Y-16075998D01*
X5684967Y-16075998D02*
X5704015Y-16066474D01*
X5704015Y-16066474D02*
X5751634Y-16066474D01*
X5751634Y-16066474D02*
X5770682Y-16075998D01*
X5770682Y-16075998D02*
X5780205Y-16085522D01*
X5780205Y-16085522D02*
X5789729Y-16104569D01*
X5789729Y-16104569D02*
X5789729Y-16152188D01*
X5789729Y-16152188D02*
X5780205Y-16171236D01*
X5780205Y-16171236D02*
X5770682Y-16180760D01*
X5770682Y-16180760D02*
X5751634Y-16190284D01*
X5751634Y-16190284D02*
X5704015Y-16190284D01*
X5704015Y-16190284D02*
X5684967Y-16180760D01*
X5684967Y-16180760D02*
X5675443Y-16171236D01*
X5913539Y-15990284D02*
X5932586Y-15990284D01*
X5932586Y-15990284D02*
X5951634Y-15999808D01*
X5951634Y-15999808D02*
X5961158Y-16009331D01*
X5961158Y-16009331D02*
X5970682Y-16028379D01*
X5970682Y-16028379D02*
X5980205Y-16066474D01*
X5980205Y-16066474D02*
X5980205Y-16114093D01*
X5980205Y-16114093D02*
X5970682Y-16152188D01*
X5970682Y-16152188D02*
X5961158Y-16171236D01*
X5961158Y-16171236D02*
X5951634Y-16180760D01*
X5951634Y-16180760D02*
X5932586Y-16190284D01*
X5932586Y-16190284D02*
X5913539Y-16190284D01*
X5913539Y-16190284D02*
X5894491Y-16180760D01*
X5894491Y-16180760D02*
X5884967Y-16171236D01*
X5884967Y-16171236D02*
X5875443Y-16152188D01*
X5875443Y-16152188D02*
X5865920Y-16114093D01*
X5865920Y-16114093D02*
X5865920Y-16066474D01*
X5865920Y-16066474D02*
X5875443Y-16028379D01*
X5875443Y-16028379D02*
X5884967Y-16009331D01*
X5884967Y-16009331D02*
X5894491Y-15999808D01*
X5894491Y-15999808D02*
X5913539Y-15990284D01*
X6065920Y-16190284D02*
X6065920Y-16056950D01*
X6065920Y-16075998D02*
X6075443Y-16066474D01*
X6075443Y-16066474D02*
X6094491Y-16056950D01*
X6094491Y-16056950D02*
X6123063Y-16056950D01*
X6123063Y-16056950D02*
X6142110Y-16066474D01*
X6142110Y-16066474D02*
X6151634Y-16085522D01*
X6151634Y-16085522D02*
X6151634Y-16190284D01*
X6151634Y-16085522D02*
X6161158Y-16066474D01*
X6161158Y-16066474D02*
X6180205Y-16056950D01*
X6180205Y-16056950D02*
X6208777Y-16056950D01*
X6208777Y-16056950D02*
X6227824Y-16066474D01*
X6227824Y-16066474D02*
X6237348Y-16085522D01*
X6237348Y-16085522D02*
X6237348Y-16190284D01*
X6332586Y-16190284D02*
X6332586Y-16056950D01*
X6332586Y-16075998D02*
X6342110Y-16066474D01*
X6342110Y-16066474D02*
X6361158Y-16056950D01*
X6361158Y-16056950D02*
X6389729Y-16056950D01*
X6389729Y-16056950D02*
X6408777Y-16066474D01*
X6408777Y-16066474D02*
X6418301Y-16085522D01*
X6418301Y-16085522D02*
X6418301Y-16190284D01*
X6418301Y-16085522D02*
X6427824Y-16066474D01*
X6427824Y-16066474D02*
X6446872Y-16056950D01*
X6446872Y-16056950D02*
X6475443Y-16056950D01*
X6475443Y-16056950D02*
X6494491Y-16066474D01*
X6494491Y-16066474D02*
X6504015Y-16085522D01*
X6504015Y-16085522D02*
X6504015Y-16190284D01*
X6894491Y-15980760D02*
X6723063Y-16237903D01*
X7151634Y-15990284D02*
X7170682Y-15990284D01*
X7170682Y-15990284D02*
X7189729Y-15999808D01*
X7189729Y-15999808D02*
X7199253Y-16009331D01*
X7199253Y-16009331D02*
X7208777Y-16028379D01*
X7208777Y-16028379D02*
X7218301Y-16066474D01*
X7218301Y-16066474D02*
X7218301Y-16114093D01*
X7218301Y-16114093D02*
X7208777Y-16152188D01*
X7208777Y-16152188D02*
X7199253Y-16171236D01*
X7199253Y-16171236D02*
X7189729Y-16180760D01*
X7189729Y-16180760D02*
X7170682Y-16190284D01*
X7170682Y-16190284D02*
X7151634Y-16190284D01*
X7151634Y-16190284D02*
X7132586Y-16180760D01*
X7132586Y-16180760D02*
X7123063Y-16171236D01*
X7123063Y-16171236D02*
X7113539Y-16152188D01*
X7113539Y-16152188D02*
X7104015Y-16114093D01*
X7104015Y-16114093D02*
X7104015Y-16066474D01*
X7104015Y-16066474D02*
X7113539Y-16028379D01*
X7113539Y-16028379D02*
X7123063Y-16009331D01*
X7123063Y-16009331D02*
X7132586Y-15999808D01*
X7132586Y-15999808D02*
X7151634Y-15990284D01*
X7304015Y-16171236D02*
X7313539Y-16180760D01*
X7313539Y-16180760D02*
X7304015Y-16190284D01*
X7304015Y-16190284D02*
X7294491Y-16180760D01*
X7294491Y-16180760D02*
X7304015Y-16171236D01*
X7304015Y-16171236D02*
X7304015Y-16190284D01*
X7437348Y-15990284D02*
X7456396Y-15990284D01*
X7456396Y-15990284D02*
X7475444Y-15999808D01*
X7475444Y-15999808D02*
X7484967Y-16009331D01*
X7484967Y-16009331D02*
X7494491Y-16028379D01*
X7494491Y-16028379D02*
X7504015Y-16066474D01*
X7504015Y-16066474D02*
X7504015Y-16114093D01*
X7504015Y-16114093D02*
X7494491Y-16152188D01*
X7494491Y-16152188D02*
X7484967Y-16171236D01*
X7484967Y-16171236D02*
X7475444Y-16180760D01*
X7475444Y-16180760D02*
X7456396Y-16190284D01*
X7456396Y-16190284D02*
X7437348Y-16190284D01*
X7437348Y-16190284D02*
X7418301Y-16180760D01*
X7418301Y-16180760D02*
X7408777Y-16171236D01*
X7408777Y-16171236D02*
X7399253Y-16152188D01*
X7399253Y-16152188D02*
X7389729Y-16114093D01*
X7389729Y-16114093D02*
X7389729Y-16066474D01*
X7389729Y-16066474D02*
X7399253Y-16028379D01*
X7399253Y-16028379D02*
X7408777Y-16009331D01*
X7408777Y-16009331D02*
X7418301Y-15999808D01*
X7418301Y-15999808D02*
X7437348Y-15990284D01*
X7580206Y-16009331D02*
X7589729Y-15999808D01*
X7589729Y-15999808D02*
X7608777Y-15990284D01*
X7608777Y-15990284D02*
X7656396Y-15990284D01*
X7656396Y-15990284D02*
X7675444Y-15999808D01*
X7675444Y-15999808D02*
X7684967Y-16009331D01*
X7684967Y-16009331D02*
X7694491Y-16028379D01*
X7694491Y-16028379D02*
X7694491Y-16047427D01*
X7694491Y-16047427D02*
X7684967Y-16075998D01*
X7684967Y-16075998D02*
X7570682Y-16190284D01*
X7570682Y-16190284D02*
X7694491Y-16190284D01*
X7875444Y-15990284D02*
X7780206Y-15990284D01*
X7780206Y-15990284D02*
X7770682Y-16085522D01*
X7770682Y-16085522D02*
X7780206Y-16075998D01*
X7780206Y-16075998D02*
X7799253Y-16066474D01*
X7799253Y-16066474D02*
X7846872Y-16066474D01*
X7846872Y-16066474D02*
X7865920Y-16075998D01*
X7865920Y-16075998D02*
X7875444Y-16085522D01*
X7875444Y-16085522D02*
X7884967Y-16104569D01*
X7884967Y-16104569D02*
X7884967Y-16152188D01*
X7884967Y-16152188D02*
X7875444Y-16171236D01*
X7875444Y-16171236D02*
X7865920Y-16180760D01*
X7865920Y-16180760D02*
X7846872Y-16190284D01*
X7846872Y-16190284D02*
X7799253Y-16190284D01*
X7799253Y-16190284D02*
X7780206Y-16180760D01*
X7780206Y-16180760D02*
X7770682Y-16171236D01*
X8056396Y-15990284D02*
X8018301Y-15990284D01*
X8018301Y-15990284D02*
X7999253Y-15999808D01*
X7999253Y-15999808D02*
X7989729Y-16009331D01*
X7989729Y-16009331D02*
X7970682Y-16037903D01*
X7970682Y-16037903D02*
X7961158Y-16075998D01*
X7961158Y-16075998D02*
X7961158Y-16152188D01*
X7961158Y-16152188D02*
X7970682Y-16171236D01*
X7970682Y-16171236D02*
X7980206Y-16180760D01*
X7980206Y-16180760D02*
X7999253Y-16190284D01*
X7999253Y-16190284D02*
X8037348Y-16190284D01*
X8037348Y-16190284D02*
X8056396Y-16180760D01*
X8056396Y-16180760D02*
X8065920Y-16171236D01*
X8065920Y-16171236D02*
X8075444Y-16152188D01*
X8075444Y-16152188D02*
X8075444Y-16104569D01*
X8075444Y-16104569D02*
X8065920Y-16085522D01*
X8065920Y-16085522D02*
X8056396Y-16075998D01*
X8056396Y-16075998D02*
X8037348Y-16066474D01*
X8037348Y-16066474D02*
X7999253Y-16066474D01*
X7999253Y-16066474D02*
X7980206Y-16075998D01*
X7980206Y-16075998D02*
X7970682Y-16085522D01*
X7970682Y-16085522D02*
X7961158Y-16104569D01*
X8151634Y-15990284D02*
X8151634Y-16028379D01*
X8227825Y-15990284D02*
X8227825Y-16028379D01*
X8523063Y-16266474D02*
X8513539Y-16256950D01*
X8513539Y-16256950D02*
X8494491Y-16228379D01*
X8494491Y-16228379D02*
X8484968Y-16209331D01*
X8484968Y-16209331D02*
X8475444Y-16180760D01*
X8475444Y-16180760D02*
X8465920Y-16133141D01*
X8465920Y-16133141D02*
X8465920Y-16095046D01*
X8465920Y-16095046D02*
X8475444Y-16047427D01*
X8475444Y-16047427D02*
X8484968Y-16018855D01*
X8484968Y-16018855D02*
X8494491Y-15999808D01*
X8494491Y-15999808D02*
X8513539Y-15971236D01*
X8513539Y-15971236D02*
X8523063Y-15961712D01*
X8589730Y-16009331D02*
X8599253Y-15999808D01*
X8599253Y-15999808D02*
X8618301Y-15990284D01*
X8618301Y-15990284D02*
X8665920Y-15990284D01*
X8665920Y-15990284D02*
X8684968Y-15999808D01*
X8684968Y-15999808D02*
X8694491Y-16009331D01*
X8694491Y-16009331D02*
X8704015Y-16028379D01*
X8704015Y-16028379D02*
X8704015Y-16047427D01*
X8704015Y-16047427D02*
X8694491Y-16075998D01*
X8694491Y-16075998D02*
X8580206Y-16190284D01*
X8580206Y-16190284D02*
X8704015Y-16190284D01*
X8942111Y-16190284D02*
X8942111Y-15990284D01*
X9027825Y-16190284D02*
X9027825Y-16085522D01*
X9027825Y-16085522D02*
X9018301Y-16066474D01*
X9018301Y-16066474D02*
X8999253Y-16056950D01*
X8999253Y-16056950D02*
X8970682Y-16056950D01*
X8970682Y-16056950D02*
X8951634Y-16066474D01*
X8951634Y-16066474D02*
X8942111Y-16075998D01*
X9151634Y-16190284D02*
X9132587Y-16180760D01*
X9132587Y-16180760D02*
X9123063Y-16171236D01*
X9123063Y-16171236D02*
X9113539Y-16152188D01*
X9113539Y-16152188D02*
X9113539Y-16095046D01*
X9113539Y-16095046D02*
X9123063Y-16075998D01*
X9123063Y-16075998D02*
X9132587Y-16066474D01*
X9132587Y-16066474D02*
X9151634Y-16056950D01*
X9151634Y-16056950D02*
X9180206Y-16056950D01*
X9180206Y-16056950D02*
X9199253Y-16066474D01*
X9199253Y-16066474D02*
X9208777Y-16075998D01*
X9208777Y-16075998D02*
X9218301Y-16095046D01*
X9218301Y-16095046D02*
X9218301Y-16152188D01*
X9218301Y-16152188D02*
X9208777Y-16171236D01*
X9208777Y-16171236D02*
X9199253Y-16180760D01*
X9199253Y-16180760D02*
X9180206Y-16190284D01*
X9180206Y-16190284D02*
X9151634Y-16190284D01*
X9332587Y-16190284D02*
X9313539Y-16180760D01*
X9313539Y-16180760D02*
X9304015Y-16161712D01*
X9304015Y-16161712D02*
X9304015Y-15990284D01*
X9484968Y-16180760D02*
X9465920Y-16190284D01*
X9465920Y-16190284D02*
X9427825Y-16190284D01*
X9427825Y-16190284D02*
X9408777Y-16180760D01*
X9408777Y-16180760D02*
X9399253Y-16161712D01*
X9399253Y-16161712D02*
X9399253Y-16085522D01*
X9399253Y-16085522D02*
X9408777Y-16066474D01*
X9408777Y-16066474D02*
X9427825Y-16056950D01*
X9427825Y-16056950D02*
X9465920Y-16056950D01*
X9465920Y-16056950D02*
X9484968Y-16066474D01*
X9484968Y-16066474D02*
X9494492Y-16085522D01*
X9494492Y-16085522D02*
X9494492Y-16104569D01*
X9494492Y-16104569D02*
X9399253Y-16123617D01*
X9570682Y-16180760D02*
X9589730Y-16190284D01*
X9589730Y-16190284D02*
X9627825Y-16190284D01*
X9627825Y-16190284D02*
X9646873Y-16180760D01*
X9646873Y-16180760D02*
X9656396Y-16161712D01*
X9656396Y-16161712D02*
X9656396Y-16152188D01*
X9656396Y-16152188D02*
X9646873Y-16133141D01*
X9646873Y-16133141D02*
X9627825Y-16123617D01*
X9627825Y-16123617D02*
X9599253Y-16123617D01*
X9599253Y-16123617D02*
X9580206Y-16114093D01*
X9580206Y-16114093D02*
X9570682Y-16095046D01*
X9570682Y-16095046D02*
X9570682Y-16085522D01*
X9570682Y-16085522D02*
X9580206Y-16066474D01*
X9580206Y-16066474D02*
X9599253Y-16056950D01*
X9599253Y-16056950D02*
X9627825Y-16056950D01*
X9627825Y-16056950D02*
X9646873Y-16066474D01*
X9723063Y-16266474D02*
X9732587Y-16256950D01*
X9732587Y-16256950D02*
X9751634Y-16228379D01*
X9751634Y-16228379D02*
X9761158Y-16209331D01*
X9761158Y-16209331D02*
X9770682Y-16180760D01*
X9770682Y-16180760D02*
X9780206Y-16133141D01*
X9780206Y-16133141D02*
X9780206Y-16095046D01*
X9780206Y-16095046D02*
X9770682Y-16047427D01*
X9770682Y-16047427D02*
X9761158Y-16018855D01*
X9761158Y-16018855D02*
X9751634Y-15999808D01*
X9751634Y-15999808D02*
X9732587Y-15971236D01*
X9732587Y-15971236D02*
X9723063Y-15961712D01*
X10084968Y-16266474D02*
X10075444Y-16256950D01*
X10075444Y-16256950D02*
X10056396Y-16228379D01*
X10056396Y-16228379D02*
X10046873Y-16209331D01*
X10046873Y-16209331D02*
X10037349Y-16180760D01*
X10037349Y-16180760D02*
X10027825Y-16133141D01*
X10027825Y-16133141D02*
X10027825Y-16095046D01*
X10027825Y-16095046D02*
X10037349Y-16047427D01*
X10037349Y-16047427D02*
X10046873Y-16018855D01*
X10046873Y-16018855D02*
X10056396Y-15999808D01*
X10056396Y-15999808D02*
X10075444Y-15971236D01*
X10075444Y-15971236D02*
X10084968Y-15961712D01*
X10161158Y-16056950D02*
X10161158Y-16190284D01*
X10161158Y-16075998D02*
X10170682Y-16066474D01*
X10170682Y-16066474D02*
X10189730Y-16056950D01*
X10189730Y-16056950D02*
X10218301Y-16056950D01*
X10218301Y-16056950D02*
X10237349Y-16066474D01*
X10237349Y-16066474D02*
X10246873Y-16085522D01*
X10246873Y-16085522D02*
X10246873Y-16190284D01*
X10370682Y-16190284D02*
X10351634Y-16180760D01*
X10351634Y-16180760D02*
X10342111Y-16171236D01*
X10342111Y-16171236D02*
X10332587Y-16152188D01*
X10332587Y-16152188D02*
X10332587Y-16095046D01*
X10332587Y-16095046D02*
X10342111Y-16075998D01*
X10342111Y-16075998D02*
X10351634Y-16066474D01*
X10351634Y-16066474D02*
X10370682Y-16056950D01*
X10370682Y-16056950D02*
X10399254Y-16056950D01*
X10399254Y-16056950D02*
X10418301Y-16066474D01*
X10418301Y-16066474D02*
X10427825Y-16075998D01*
X10427825Y-16075998D02*
X10437349Y-16095046D01*
X10437349Y-16095046D02*
X10437349Y-16152188D01*
X10437349Y-16152188D02*
X10427825Y-16171236D01*
X10427825Y-16171236D02*
X10418301Y-16180760D01*
X10418301Y-16180760D02*
X10399254Y-16190284D01*
X10399254Y-16190284D02*
X10370682Y-16190284D01*
X10494492Y-16056950D02*
X10570682Y-16056950D01*
X10523063Y-15990284D02*
X10523063Y-16161712D01*
X10523063Y-16161712D02*
X10532587Y-16180760D01*
X10532587Y-16180760D02*
X10551634Y-16190284D01*
X10551634Y-16190284D02*
X10570682Y-16190284D01*
X10789730Y-16056950D02*
X10789730Y-16256950D01*
X10789730Y-16066474D02*
X10808777Y-16056950D01*
X10808777Y-16056950D02*
X10846873Y-16056950D01*
X10846873Y-16056950D02*
X10865920Y-16066474D01*
X10865920Y-16066474D02*
X10875444Y-16075998D01*
X10875444Y-16075998D02*
X10884968Y-16095046D01*
X10884968Y-16095046D02*
X10884968Y-16152188D01*
X10884968Y-16152188D02*
X10875444Y-16171236D01*
X10875444Y-16171236D02*
X10865920Y-16180760D01*
X10865920Y-16180760D02*
X10846873Y-16190284D01*
X10846873Y-16190284D02*
X10808777Y-16190284D01*
X10808777Y-16190284D02*
X10789730Y-16180760D01*
X10999254Y-16190284D02*
X10980206Y-16180760D01*
X10980206Y-16180760D02*
X10970682Y-16161712D01*
X10970682Y-16161712D02*
X10970682Y-15990284D01*
X11161158Y-16190284D02*
X11161158Y-16085522D01*
X11161158Y-16085522D02*
X11151635Y-16066474D01*
X11151635Y-16066474D02*
X11132587Y-16056950D01*
X11132587Y-16056950D02*
X11094492Y-16056950D01*
X11094492Y-16056950D02*
X11075444Y-16066474D01*
X11161158Y-16180760D02*
X11142111Y-16190284D01*
X11142111Y-16190284D02*
X11094492Y-16190284D01*
X11094492Y-16190284D02*
X11075444Y-16180760D01*
X11075444Y-16180760D02*
X11065920Y-16161712D01*
X11065920Y-16161712D02*
X11065920Y-16142665D01*
X11065920Y-16142665D02*
X11075444Y-16123617D01*
X11075444Y-16123617D02*
X11094492Y-16114093D01*
X11094492Y-16114093D02*
X11142111Y-16114093D01*
X11142111Y-16114093D02*
X11161158Y-16104569D01*
X11227825Y-16056950D02*
X11304015Y-16056950D01*
X11256396Y-15990284D02*
X11256396Y-16161712D01*
X11256396Y-16161712D02*
X11265920Y-16180760D01*
X11265920Y-16180760D02*
X11284968Y-16190284D01*
X11284968Y-16190284D02*
X11304015Y-16190284D01*
X11446873Y-16180760D02*
X11427825Y-16190284D01*
X11427825Y-16190284D02*
X11389730Y-16190284D01*
X11389730Y-16190284D02*
X11370682Y-16180760D01*
X11370682Y-16180760D02*
X11361158Y-16161712D01*
X11361158Y-16161712D02*
X11361158Y-16085522D01*
X11361158Y-16085522D02*
X11370682Y-16066474D01*
X11370682Y-16066474D02*
X11389730Y-16056950D01*
X11389730Y-16056950D02*
X11427825Y-16056950D01*
X11427825Y-16056950D02*
X11446873Y-16066474D01*
X11446873Y-16066474D02*
X11456396Y-16085522D01*
X11456396Y-16085522D02*
X11456396Y-16104569D01*
X11456396Y-16104569D02*
X11361158Y-16123617D01*
X11627825Y-16190284D02*
X11627825Y-15990284D01*
X11627825Y-16180760D02*
X11608777Y-16190284D01*
X11608777Y-16190284D02*
X11570682Y-16190284D01*
X11570682Y-16190284D02*
X11551634Y-16180760D01*
X11551634Y-16180760D02*
X11542111Y-16171236D01*
X11542111Y-16171236D02*
X11532587Y-16152188D01*
X11532587Y-16152188D02*
X11532587Y-16095046D01*
X11532587Y-16095046D02*
X11542111Y-16075998D01*
X11542111Y-16075998D02*
X11551634Y-16066474D01*
X11551634Y-16066474D02*
X11570682Y-16056950D01*
X11570682Y-16056950D02*
X11608777Y-16056950D01*
X11608777Y-16056950D02*
X11627825Y-16066474D01*
X11704015Y-16266474D02*
X11713539Y-16256950D01*
X11713539Y-16256950D02*
X11732587Y-16228379D01*
X11732587Y-16228379D02*
X11742111Y-16209331D01*
X11742111Y-16209331D02*
X11751634Y-16180760D01*
X11751634Y-16180760D02*
X11761158Y-16133141D01*
X11761158Y-16133141D02*
X11761158Y-16095046D01*
X11761158Y-16095046D02*
X11751634Y-16047427D01*
X11751634Y-16047427D02*
X11742111Y-16018855D01*
X11742111Y-16018855D02*
X11732587Y-15999808D01*
X11732587Y-15999808D02*
X11713539Y-15971236D01*
X11713539Y-15971236D02*
X11704015Y-15961712D01*
X4948000Y-16362800D02*
G75*
G02*
X4748000Y-16362800I-100000J0D01*
G01*
X4748000Y-16362800D02*
G75*
G02*
X4948000Y-16362800I100000J0D01*
G01*
X5189729Y-16254284D02*
X5313539Y-16254284D01*
X5313539Y-16254284D02*
X5246872Y-16330474D01*
X5246872Y-16330474D02*
X5275444Y-16330474D01*
X5275444Y-16330474D02*
X5294491Y-16339998D01*
X5294491Y-16339998D02*
X5304015Y-16349522D01*
X5304015Y-16349522D02*
X5313539Y-16368569D01*
X5313539Y-16368569D02*
X5313539Y-16416188D01*
X5313539Y-16416188D02*
X5304015Y-16435236D01*
X5304015Y-16435236D02*
X5294491Y-16444760D01*
X5294491Y-16444760D02*
X5275444Y-16454284D01*
X5275444Y-16454284D02*
X5218301Y-16454284D01*
X5218301Y-16454284D02*
X5199253Y-16444760D01*
X5199253Y-16444760D02*
X5189729Y-16435236D01*
X5399253Y-16435236D02*
X5408777Y-16444760D01*
X5408777Y-16444760D02*
X5399253Y-16454284D01*
X5399253Y-16454284D02*
X5389729Y-16444760D01*
X5389729Y-16444760D02*
X5399253Y-16435236D01*
X5399253Y-16435236D02*
X5399253Y-16454284D01*
X5484967Y-16273331D02*
X5494491Y-16263808D01*
X5494491Y-16263808D02*
X5513539Y-16254284D01*
X5513539Y-16254284D02*
X5561158Y-16254284D01*
X5561158Y-16254284D02*
X5580205Y-16263808D01*
X5580205Y-16263808D02*
X5589729Y-16273331D01*
X5589729Y-16273331D02*
X5599253Y-16292379D01*
X5599253Y-16292379D02*
X5599253Y-16311427D01*
X5599253Y-16311427D02*
X5589729Y-16339998D01*
X5589729Y-16339998D02*
X5475444Y-16454284D01*
X5475444Y-16454284D02*
X5599253Y-16454284D01*
X5723062Y-16254284D02*
X5742110Y-16254284D01*
X5742110Y-16254284D02*
X5761158Y-16263808D01*
X5761158Y-16263808D02*
X5770682Y-16273331D01*
X5770682Y-16273331D02*
X5780205Y-16292379D01*
X5780205Y-16292379D02*
X5789729Y-16330474D01*
X5789729Y-16330474D02*
X5789729Y-16378093D01*
X5789729Y-16378093D02*
X5780205Y-16416188D01*
X5780205Y-16416188D02*
X5770682Y-16435236D01*
X5770682Y-16435236D02*
X5761158Y-16444760D01*
X5761158Y-16444760D02*
X5742110Y-16454284D01*
X5742110Y-16454284D02*
X5723062Y-16454284D01*
X5723062Y-16454284D02*
X5704015Y-16444760D01*
X5704015Y-16444760D02*
X5694491Y-16435236D01*
X5694491Y-16435236D02*
X5684967Y-16416188D01*
X5684967Y-16416188D02*
X5675443Y-16378093D01*
X5675443Y-16378093D02*
X5675443Y-16330474D01*
X5675443Y-16330474D02*
X5684967Y-16292379D01*
X5684967Y-16292379D02*
X5694491Y-16273331D01*
X5694491Y-16273331D02*
X5704015Y-16263808D01*
X5704015Y-16263808D02*
X5723062Y-16254284D01*
X5913539Y-16254284D02*
X5932586Y-16254284D01*
X5932586Y-16254284D02*
X5951634Y-16263808D01*
X5951634Y-16263808D02*
X5961158Y-16273331D01*
X5961158Y-16273331D02*
X5970682Y-16292379D01*
X5970682Y-16292379D02*
X5980205Y-16330474D01*
X5980205Y-16330474D02*
X5980205Y-16378093D01*
X5980205Y-16378093D02*
X5970682Y-16416188D01*
X5970682Y-16416188D02*
X5961158Y-16435236D01*
X5961158Y-16435236D02*
X5951634Y-16444760D01*
X5951634Y-16444760D02*
X5932586Y-16454284D01*
X5932586Y-16454284D02*
X5913539Y-16454284D01*
X5913539Y-16454284D02*
X5894491Y-16444760D01*
X5894491Y-16444760D02*
X5884967Y-16435236D01*
X5884967Y-16435236D02*
X5875443Y-16416188D01*
X5875443Y-16416188D02*
X5865920Y-16378093D01*
X5865920Y-16378093D02*
X5865920Y-16330474D01*
X5865920Y-16330474D02*
X5875443Y-16292379D01*
X5875443Y-16292379D02*
X5884967Y-16273331D01*
X5884967Y-16273331D02*
X5894491Y-16263808D01*
X5894491Y-16263808D02*
X5913539Y-16254284D01*
X6065920Y-16454284D02*
X6065920Y-16320950D01*
X6065920Y-16339998D02*
X6075443Y-16330474D01*
X6075443Y-16330474D02*
X6094491Y-16320950D01*
X6094491Y-16320950D02*
X6123063Y-16320950D01*
X6123063Y-16320950D02*
X6142110Y-16330474D01*
X6142110Y-16330474D02*
X6151634Y-16349522D01*
X6151634Y-16349522D02*
X6151634Y-16454284D01*
X6151634Y-16349522D02*
X6161158Y-16330474D01*
X6161158Y-16330474D02*
X6180205Y-16320950D01*
X6180205Y-16320950D02*
X6208777Y-16320950D01*
X6208777Y-16320950D02*
X6227824Y-16330474D01*
X6227824Y-16330474D02*
X6237348Y-16349522D01*
X6237348Y-16349522D02*
X6237348Y-16454284D01*
X6332586Y-16454284D02*
X6332586Y-16320950D01*
X6332586Y-16339998D02*
X6342110Y-16330474D01*
X6342110Y-16330474D02*
X6361158Y-16320950D01*
X6361158Y-16320950D02*
X6389729Y-16320950D01*
X6389729Y-16320950D02*
X6408777Y-16330474D01*
X6408777Y-16330474D02*
X6418301Y-16349522D01*
X6418301Y-16349522D02*
X6418301Y-16454284D01*
X6418301Y-16349522D02*
X6427824Y-16330474D01*
X6427824Y-16330474D02*
X6446872Y-16320950D01*
X6446872Y-16320950D02*
X6475443Y-16320950D01*
X6475443Y-16320950D02*
X6494491Y-16330474D01*
X6494491Y-16330474D02*
X6504015Y-16349522D01*
X6504015Y-16349522D02*
X6504015Y-16454284D01*
X6894491Y-16244760D02*
X6723063Y-16501903D01*
X7151634Y-16254284D02*
X7170682Y-16254284D01*
X7170682Y-16254284D02*
X7189729Y-16263808D01*
X7189729Y-16263808D02*
X7199253Y-16273331D01*
X7199253Y-16273331D02*
X7208777Y-16292379D01*
X7208777Y-16292379D02*
X7218301Y-16330474D01*
X7218301Y-16330474D02*
X7218301Y-16378093D01*
X7218301Y-16378093D02*
X7208777Y-16416188D01*
X7208777Y-16416188D02*
X7199253Y-16435236D01*
X7199253Y-16435236D02*
X7189729Y-16444760D01*
X7189729Y-16444760D02*
X7170682Y-16454284D01*
X7170682Y-16454284D02*
X7151634Y-16454284D01*
X7151634Y-16454284D02*
X7132586Y-16444760D01*
X7132586Y-16444760D02*
X7123063Y-16435236D01*
X7123063Y-16435236D02*
X7113539Y-16416188D01*
X7113539Y-16416188D02*
X7104015Y-16378093D01*
X7104015Y-16378093D02*
X7104015Y-16330474D01*
X7104015Y-16330474D02*
X7113539Y-16292379D01*
X7113539Y-16292379D02*
X7123063Y-16273331D01*
X7123063Y-16273331D02*
X7132586Y-16263808D01*
X7132586Y-16263808D02*
X7151634Y-16254284D01*
X7304015Y-16435236D02*
X7313539Y-16444760D01*
X7313539Y-16444760D02*
X7304015Y-16454284D01*
X7304015Y-16454284D02*
X7294491Y-16444760D01*
X7294491Y-16444760D02*
X7304015Y-16435236D01*
X7304015Y-16435236D02*
X7304015Y-16454284D01*
X7504015Y-16454284D02*
X7389729Y-16454284D01*
X7446872Y-16454284D02*
X7446872Y-16254284D01*
X7446872Y-16254284D02*
X7427825Y-16282855D01*
X7427825Y-16282855D02*
X7408777Y-16301903D01*
X7408777Y-16301903D02*
X7389729Y-16311427D01*
X7580206Y-16273331D02*
X7589729Y-16263808D01*
X7589729Y-16263808D02*
X7608777Y-16254284D01*
X7608777Y-16254284D02*
X7656396Y-16254284D01*
X7656396Y-16254284D02*
X7675444Y-16263808D01*
X7675444Y-16263808D02*
X7684967Y-16273331D01*
X7684967Y-16273331D02*
X7694491Y-16292379D01*
X7694491Y-16292379D02*
X7694491Y-16311427D01*
X7694491Y-16311427D02*
X7684967Y-16339998D01*
X7684967Y-16339998D02*
X7570682Y-16454284D01*
X7570682Y-16454284D02*
X7694491Y-16454284D01*
X7865920Y-16254284D02*
X7827825Y-16254284D01*
X7827825Y-16254284D02*
X7808777Y-16263808D01*
X7808777Y-16263808D02*
X7799253Y-16273331D01*
X7799253Y-16273331D02*
X7780206Y-16301903D01*
X7780206Y-16301903D02*
X7770682Y-16339998D01*
X7770682Y-16339998D02*
X7770682Y-16416188D01*
X7770682Y-16416188D02*
X7780206Y-16435236D01*
X7780206Y-16435236D02*
X7789729Y-16444760D01*
X7789729Y-16444760D02*
X7808777Y-16454284D01*
X7808777Y-16454284D02*
X7846872Y-16454284D01*
X7846872Y-16454284D02*
X7865920Y-16444760D01*
X7865920Y-16444760D02*
X7875444Y-16435236D01*
X7875444Y-16435236D02*
X7884967Y-16416188D01*
X7884967Y-16416188D02*
X7884967Y-16368569D01*
X7884967Y-16368569D02*
X7875444Y-16349522D01*
X7875444Y-16349522D02*
X7865920Y-16339998D01*
X7865920Y-16339998D02*
X7846872Y-16330474D01*
X7846872Y-16330474D02*
X7808777Y-16330474D01*
X7808777Y-16330474D02*
X7789729Y-16339998D01*
X7789729Y-16339998D02*
X7780206Y-16349522D01*
X7780206Y-16349522D02*
X7770682Y-16368569D01*
X8008777Y-16254284D02*
X8027825Y-16254284D01*
X8027825Y-16254284D02*
X8046872Y-16263808D01*
X8046872Y-16263808D02*
X8056396Y-16273331D01*
X8056396Y-16273331D02*
X8065920Y-16292379D01*
X8065920Y-16292379D02*
X8075444Y-16330474D01*
X8075444Y-16330474D02*
X8075444Y-16378093D01*
X8075444Y-16378093D02*
X8065920Y-16416188D01*
X8065920Y-16416188D02*
X8056396Y-16435236D01*
X8056396Y-16435236D02*
X8046872Y-16444760D01*
X8046872Y-16444760D02*
X8027825Y-16454284D01*
X8027825Y-16454284D02*
X8008777Y-16454284D01*
X8008777Y-16454284D02*
X7989729Y-16444760D01*
X7989729Y-16444760D02*
X7980206Y-16435236D01*
X7980206Y-16435236D02*
X7970682Y-16416188D01*
X7970682Y-16416188D02*
X7961158Y-16378093D01*
X7961158Y-16378093D02*
X7961158Y-16330474D01*
X7961158Y-16330474D02*
X7970682Y-16292379D01*
X7970682Y-16292379D02*
X7980206Y-16273331D01*
X7980206Y-16273331D02*
X7989729Y-16263808D01*
X7989729Y-16263808D02*
X8008777Y-16254284D01*
X8151634Y-16254284D02*
X8151634Y-16292379D01*
X8227825Y-16254284D02*
X8227825Y-16292379D01*
X8523063Y-16530474D02*
X8513539Y-16520950D01*
X8513539Y-16520950D02*
X8494491Y-16492379D01*
X8494491Y-16492379D02*
X8484968Y-16473331D01*
X8484968Y-16473331D02*
X8475444Y-16444760D01*
X8475444Y-16444760D02*
X8465920Y-16397141D01*
X8465920Y-16397141D02*
X8465920Y-16359046D01*
X8465920Y-16359046D02*
X8475444Y-16311427D01*
X8475444Y-16311427D02*
X8484968Y-16282855D01*
X8484968Y-16282855D02*
X8494491Y-16263808D01*
X8494491Y-16263808D02*
X8513539Y-16235236D01*
X8513539Y-16235236D02*
X8523063Y-16225712D01*
X8684968Y-16320950D02*
X8684968Y-16454284D01*
X8637349Y-16244760D02*
X8589730Y-16387617D01*
X8589730Y-16387617D02*
X8713539Y-16387617D01*
X8942111Y-16454284D02*
X8942111Y-16254284D01*
X9027825Y-16454284D02*
X9027825Y-16349522D01*
X9027825Y-16349522D02*
X9018301Y-16330474D01*
X9018301Y-16330474D02*
X8999253Y-16320950D01*
X8999253Y-16320950D02*
X8970682Y-16320950D01*
X8970682Y-16320950D02*
X8951634Y-16330474D01*
X8951634Y-16330474D02*
X8942111Y-16339998D01*
X9151634Y-16454284D02*
X9132587Y-16444760D01*
X9132587Y-16444760D02*
X9123063Y-16435236D01*
X9123063Y-16435236D02*
X9113539Y-16416188D01*
X9113539Y-16416188D02*
X9113539Y-16359046D01*
X9113539Y-16359046D02*
X9123063Y-16339998D01*
X9123063Y-16339998D02*
X9132587Y-16330474D01*
X9132587Y-16330474D02*
X9151634Y-16320950D01*
X9151634Y-16320950D02*
X9180206Y-16320950D01*
X9180206Y-16320950D02*
X9199253Y-16330474D01*
X9199253Y-16330474D02*
X9208777Y-16339998D01*
X9208777Y-16339998D02*
X9218301Y-16359046D01*
X9218301Y-16359046D02*
X9218301Y-16416188D01*
X9218301Y-16416188D02*
X9208777Y-16435236D01*
X9208777Y-16435236D02*
X9199253Y-16444760D01*
X9199253Y-16444760D02*
X9180206Y-16454284D01*
X9180206Y-16454284D02*
X9151634Y-16454284D01*
X9332587Y-16454284D02*
X9313539Y-16444760D01*
X9313539Y-16444760D02*
X9304015Y-16425712D01*
X9304015Y-16425712D02*
X9304015Y-16254284D01*
X9484968Y-16444760D02*
X9465920Y-16454284D01*
X9465920Y-16454284D02*
X9427825Y-16454284D01*
X9427825Y-16454284D02*
X9408777Y-16444760D01*
X9408777Y-16444760D02*
X9399253Y-16425712D01*
X9399253Y-16425712D02*
X9399253Y-16349522D01*
X9399253Y-16349522D02*
X9408777Y-16330474D01*
X9408777Y-16330474D02*
X9427825Y-16320950D01*
X9427825Y-16320950D02*
X9465920Y-16320950D01*
X9465920Y-16320950D02*
X9484968Y-16330474D01*
X9484968Y-16330474D02*
X9494492Y-16349522D01*
X9494492Y-16349522D02*
X9494492Y-16368569D01*
X9494492Y-16368569D02*
X9399253Y-16387617D01*
X9570682Y-16444760D02*
X9589730Y-16454284D01*
X9589730Y-16454284D02*
X9627825Y-16454284D01*
X9627825Y-16454284D02*
X9646873Y-16444760D01*
X9646873Y-16444760D02*
X9656396Y-16425712D01*
X9656396Y-16425712D02*
X9656396Y-16416188D01*
X9656396Y-16416188D02*
X9646873Y-16397141D01*
X9646873Y-16397141D02*
X9627825Y-16387617D01*
X9627825Y-16387617D02*
X9599253Y-16387617D01*
X9599253Y-16387617D02*
X9580206Y-16378093D01*
X9580206Y-16378093D02*
X9570682Y-16359046D01*
X9570682Y-16359046D02*
X9570682Y-16349522D01*
X9570682Y-16349522D02*
X9580206Y-16330474D01*
X9580206Y-16330474D02*
X9599253Y-16320950D01*
X9599253Y-16320950D02*
X9627825Y-16320950D01*
X9627825Y-16320950D02*
X9646873Y-16330474D01*
X9723063Y-16530474D02*
X9732587Y-16520950D01*
X9732587Y-16520950D02*
X9751634Y-16492379D01*
X9751634Y-16492379D02*
X9761158Y-16473331D01*
X9761158Y-16473331D02*
X9770682Y-16444760D01*
X9770682Y-16444760D02*
X9780206Y-16397141D01*
X9780206Y-16397141D02*
X9780206Y-16359046D01*
X9780206Y-16359046D02*
X9770682Y-16311427D01*
X9770682Y-16311427D02*
X9761158Y-16282855D01*
X9761158Y-16282855D02*
X9751634Y-16263808D01*
X9751634Y-16263808D02*
X9732587Y-16235236D01*
X9732587Y-16235236D02*
X9723063Y-16225712D01*
X10084968Y-16530474D02*
X10075444Y-16520950D01*
X10075444Y-16520950D02*
X10056396Y-16492379D01*
X10056396Y-16492379D02*
X10046873Y-16473331D01*
X10046873Y-16473331D02*
X10037349Y-16444760D01*
X10037349Y-16444760D02*
X10027825Y-16397141D01*
X10027825Y-16397141D02*
X10027825Y-16359046D01*
X10027825Y-16359046D02*
X10037349Y-16311427D01*
X10037349Y-16311427D02*
X10046873Y-16282855D01*
X10046873Y-16282855D02*
X10056396Y-16263808D01*
X10056396Y-16263808D02*
X10075444Y-16235236D01*
X10075444Y-16235236D02*
X10084968Y-16225712D01*
X10161158Y-16320950D02*
X10161158Y-16454284D01*
X10161158Y-16339998D02*
X10170682Y-16330474D01*
X10170682Y-16330474D02*
X10189730Y-16320950D01*
X10189730Y-16320950D02*
X10218301Y-16320950D01*
X10218301Y-16320950D02*
X10237349Y-16330474D01*
X10237349Y-16330474D02*
X10246873Y-16349522D01*
X10246873Y-16349522D02*
X10246873Y-16454284D01*
X10370682Y-16454284D02*
X10351634Y-16444760D01*
X10351634Y-16444760D02*
X10342111Y-16435236D01*
X10342111Y-16435236D02*
X10332587Y-16416188D01*
X10332587Y-16416188D02*
X10332587Y-16359046D01*
X10332587Y-16359046D02*
X10342111Y-16339998D01*
X10342111Y-16339998D02*
X10351634Y-16330474D01*
X10351634Y-16330474D02*
X10370682Y-16320950D01*
X10370682Y-16320950D02*
X10399254Y-16320950D01*
X10399254Y-16320950D02*
X10418301Y-16330474D01*
X10418301Y-16330474D02*
X10427825Y-16339998D01*
X10427825Y-16339998D02*
X10437349Y-16359046D01*
X10437349Y-16359046D02*
X10437349Y-16416188D01*
X10437349Y-16416188D02*
X10427825Y-16435236D01*
X10427825Y-16435236D02*
X10418301Y-16444760D01*
X10418301Y-16444760D02*
X10399254Y-16454284D01*
X10399254Y-16454284D02*
X10370682Y-16454284D01*
X10494492Y-16320950D02*
X10570682Y-16320950D01*
X10523063Y-16254284D02*
X10523063Y-16425712D01*
X10523063Y-16425712D02*
X10532587Y-16444760D01*
X10532587Y-16444760D02*
X10551634Y-16454284D01*
X10551634Y-16454284D02*
X10570682Y-16454284D01*
X10789730Y-16320950D02*
X10789730Y-16520950D01*
X10789730Y-16330474D02*
X10808777Y-16320950D01*
X10808777Y-16320950D02*
X10846873Y-16320950D01*
X10846873Y-16320950D02*
X10865920Y-16330474D01*
X10865920Y-16330474D02*
X10875444Y-16339998D01*
X10875444Y-16339998D02*
X10884968Y-16359046D01*
X10884968Y-16359046D02*
X10884968Y-16416188D01*
X10884968Y-16416188D02*
X10875444Y-16435236D01*
X10875444Y-16435236D02*
X10865920Y-16444760D01*
X10865920Y-16444760D02*
X10846873Y-16454284D01*
X10846873Y-16454284D02*
X10808777Y-16454284D01*
X10808777Y-16454284D02*
X10789730Y-16444760D01*
X10999254Y-16454284D02*
X10980206Y-16444760D01*
X10980206Y-16444760D02*
X10970682Y-16425712D01*
X10970682Y-16425712D02*
X10970682Y-16254284D01*
X11161158Y-16454284D02*
X11161158Y-16349522D01*
X11161158Y-16349522D02*
X11151635Y-16330474D01*
X11151635Y-16330474D02*
X11132587Y-16320950D01*
X11132587Y-16320950D02*
X11094492Y-16320950D01*
X11094492Y-16320950D02*
X11075444Y-16330474D01*
X11161158Y-16444760D02*
X11142111Y-16454284D01*
X11142111Y-16454284D02*
X11094492Y-16454284D01*
X11094492Y-16454284D02*
X11075444Y-16444760D01*
X11075444Y-16444760D02*
X11065920Y-16425712D01*
X11065920Y-16425712D02*
X11065920Y-16406665D01*
X11065920Y-16406665D02*
X11075444Y-16387617D01*
X11075444Y-16387617D02*
X11094492Y-16378093D01*
X11094492Y-16378093D02*
X11142111Y-16378093D01*
X11142111Y-16378093D02*
X11161158Y-16368569D01*
X11227825Y-16320950D02*
X11304015Y-16320950D01*
X11256396Y-16254284D02*
X11256396Y-16425712D01*
X11256396Y-16425712D02*
X11265920Y-16444760D01*
X11265920Y-16444760D02*
X11284968Y-16454284D01*
X11284968Y-16454284D02*
X11304015Y-16454284D01*
X11446873Y-16444760D02*
X11427825Y-16454284D01*
X11427825Y-16454284D02*
X11389730Y-16454284D01*
X11389730Y-16454284D02*
X11370682Y-16444760D01*
X11370682Y-16444760D02*
X11361158Y-16425712D01*
X11361158Y-16425712D02*
X11361158Y-16349522D01*
X11361158Y-16349522D02*
X11370682Y-16330474D01*
X11370682Y-16330474D02*
X11389730Y-16320950D01*
X11389730Y-16320950D02*
X11427825Y-16320950D01*
X11427825Y-16320950D02*
X11446873Y-16330474D01*
X11446873Y-16330474D02*
X11456396Y-16349522D01*
X11456396Y-16349522D02*
X11456396Y-16368569D01*
X11456396Y-16368569D02*
X11361158Y-16387617D01*
X11627825Y-16454284D02*
X11627825Y-16254284D01*
X11627825Y-16444760D02*
X11608777Y-16454284D01*
X11608777Y-16454284D02*
X11570682Y-16454284D01*
X11570682Y-16454284D02*
X11551634Y-16444760D01*
X11551634Y-16444760D02*
X11542111Y-16435236D01*
X11542111Y-16435236D02*
X11532587Y-16416188D01*
X11532587Y-16416188D02*
X11532587Y-16359046D01*
X11532587Y-16359046D02*
X11542111Y-16339998D01*
X11542111Y-16339998D02*
X11551634Y-16330474D01*
X11551634Y-16330474D02*
X11570682Y-16320950D01*
X11570682Y-16320950D02*
X11608777Y-16320950D01*
X11608777Y-16320950D02*
X11627825Y-16330474D01*
X11704015Y-16530474D02*
X11713539Y-16520950D01*
X11713539Y-16520950D02*
X11732587Y-16492379D01*
X11732587Y-16492379D02*
X11742111Y-16473331D01*
X11742111Y-16473331D02*
X11751634Y-16444760D01*
X11751634Y-16444760D02*
X11761158Y-16397141D01*
X11761158Y-16397141D02*
X11761158Y-16359046D01*
X11761158Y-16359046D02*
X11751634Y-16311427D01*
X11751634Y-16311427D02*
X11742111Y-16282855D01*
X11742111Y-16282855D02*
X11732587Y-16263808D01*
X11732587Y-16263808D02*
X11713539Y-16235236D01*
X11713539Y-16235236D02*
X11704015Y-16225712D01*
M02*
